<?xml version="1.0" standalone="no"?>
<!DOCTYPE svg PUBLIC "-//W3C//DTD SVG 1.1//EN" "http://www.w3.org/Graphics/SVG/1.1/DTD/svg11.dtd" >
<svg xmlns="http://www.w3.org/2000/svg">
<metadata></metadata>
<defs>
<font id="glyphishregular" horiz-adv-x="1205" >
<font-face units-per-em="1000" ascent="750" descent="-250" />
<missing-glyph horiz-adv-x="500" />
<glyph unicode="&#xd;" horiz-adv-x="0" />
<glyph unicode=" " />
<glyph unicode="!" d="M728 427l-126 -151l-125 151h75v226h100v-226h76zM903 307v-257h-602v257l134 295h67v-50h-34l-114 -251h136l50 -75h124l50 75h137l-114 251h-35v50h67z" />
<glyph unicode="&#x22;" d="M591 46q-2 -10 -10.5 -16t-18.5 -4l-50 9q-10 2 -16 10t-4 19t9.5 16.5t18.5 3.5l7 39q-40 13 -75.5 44.5t-60 75t-35 95.5t-1.5 107q10 59 39 107.5t69.5 81t89.5 46.5t100 5t92 -39t67.5 -74.5t37 -99.5t0.5 -114q-10 -55 -38 -100.5t-66 -77.5t-82 -49.5t-86 -16.5 l-7 -39q10 -2 16 -10.5t4 -18.5zM501 508q9 13 20 25t21.5 21.5t18 15.5t9.5 7l-46 32q-14 -9 -26 -20q-11 -9 -22.5 -21t-20.5 -26q-10 -14 -16 -29t-11 -28q-5 -15 -9 -30l48 -32q3 14 8 29q4 13 10.5 27.5t15.5 28.5z" />
<glyph unicode="#" d="M351 402h502v-176h-502v176zM351 201h502v-176h-502v176zM351 602h502v-175h-502v175zM376 627l50 51h351l50 -51h-451zM501 527v-50h25v25h151v-25h25v50h-201zM501 125v-50h25v25h151v-25h25v50h-201zM501 326v-50h25v25h151v-25h25v50h-201z" />
<glyph unicode="$" d="M924 326q0 -11 -7 -18t-18 -7h-41q-21 -47 -59 -80v-59q0 -30 -18.5 -46t-44.5 -16t-44.5 14.5t-18.5 35.5v8q-38 -8 -75 -8t-75 8v-8q0 -21 -18.5 -35.5t-44.5 -14.5t-44.5 14.5t-18.5 35.5v71q-51 44 -68 104l-4 2t-4 3q-29 21 -43.5 47t-20.5 48.5t-5.5 37t2.5 13.5 q1 -2 7 -13t15 -23.5t21.5 -24t26.5 -12.5q6 42 29.5 78.5t60 63t84 42t100.5 15.5q48 0 90.5 -12.5t77.5 -34.5q16 10 33 15t31 5t22 -3t5 -9q-5 -11 -17.5 -22t-22.5 -28q13 -14 23 -29.5t18 -32.5h41q11 0 18 -7t7 -18v-100zM472 476q19 7 38 12q17 5 36.5 9t38.5 4 t38.5 -4t36.5 -9q19 -5 38 -12v51q-19 7 -38 12q-17 5 -36.5 9t-38.5 4t-38.5 -4t-36.5 -9q-19 -5 -38 -12v-51z" />
<glyph unicode="%" d="M513 151q0 -21 -15 -35.5t-35 -14.5q-21 0 -35.5 14.5t-14.5 35.5q0 20 14.5 35t35.5 15q20 0 35 -15t15 -35zM789 151q0 -21 -14.5 -35.5t-35.5 -14.5t-35.5 14.5t-14.5 35.5q0 20 14.5 35t35.5 15t35.5 -15t14.5 -35zM915 502l-85 -251h-430l-128 251h-23q-15 0 -26 11 t-11 27t11 26.5t26 10.5h51l50 -75h565zM387 439q13 0 13 13q0 12 -13 12q-12 0 -12 -12q0 -13 12 -13zM664 414q-13 0 -13 -12q0 -13 13 -13q5 0 8.5 4t3.5 9t-3.5 8.5t-8.5 3.5zM638 464q-5 0 -8.5 -3.5t-3.5 -8.5t3.5 -9t8.5 -4q13 0 13 13q0 12 -13 12zM613 414 q-12 0 -12 -12q0 -13 12 -13q13 0 13 13q0 12 -13 12zM538 464q-13 0 -13 -12q0 -13 13 -13t13 13q0 12 -13 12zM488 464q-13 0 -13 -12q0 -13 13 -13q12 0 12 13q0 12 -12 12zM438 464q-13 0 -13 -12q0 -13 13 -13q12 0 12 13q0 12 -12 12zM413 389q5 0 8.5 4t3.5 9 t-3.5 8.5t-8.5 3.5q-13 0 -13 -12q0 -13 13 -13zM438 339q12 0 12 13q0 5 -3.5 8.5t-8.5 3.5t-9 -3.5t-4 -8.5q0 -13 13 -13zM463 414q-13 0 -13 -12q0 -13 13 -13q12 0 12 13q0 12 -12 12zM463 289q12 0 12 12q0 13 -12 13q-13 0 -13 -13q0 -12 13 -12zM488 339q12 0 12 13 q0 5 -3.5 8.5t-8.5 3.5t-9 -3.5t-4 -8.5q0 -13 13 -13zM513 414q-13 0 -13 -12q0 -13 13 -13q12 0 12 13q0 12 -12 12zM513 289q12 0 12 12q0 13 -12 13q-13 0 -13 -13q0 -12 13 -12zM538 339q13 0 13 13q0 5 -4 8.5t-9 3.5t-9 -3.5t-4 -8.5q0 -13 13 -13zM563 414 q-12 0 -12 -12q0 -13 12 -13q13 0 13 13q0 12 -13 12zM563 289q13 0 13 12q0 13 -13 13q-12 0 -12 -13q0 -12 12 -12zM588 339q13 0 13 13q0 5 -4 8.5t-9 3.5t-8.5 -3.5t-3.5 -8.5q0 -13 12 -13zM588 439q13 0 13 13q0 12 -13 12q-12 0 -12 -12q0 -13 12 -13zM613 289 q13 0 13 12q0 13 -13 13q-12 0 -12 -13q0 -12 12 -12zM638 339q13 0 13 13q0 5 -4 8.5t-9 3.5t-8.5 -3.5t-3.5 -8.5t3.5 -9t8.5 -4zM663 289q13 0 13 12q0 13 -13 13q-5 0 -8.5 -4t-3.5 -9t3.5 -8.5t8.5 -3.5zM689 339q12 0 12 13q0 5 -3.5 8.5t-8.5 3.5t-9 -3.5t-4 -8.5 q0 -13 13 -13zM689 439q12 0 12 13q0 12 -12 12q-13 0 -13 -12q0 -13 13 -13zM714 414q-13 0 -13 -12q0 -13 13 -13q12 0 12 13q0 12 -12 12zM714 289q12 0 12 12q0 13 -12 13q-13 0 -13 -13q0 -12 13 -12zM739 339q12 0 12 13q0 5 -3.5 8.5t-8.5 3.5t-9 -3.5t-4 -8.5 q0 -13 13 -13zM739 439q12 0 12 13q0 12 -12 12q-13 0 -13 -12q0 -13 13 -13zM764 289q12 0 12 12q0 13 -12 13q-13 0 -13 -13q0 -12 13 -12zM764 389q12 0 12 13q0 12 -12 12q-13 0 -13 -12q0 -13 13 -13zM789 339q13 0 13 13q0 5 -4 8.5t-9 3.5t-8.5 -3.5t-3.5 -8.5 q0 -13 12 -13zM789 439q13 0 13 13q0 12 -13 12q-12 0 -12 -12q0 -13 12 -13zM814 389q13 0 13 13q0 12 -13 12q-12 0 -12 -12q0 -13 12 -13zM839 439q13 0 13 13q0 12 -13 12q-12 0 -12 -12q0 -13 12 -13z" />
<glyph unicode="&#x26;" d="M778 200q0 -23 -8 -53t-28 -57t-54 -46t-86 -19t-86 19t-54 46t-28 57t-8 53v352q0 2 2.5 20.5t13.5 40.5q31 64 110 64q38 0 66.5 -16.5t43.5 -47.5q11 -22 13 -40.5t2 -20.5v-327q0 -11 -4 -24.5t-13 -24.5t-23 -18.5t-35 -7.5t-35 7.5t-23 18.5t-13 24.5t-4 24.5v226 q0 11 7 18t18 7t18 -7t7 -18v-226q0 -8 5 -16.5t20 -8.5t20 8.5t5 17.5v326q0 4 -1.5 16.5t-9 25.5t-22.5 23t-42 10q-47 0 -66 -36q-4 -8 -5.5 -15t-2.5 -12q-1 -6 -1 -12v-352q0 -5 2.5 -25t14.5 -42t37.5 -40t70.5 -18q31 0 52.5 9t35.5 22.5t21.5 29t11.5 29.5t4.5 24 t0.5 11v377q0 11 7 18t18 7q10 0 17.5 -7t7.5 -18v-377z" />
<glyph unicode="'" d="M471 739q23 0 47.5 -9.5t44.5 -29.5q24 -22 39 -53q7 15 17 28.5t22 24.5q20 20 44.5 29.5t47.5 9.5q35 0 58 -21q13 -13 18.5 -30.5t3 -36.5t-12.5 -38t-28 -35q-17 -15 -35 -25h116q20 0 35 -15t15 -36v-175h-276v203q-14 3 -24 13l-1 1l-1 -1q-12 -10 -24 -13v-203 h-276v175q0 21 14.5 36t35.5 15h115q-10 5 -18 11.5t-16 13.5q-18 16 -28 35t-12.5 38t2.5 36.5t19 30.5q11 11 26 16t32 5zM577 276v-225h-226q-21 0 -35.5 14.5t-14.5 35.5v175h276zM903 276v-175q0 -21 -15 -35.5t-35 -14.5h-226v225h276zM565 580q2 3 0.5 12.5t-6 21.5 t-12 25t-19.5 24q-13 11 -28 18t-30 7q-4 0 -11 -1.5t-12 -6.5q-1 -1 -3.5 -4.5t-2.5 -11.5q0 -9 5.5 -22t19.5 -27q17 -15 41.5 -25.5t44.5 -10.5h9q2 0 4 1zM733 688q-15 0 -30 -7t-28 -18q-12 -11 -19.5 -24t-12 -25t-6 -21t0.5 -13q1 -1 3 -1h10q20 0 44.5 10.5 t41.5 25.5q14 14 19.5 27t5.5 22q0 8 -2.5 11.5t-3.5 4.5q-5 5 -12 6.5t-11 1.5z" />
<glyph unicode="(" d="M731 136q0 -10 -1 -17.5t-3 -12.5q-4 -15 -11.5 -29t-19 -25t-26 -17.5t-32.5 -6.5t-33 7t-26.5 19t-18 28t-6.5 34t6.5 36t18 33.5t27.5 25.5t36 11q38 3 62.5 -23t26.5 -63zM637 598l-37 30q-12 -15 -34 -43t-47.5 -61t-51 -68.5t-44.5 -65.5q-16 -24 -25 -43t-8 -21 q-1 -5 3.5 -13t12.5 -17.5t18.5 -19.5t22.5 -19q11 -10 22 -17.5t20 -13.5q10 -7 19 -12q5 -3 7 -9.5t-2 -12.5q-5 -7 -13 -7q-4 0 -8 2q-1 0 -20.5 12.5t-44.5 32.5q-24 20 -45 43t-23 51q1 17 11 36t26 45q17 25 37 53.5t42 56.5q32 43 59.5 78.5t41.5 52.5l-36 30l117 44 zM688 111q2 11 -2 24q-5 15 -14 26.5t-26 15.5q-23 5 -38.5 -11t-11.5 -39q3 -17 13 -33.5t30 -20.5q22 -4 34 7.5t15 30.5zM330 512l45 58l-47 48l19 19l45 -45l35 44l22 -17l-37 -47l36 -35l-20 -20l-33 33l-43 -55zM139 524l34 34l-55 45l15 20l58 -47l49 49l18 -18 l-47 -47l45 -35l-15 -20l-48 37l-36 -36zM564 335l34 34l-56 44l16 20l58 -46l49 48l17 -17l-46 -47l45 -35l-15 -20l-48 37l-36 -36zM713 524l34 34l-56 45l15 19l59 -46l48 49l18 -18l-47 -46l46 -36l-16 -19l-48 37l-36 -36z" />
<glyph unicode=")" d="M602 401q-20 0 -35 -14.5t-15 -35.5q0 -20 15 -35t35 -15q21 0 36 15t15 35q0 21 -15 35.5t-36 14.5zM602 452q21 0 39.5 -8t32 -21.5t21.5 -32t8 -39.5t-8 -39t-21.5 -31.5t-32 -21.5t-39.5 -8q-42 0 -71 29t-29 71q0 21 8 39.5t21.5 32t31.5 21.5t39 8zM602 502 q-10 0 -17.5 7t-7.5 18v50q0 11 7.5 18t17.5 7q11 0 18.5 -7t7.5 -18v-50q0 -11 -7.5 -18t-18.5 -7zM727 450q-10 0 -18 8q-8 7 -8 17t8 18l36 36q7 7 17 7t18 -7q8 -8 8 -18t-8 -18l-35 -35q-8 -8 -18 -8zM778 326q-11 0 -18 7t-7 18t7 18t18 7h50q11 0 18 -7t7 -18t-7 -18 t-18 -7h-50zM762 166q-10 0 -18 8l-35 35q-8 8 -8 18t8 18q8 7 18 7t17 -7l36 -36q8 -8 8 -18t-8 -17q-8 -8 -18 -8zM602 100q-10 0 -17.5 7t-7.5 18v50q0 11 7.5 18.5t17.5 7.5q11 0 18.5 -7.5t7.5 -18.5v-50q0 -11 -7.5 -18t-18.5 -7zM443 166q-10 0 -18 8t-8 17.5t8 17.5 l35 36q8 8 18 8t18 -8t8 -18t-8 -18l-36 -35q-6 -8 -17 -8zM377 326q-11 0 -18.5 7t-7.5 18t7.5 18t18.5 7h50q11 0 18 -7t7 -18t-7 -18t-18 -7h-50zM478 450q-11 0 -17 8l-36 35q-8 8 -8 18t8 18q8 7 18 7t18 -7l35 -36q8 -8 8 -17.5t-8 -17.5t-18 -8z" />
<glyph unicode="*" d="M602 671l81 -232l245 -5l-195 -148l71 -235l-202 140l-202 -140l72 235l-196 148l245 5z" />
<glyph unicode="+" d="M778 627q21 0 39.5 -8t32 -21.5t21.5 -31.5t8 -39v-351q0 -21 -8 -39.5t-21.5 -32t-32 -21.5t-39.5 -8h-351q-21 0 -39.5 8t-32 21.5t-21.5 32t-8 39.5v351q0 21 8 39t21.5 31.5t32 21.5t39.5 8h351zM778 402h-125v125h-101v-125h-125v-101h125v-125h101v125h125v101z " />
<glyph unicode="," d="M622 273q-16 0 -27 11l-95 95q-11 11 -11 26.5t11 26.5t26.5 11t26.5 -11l63 -62l161 240q8 13 23.5 15.5t28.5 -5.5q13 -9 16 -24t-6 -29l-186 -277q-5 -7 -13 -12t-18 -5zM804 426v-186q0 -32 -22 -54t-54 -22h-251q-31 0 -53 22t-22 54v251q0 31 22 53t53 22h209 l-34 -50h-175q-10 0 -17.5 -7.5t-7.5 -17.5v-251q0 -11 7.5 -18.5t17.5 -7.5h251q11 0 18.5 7.5t7.5 18.5v111z" />
<glyph unicode="-" d="M602 703q73 0 137 -27.5t112 -75t75.5 -111.5t27.5 -137q0 -34 -6.5 -66t-17.5 -62l-13 -28q-21 -42 -52.5 -77.5t-70.5 -61.5q-7 -4 -13 -8t-13 -7q-38 -20 -79.5 -31t-86.5 -11t-86.5 11t-78.5 31q-7 3 -13 7t-13 8q-39 26 -70.5 61.5t-52.5 77.5l-13 28 q-11 30 -17.5 62t-6.5 66q0 73 27.5 137t75 111.5t111.5 75t137 27.5zM889 260q15 43 15 92q0 62 -23.5 117t-64.5 96t-96 64.5t-118 23.5q-62 0 -117 -23.5t-96 -64.5t-64.5 -96t-23.5 -117q0 -49 15 -92q29 16 61 16q26 0 48.5 -10t39.5 -27t27 -39.5t10 -48.5 q0 -41 -24 -73q57 -27 124 -27q68 0 125 27q-24 32 -24 73q0 26 10 48.5t27 39.5t39.5 27t48.5 10q32 0 61 -16zM455 89q22 27 22 62q0 42 -29 71t-71 29q-29 0 -53 -15q20 -47 53.5 -84.5t77.5 -62.5zM750 89q44 25 77.5 62.5t53.5 84.5q-24 15 -53 15q-42 0 -71 -29 t-29 -71q0 -35 22 -62zM607 376q20 -2 33 -15.5t13 -33.5t-14.5 -35.5t-36.5 -15.5q-20 0 -35 15t-15 36q0 8 3 14q-11 21 -20 44t-16 43q-8 23 -14 45q18 -14 36 -30q15 -14 32.5 -31.5t33.5 -35.5zM377 377q10 0 17.5 -7t7.5 -18t-7.5 -18t-17.5 -7q-11 0 -18.5 7t-7.5 18 q1 11 8 18t18 7zM602 553q-10 0 -17.5 7t-7.5 18q0 10 7.5 17.5t17.5 7.5q11 0 18.5 -7.5t7.5 -17.5q0 -11 -7.5 -18t-18.5 -7zM786 486q9 5 19 2.5t15 -11.5t2.5 -19t-11.5 -15t-19.5 -2.5t-15.5 11.5t-2 19t12 15zM419 486q9 -5 12 -15t-2 -19t-15.5 -11.5t-19.5 2.5 t-11.5 15t2.5 19t15 11.5t19 -2.5zM803 352q0 11 7 18t18 7t18 -7t7 -18t-7 -18t-18 -7t-18 7t-7 18zM511 560q5 -9 2.5 -19t-11.5 -15t-19 -2.5t-15 11.5t-2.5 19t11.5 15t19 2.5t15 -11.5zM728 569q9 -5 11.5 -15t-2.5 -19t-15 -11.5t-19 2.5t-11.5 15t2.5 19t15 11.5 t19 -2.5z" />
<glyph unicode="." d="M602 602q52 0 98 -19.5t80 -53.5t53.5 -80t19.5 -98t-19.5 -97.5t-53.5 -79.5t-80 -54t-98 -20t-97.5 20t-79.5 54t-54 79.5t-20 97.5t20 98t54 80t79.5 53.5t97.5 19.5zM628 152q34 4 63.5 19t52.5 38t38 53t19 64h-73v50h73q-4 34 -19 64t-38 53t-52.5 38t-63.5 19v-73 h-51v73q-34 -4 -63.5 -19t-52.5 -38t-38.5 -53t-19.5 -64h74v-50h-74q4 -34 19.5 -64t38.5 -53t52.5 -38t63.5 -19v74h51v-74z" />
<glyph unicode="/" d="M763 402l76 -126q-44 7 -88 12q-38 5 -81.5 9t-81.5 4t-66 7.5t-47 17.5q-22 11 -38 26v-302h-50v603h50v-50q16 -15 38 -26q19 -10 47 -17.5t66 -7.5t81.5 -4t81.5 -9q44 -5 88 -12z" />
<glyph unicode="0" d="M652 351q0 -21 -14.5 -35.5t-35.5 -14.5t-35.5 14.5t-14.5 35.5t14.5 35.5t35.5 14.5t35.5 -14.5t14.5 -35.5zM602 477q-26 0 -49 -10t-40 -27t-27 -40t-10 -49t10 -48.5t27 -39.5t40 -27t49 -10t48.5 10t39.5 27t27 39.5t10 48.5t-10 49t-27 40t-39.5 27t-48.5 10z M602 552q42 0 78.5 -16t63.5 -43t43 -63.5t16 -78.5t-16 -78.5t-43 -63.5t-63.5 -43t-78.5 -16t-78.5 16t-63.5 43t-43 63.5t-16 78.5t16 78.5t43 63.5t63.5 43t78.5 16zM602 627q-57 0 -107.5 -22t-88 -59.5t-59 -87.5t-21.5 -107t21.5 -107.5t59 -88t88 -59t107.5 -21.5 t107 21.5t87.5 59t59.5 88t22 107.5t-22 107t-59.5 87.5t-87.5 59.5t-107 22zM602 703q73 0 137 -27.5t111.5 -75.5t75 -112t27.5 -137t-27.5 -137t-75 -111.5t-111.5 -75t-137 -27.5t-137 27.5t-111.5 75t-75 111.5t-27.5 137t27.5 137t75 112t111.5 75.5t137 27.5z" />
<glyph unicode="1" d="M903 326v-251h-602v258l81 294h440zM352 326h138l50 -75h124l50 75h138l-69 251h-363z" />
<glyph unicode="2" d="M904 502q10 0 17.5 -7t7.5 -18v-352q0 -10 -7.5 -17.5t-17.5 -7.5h-101v402h101zM778 502v-402h-376v402h50v25q0 28 19 51.5t56 23.5h151q27 0 51 -19t24 -56v-25h25zM703 527q0 9 -4 14.5t-9 7.5q-5 3 -12 3h-151q-10 0 -15 -4t-7 -9q-3 -5 -3 -12v-25h201v25zM376 100 h-75q-11 0 -18 7.5t-7 17.5v352q0 11 7 18t18 7h75v-402z" />
<glyph unicode="3" d="M452 276h-51v100h51v-100zM928 527v-176h-100v51h-100v-51h-251v51h-101v-51h-100v176h176v25q0 28 19 51.5t56 23.5h150q28 0 52 -19t24 -56v-25h175zM502 527h201v25q0 9 -4 14.5t-9 7.5q-6 3 -13 3h-150q-10 0 -15 -4t-7 -9q-3 -5 -3 -12v-25zM828 326h75v-251h-602 v251h75v-75h101v75h251v-75h100v75zM803 276h-50v100h50v-100z" />
<glyph unicode="4" d="M587 398q-26 -7 -45.5 -26.5t-26.5 -45.5h-7q-8 32 -35 53.5t-62 21.5t-61.5 -21.5t-34.5 -53.5h-4q0 59 21.5 111.5t58.5 93t87.5 65.5t108.5 30v26q0 11 7 18t18 7t18 -7t7 -18v-26q58 -5 108.5 -30t87.5 -65.5t58.5 -93t21.5 -111.5h-4q-8 32 -34.5 53.5t-61.5 21.5 t-62 -21.5t-35 -53.5h-7q-7 26 -26.5 45.5t-45.5 26.5v-273q0 -15 -5.5 -32.5t-17.5 -32.5t-31 -25t-46 -10q-28 0 -47 10t-31 25t-17.5 32.5t-5.5 32.5q0 11 7 18t18 7t18 -7t7 -18q0 -4 1.5 -12.5t7 -16.5t15.5 -14.5t27 -6.5q18 0 28 6.5t15 15.5t6 17t1 11v273z" />
<glyph unicode="5" d="M983 214q14 -10 18.5 -25.5t-0.5 -31.5q-5 -15 -18 -24.5t-29 -9.5h-703q-17 0 -30 9.5t-18 24.5q-5 16 0 31.5t18 25.5l352 230q2 2 5 2q0 10 6 16q11 11 21.5 23t18.5 23t12.5 19.5t4.5 12.5t-1 11t-5 13t-12 10.5t-21 4.5q-14 0 -22 -5t-11.5 -12t-4.5 -13t-1 -9 q0 -11 -7 -18t-18 -7t-18 7t-7 18q0 13 5 29t15.5 29t27.5 22t41 9q25 0 42 -9t27.5 -22t15 -29t4.5 -29q0 -12 -5.5 -25t-14 -26t-18.5 -25.5t-18 -21.5zM954 173l-352 230l-351 -230h703z" />
<glyph unicode="6" d="M518 678q21 0 35.5 -14.5t14.5 -35.5v-276q0 -21 -14.5 -35.5t-35.5 -14.5h-276q-21 0 -35.5 14.5t-14.5 35.5v276q0 21 14.5 35.5t35.5 14.5h276zM305 352q15 0 26 11t11 26q0 16 -11 27t-26 11q-16 0 -27 -11t-11 -27q0 -15 11 -26t27 -11zM305 452q15 0 26 11t11 27 t-11 26.5t-26 10.5q-16 0 -27 -10.5t-11 -26.5t11 -27t27 -11zM305 553q15 0 26 10.5t11 26.5t-11 27t-26 11q-16 0 -27 -11t-11 -27t11 -26.5t27 -10.5zM455 352q16 0 27 11t11 26q0 16 -11 27t-27 11t-26.5 -11t-10.5 -27q0 -15 10.5 -26t26.5 -11zM455 452q16 0 27 11 t11 27t-11 26.5t-27 10.5t-26.5 -10.5t-10.5 -26.5t10.5 -27t26.5 -11zM455 553q16 0 27 10.5t11 26.5t-11 27t-27 11t-26.5 -11t-10.5 -27t10.5 -26.5t26.5 -10.5zM1030 267q15 -15 15 -35q0 -21 -15 -36l-195 -195q-15 -15 -35 -15q-21 0 -36 15l-195 195q-15 15 -15 36 q0 20 15 35l195 196q16 14 36 14q19 0 35 -14zM649 187q11 -11 26.5 -11t26.5 11t11 27t-11 27t-26.5 11t-26.5 -11t-11 -27t11 -27zM720 258q11 -11 26.5 -11t26.5 11t11 27t-11 27t-26.5 11t-26.5 -11t-11 -27t11 -27zM791 329q11 -11 26.5 -11t26.5 11t11 27t-11 27 t-26.5 11t-26.5 -11t-11 -27t11 -27zM755 81q11 -11 27 -11t27 11t11 26.5t-11 26.5t-27 11t-27 -11t-11 -26.5t11 -26.5zM826 152q11 -11 27 -11t27 11t11 26.5t-11 26.5t-27 11t-27 -11t-11 -26.5t11 -26.5zM897 223q11 -11 27 -11t27 11t11 26.5t-11 26.5t-27 11t-27 -11 t-11 -26.5t11 -26.5z" />
<glyph unicode="7" d="M314 502h577v-427q0 -10 -7 -17.5t-18 -7.5h-527q-11 0 -18 7.5t-7 17.5v427zM740 352h101v100h-101v-100zM740 226h101v100h-101v-100zM740 101h101v100h-101v-100zM615 352h100v100h-100v-100zM615 226h100v100h-100v-100zM615 101h100v100h-100v-100zM489 352h101v100 h-101v-100zM489 226h101v100h-101v-100zM489 101h101v100h-101v-100zM364 352h100v100h-100v-100zM364 226h100v100h-100v-100zM364 101h100v100h-100v-100zM766 603h100q11 0 18 -7.5t7 -18.5v-50h-577v50q0 11 7 18.5t18 7.5h100v75h50v-75h226v75h51v-75z" />
<glyph unicode="8" d="M602 525q27 41 62 59.5t72 18.5q32 0 62 -13t53.5 -37t37.5 -56.5t14 -71.5q0 -42 -16.5 -78t-42.5 -67.5t-57 -57.5t-59 -48q-30 -23 -50 -38t-33.5 -25.5t-23.5 -19t-19 -18.5q-9 10 -19 18t-23.5 19t-33.5 26t-49 38q-29 22 -60 48.5t-56.5 57.5t-42.5 66.5t-17 77.5 q0 39 14 72t37.5 57t54 37t62.5 13q36 0 71 -18.5t62 -59.5z" />
<glyph unicode="9" d="M936 392q17 -17 17 -41t-17 -41l-293 -294q-17 -17 -41 -17t-41 17l-294 294q-17 17 -17 41t17 41l294 293q17 17 41 17t41 -17zM758 532h-182q-17 0 -20 -10q-3 -13 7 -21l36 -27l-42 -27q-34 -22 -54.5 -57t-20.5 -77v-143h85v143q0 20 9 36.5t25 26.5l45 29l14 -43 q5 -14 18 -14q11 0 16 14z" />
<glyph unicode=":" d="M878 100h-100q-8 0 -13 3q-5 2 -8.5 7t-3.5 15v151q0 7 3 12q2 5 7 9t15 4h50v72q0 20 -6.5 53.5t-27.5 65.5q-11 16 -27 31.5t-39 27.5t-54 19t-72 7t-72 -7t-54 -19t-39 -27.5t-27 -31.5q-21 -32 -27.5 -65.5t-6.5 -53.5v-72h50q10 0 15.5 -4t7.5 -9q3 -5 3 -12v-151 q0 -10 -4 -15t-9 -7q-6 -3 -13 -3h-100v214q0 11 -0.5 29t-0.5 24q0 11 1.5 28t6 37.5t13 42.5t22.5 44t35 41.5t50 34.5t66 23.5t83 8.5t83 -8.5t66 -23.5t50 -34.5t35 -41.5t22.5 -44t13 -42.5t6 -37.5t1.5 -28q0 -6 -0.5 -24t-0.5 -29v-214z" />
<glyph unicode=";" d="M653 653q3 -26 15.5 -46t29 -36.5t35.5 -32t34.5 -33.5t26 -40t10.5 -52q0 -15 -3 -31q-2 -9 -6.5 -24.5t-11.5 -30t-15 -25t-16 -10.5q-2 0 -6 1t-4 6q0 2 2 5t6 12q5 14 9.5 32t4.5 37q0 14 -3 26q-10 33 -34 53t-49 38v-287q0 -35 -3 -55.5t-19 -40.5 q-25 -32 -64 -50.5t-77 -18.5q-24 0 -45.5 8t-36.5 27q-6 7 -11 19.5t-5 26.5q0 22 11.5 42t30 34t42 22.5t46.5 8.5q29 0 56 -12v427h50z" />
<glyph unicode="&#x3c;" d="M878 552q9 0 14.5 -4t7.5 -9q3 -5 3 -12v-377q0 -10 -4 -15t-9 -7q-5 -3 -12 -3h-552q-10 0 -15 3.5t-7 8.5q-3 5 -3 13v377q0 9 3.5 14.5t8.5 7.5q5 3 13 3h552zM464 477q-26 0 -44.5 -18.5t-18.5 -44.5t18.5 -44.5t44.5 -18.5t44.5 18.5t18.5 44.5t-18.5 44.5 t-44.5 18.5zM551 200q6 35 -1 63q-6 23 -25 43t-61 20q-43 0 -61.5 -20t-24.5 -43q-7 -28 -1 -63h174zM815 200q13 0 13 13t-13 13h-175q-13 0 -13 -13t13 -13h175zM815 251q13 0 13 12q0 13 -13 13h-175q-13 0 -13 -13q0 -12 13 -12h175zM815 301q13 0 13 12q0 13 -13 13 h-175q-13 0 -13 -13q0 -12 13 -12h175zM815 351q13 0 13 13q0 12 -13 12h-175q-13 0 -13 -12q0 -13 13 -13h175zM815 401q13 0 13 13q0 12 -13 12h-175q-13 0 -13 -12q0 -13 13 -13h175zM815 451q13 0 13 13t-13 13h-175q-13 0 -13 -13t13 -13h175z" />
<glyph unicode="=" d="M264 363q0 70 26.5 132t72.5 108t107.5 72.5t131.5 26.5t132 -26.5t108 -72.5t72.5 -108t26.5 -132q0 -69 -26.5 -130.5t-72 -107.5t-107.5 -73t-133 -27q-69 0 -130.5 26.5t-107.5 72.5t-73 107.5t-27 131.5zM288 351q2 -60 26.5 -114t65 -95t94.5 -66t116 -27v97 q-41 3 -77.5 19.5t-64 44t-44 64t-19.5 77.5h-97zM536 570q27 10 54 11v96q-62 -2 -115.5 -26.5t-94 -65t-65 -94.5t-27.5 -115h97q2 42 19.5 78.5t46.5 64.5q-12 15 -12 33q0 20 15 35t36 15q15 0 27.5 -9t18.5 -23zM409 351q3 -36 18 -68t39 -56t56 -39t68 -18v98 q-32 4 -55 27.5t-28 55.5h-98zM615 581q42 -3 77.5 -20t63.5 -44l68 68q-41 41 -94.5 65.5t-114.5 26.5v-96zM590 556q-14 -1 -26 -3.5t-24 -6.5q-2 -19 -16.5 -31.5t-33.5 -12.5q-10 0 -19 3q-27 -24 -43.5 -57.5t-18.5 -71.5h98q5 32 28 55t55 28v97zM615 49q62 3 115 27 t94 65l-68 69q-5 -5 -8.5 -8t-8.5 -7q1 -3 1 -9q0 -21 -14.5 -35.5t-35.5 -14.5q-23 0 -37 16q-18 -4 -38 -6v-97zM615 459q33 -5 55 -28l69 69q-24 24 -56 39t-68 17v-97zM615 170q14 0 26 3q-1 4 -1 13q0 21 15 35.5t35 14.5q12 0 22 -5.5t17 -13.5l10 9l-69 69 q-24 -24 -55 -27v-98zM531 351q4 -23 20 -39t39 -20v59h-59zM590 376v59q-23 -4 -39 -20t-20 -39h59zM654 415q-17 16 -39 20v-59zM615 292q22 3 38 19l-38 39v-58z" />
<glyph unicode="&#x3e;" d="M351 226h-25v326h552v-25h-527v-301zM301 276h-25v327h552v-26h-527v-301zM929 502v-326h-151v75h25v25h-100v-25h25v-75h-151v75h25v25h-100v-25h25v-75h-151v326h553zM552 326q13 0 13 13t-13 13h-113q-12 0 -12 -13t12 -13h113zM615 377q12 0 12 12q0 13 -12 13h-176 q-12 0 -12 -13q0 -12 12 -12h176zM615 427q5 0 8.5 3.5t3.5 8.5q0 13 -12 13h-176q-12 0 -12 -13q0 -5 3.5 -8.5t8.5 -3.5h176zM866 326q12 0 12 13t-12 13h-176q-12 0 -12 -13t12 -13h176zM866 377q12 0 12 12q0 13 -12 13h-176q-12 0 -12 -13q0 -12 12 -12h176zM866 427 q5 0 8.5 3.5t3.5 8.5q0 13 -12 13h-176q-12 0 -12 -13q0 -5 3.5 -8.5t8.5 -3.5h176z" />
<glyph unicode="?" d="M913 337q22 -26 28.5 -58t-4.5 -64q-8 -23 -22.5 -41t-33 -33.5t-39.5 -28t-42 -23.5q-54 -29 -115 -39.5t-122 -15.5q-62 -5 -124.5 -8.5t-124.5 5.5q-22 3 -42.5 13t-32.5 25t-13 34t17 40q16 20 38 27.5t46 12.5v520h25l326 -101l-326 -100v-315q5 1 11 2t12 3 q25 7 43 19q19 14 35 31.5t31 35.5t31 35.5t36 30.5q37 25 86 41t99.5 17.5t97 -13.5t79.5 -52zM418 99q0 15 -19 26.5t-47 13.5v-79q28 2 47 13t19 26zM270 99q0 -14 16 -24.5t41 -13.5v77q-25 -3 -41 -14t-16 -25z" />
<glyph unicode="@" d="M903 176h-602v326h150q0 31 12 58.5t32.5 48t48 32.5t58.5 12t58.5 -12t48 -32.5t32.5 -48t12 -58.5h150v-326zM351 50q-21 0 -35.5 15t-14.5 35v50h602v-50q0 -20 -14.5 -35t-35.5 -15h-502zM702 502q0 42 -29 71t-71 29t-71 -29t-29 -71h200z" />
<glyph unicode="A" d="M361 339q0 -50 19 -93t52 -75.5t76.5 -51t93.5 -18.5q74 0 137 43q10 7 22 7q17 0 28 -16q7 -10 7 -22q0 -20 -16 -31q-83 -57 -180 -57q-80 0 -147.5 37t-110.5 99q-26 38 -41 83t-15 95h-63l101 151l100 -151h-63zM843 339q0 49 -19 92.5t-52 76t-77 51t-93 18.5 q-74 0 -137 -43q-10 -7 -22 -7q-17 0 -28 16q-7 10 -7 22q0 20 16 31q83 57 180 57q80 0 147.5 -37t110.5 -99q26 -38 41 -83t15 -95h63l-101 -151l-100 151h63z" />
<glyph unicode="B" d="M819 582q9 -2 9 -12v-470q0 -13 -12 -13t-12 13v461l-315 91l-86 -65l315 -91v-470l-341 99v467q0 6 4 10l98 74q5 4 10 2z" />
<glyph unicode="C" d="M853 576v-50h-502v50l50 25l25 50h352l25 -50zM640 576q5 0 8.5 3.5t3.5 8.5q0 13 -12 13h-75q-13 0 -13 -13q0 -5 4 -8.5t9 -3.5h75zM803 501l-11 -101l-23 -201l-16 -150h-301l-17 150l-23 201l-11 101h402z" />
<glyph unicode="D" d="M753 627q31 0 58.5 -12t48 -32.5t32.5 -47.5t12 -58v-101q0 -31 -12 -58.5t-32.5 -47.5t-48 -32t-58.5 -12h-104l-172 -151v151h-25q-31 0 -58.5 12t-48 32t-32.5 47.5t-12 58.5v101q0 31 12 58t32.5 47.5t48 32.5t58.5 12h301zM452 376q21 0 35.5 15t14.5 35 q0 21 -14.5 36t-35.5 15t-35.5 -15t-14.5 -36q0 -20 14.5 -35t35.5 -15zM603 376q20 0 35 15t15 35q0 21 -15 36t-35 15q-21 0 -36 -15t-15 -36q0 -20 15 -35t36 -15zM753 376q21 0 35.5 15t14.5 35q0 21 -14.5 36t-35.5 15t-35.5 -15t-14.5 -36q0 -20 14.5 -35t35.5 -15z " />
<glyph unicode="E" d="M352 50h-25v276h-51v201h51v75h25v-75h50v-201h-50v-276zM527 50h-25v151h-50v201h50v200h25v-200h51v-201h-51v-151zM879 50h-25v251h-50v201h50v100h25v-100h50v-201h-50v-251zM703 50h-25v76h-50v200h50v276h25v-276h50v-200h-50v-76zM553 226v150h-76v-150h76z M377 351v151h-75v-151h75zM904 326v151h-75v-151h75zM728 151v150h-75v-150h75zM352 627h-25v26h25v-26zM527 627h-25v26h25v-26zM703 627h-25v26h25v-26zM879 627h-25v26h25v-26z" />
<glyph unicode="F" d="M854 451q20 0 35 -14.5t15 -35.5v-301h-603v301q0 21 15 35.5t36 14.5h75q0 31 14 58.5t38 48t56 32.5t68 12t68 -12t55.5 -32.5t37.5 -48t14 -58.5h76zM728 326h-75v75h-101v-75h-75v-101h75v-75h101v75h75v101zM728 451q0 21 -10 39.5t-27 32t-39.5 21.5t-48.5 8 t-49 -8t-40 -21.5t-27 -32t-10 -39.5h251z" />
<glyph unicode="G" d="M506 125l-111 167l-67 -68l-54 53l133 133l90 -135l75 151l137 102l87 -108l74 148l67 -33l-127 -254l-114 143l-64 -48zM953 602h-702v-527h702v527zM979 50h-753v577h753v-577z" />
<glyph unicode="H" d="M577 703v-226q0 -21 -14.5 -36t-35.5 -15v-351q0 -11 -7 -18t-18 -7h-50q-11 0 -18 7t-7 18v351q-21 0 -35.5 15t-14.5 36v226h50v-201h25v201h50v-201h25v201h50zM728 703q32 0 53.5 -22t21.5 -54v-552q0 -11 -7 -18t-18 -7h-50q-11 0 -18 7t-7 18v276h-50v276 q0 32 21.5 54t53.5 22z" />
<glyph unicode="I" d="M603 260q24 0 41 -17.5t17 -41.5t-17 -41.5t-41 -17.5q-25 0 -42 17.5t-17 41.5t17 41.5t42 17.5zM755 703q20 0 34 -14.5t14 -34.5v-605q0 -20 -14 -34.5t-34 -14.5h-305q-20 0 -34 14.5t-14 34.5v605q0 20 14 34.5t34 14.5h305zM603 50q31 0 58.5 12t47.5 32.5t32 48 t12 58.5t-12 58.5t-32 48t-47.5 32.5t-58.5 12q-32 0 -59.5 -12t-47.5 -32.5t-32 -48t-12 -58.5t12 -58.5t32 -48t47.5 -32.5t59.5 -12zM753 617q0 15 -10.5 25.5t-24.5 10.5h-231q-14 0 -24.5 -10.5t-10.5 -25.5v-180q0 -14 10.5 -24.5t24.5 -10.5h231q14 0 24.5 10.5 t10.5 24.5v180z" />
<glyph unicode="J" d="M777 30h-58l-42 150l-77 96l-123 -247l-48 8l109 292v170l-49 -41v-147h-47v171l109 118l119 -60l-10 -101l118 -84l-26 -37l-100 71l-5 -43l91 -133zM703 646q0 -23 -17 -39.5t-40 -16.5t-39.5 16.5t-16.5 39.5t16.5 40t39.5 17t40 -17t17 -40z" />
<glyph unicode="K" d="M853 401v-351h-502v351h75v76q3 48 22 87q8 16 21 32t31.5 28.5t43.5 20t58 7.5t58 -7.5t43.5 -20t31.5 -28.5t21 -32q19 -39 22 -87v-76h75zM627 207q11 7 18 18.5t7 25.5q0 20 -14.5 35t-35.5 15t-35.5 -15t-14.5 -35q0 -14 7 -25.5t18 -18.5v-82h50v82zM703 477 q0 7 -1.5 24t-11 33.5t-30 29.5t-58.5 13t-58 -12.5t-29.5 -29.5t-11 -33.5t-1.5 -24.5v-76h201v76z" />
<glyph unicode="L" d="M602 401q20 0 35 -14.5t15 -35.5t-15 -35.5t-35 -14.5q-21 0 -35.5 14.5t-14.5 35.5t14.5 35.5t35.5 14.5zM602 552q31 0 60.5 -9t56.5 -23t51 -32t45 -37q48 -44 88 -100q-40 -57 -88 -101q-21 -19 -45 -37t-51 -32t-56.5 -22.5t-60.5 -8.5q-32 0 -61.5 8.5t-56.5 22.5 t-51 32t-44 37q-48 44 -88 101q40 56 88 100q20 19 44 37t51 32t56.5 23t61.5 9zM602 225q26 0 48.5 10t39.5 27t27 40t10 49t-10 48.5t-27 39.5t-39.5 27t-48.5 10t-49 -10t-40 -27t-27 -39.5t-10 -48.5t10 -49t27 -40t40 -27t49 -10z" />
<glyph unicode="M" d="M472 443q-9 -9 -9 -21q0 -14 10 -29t22 -31q25 -31 52.5 -58t52.5 -47q28 -23 46.5 -35t32.5 -12q11 0 19 8l146 -146q-7 -7 -26 -14.5t-50 -7.5q-25 0 -57.5 7.5t-71 27t-83.5 53t-96 85.5q-48 49 -79 92t-48.5 79.5t-24.5 67t-7 54.5q0 30 7.5 49t13.5 27zM855 83 l-146 146l41 42q6 7 16 7t17 -7l114 -114q6 -7 6.5 -16t-6.5 -17zM484 454l-150 150l41 41q5 6 14.5 7t17.5 -7l118 -117q15 -17 0 -33z" />
<glyph unicode="N" d="M795 525q-12 -7 -17 -16.5t-5 -20.5t3 -22.5t6 -22.5q3 -10 11 -20t13 -20q8 -18 9.5 -37t-1.5 -38q-3 -17 -12 -32t-21 -28.5t-25.5 -25t-25.5 -21.5q-15 -11 -30 -15.5t-27 -9.5t-20.5 -14.5t-11.5 -30.5t-4 -29t-1 -11t-0.5 -4.5t-1.5 -8.5q0 -1 10 -2t22.5 -2 t25 -2.5t17.5 -3.5t12.5 -7.5t15 -11.5t12.5 -11t5 -7q-1 -2 -28.5 -3t-61.5 -1h-33.5t-30 0.5t-22.5 1.5t-10 2t-1 2q0 4 5.5 10.5t12 13.5t11.5 13t5 8q0 3 -0.5 14.5t-1.5 25t-3 25t-6 14.5q-8 5 -25.5 8.5t-36.5 10.5q-27 8 -60.5 6t-61.5 -2q-43 1 -86 -6.5t-87 -8.5 l-25 37l70 10q26 4 48.5 7.5t22.5 5.5q0 1 -13 7t-29.5 12.5t-31.5 12t-18 6.5q1 0 13.5 3t27 6.5t25 6.5t8.5 2q18 6 36.5 10t38 7.5t39 8t37.5 11.5q10 4 32.5 20.5t47 37t45.5 41.5t28 35q15 28 26 48t19 52l4 20t5 19t8.5 16.5t15.5 13.5q18 11 39.5 11t41.5 -5 q15 -3 33 -19t34 -35t28 -37t15 -26q1 -3 -14.5 -3h-34.5t-36 0.5t-19 -0.5q-1 -1 -2 -1t-1.5 -0.5t-1.5 -0.5z" />
<glyph unicode="O" d="M602 577q-47 0 -88 -17.5t-71.5 -48.5t-48.5 -72t-18 -88t18 -88t48.5 -72t71.5 -48.5t88 -17.5t88 17.5t72 48.5t48.5 72t17.5 88t-17.5 88t-48.5 72t-72 48.5t-88 17.5zM602 652q62 0 117 -23.5t96 -64.5t64.5 -96t23.5 -117t-23.5 -117t-64.5 -96t-96 -64.5 t-117 -23.5t-117 23.5t-96 64.5t-64.5 96t-23.5 117t23.5 117t64.5 96t96 64.5t117 23.5zM677 238q-15 0 -26 11l-75 75q-12 12 -12 27v151q0 15 11 26t27 11t27 -11t11 -26v-135l64 -65q11 -11 11 -26.5t-11 -26.5t-27 -11z" />
<glyph unicode="P" d="M426 552h452v-502h-452v502zM828 502h-351v-326h351v326zM401 151h-75v502h452v-76h-50v25h-352v-326h25v-125z" />
<glyph unicode="Q" d="M881 398q9 0 16 -7t7 -16v-47q0 -10 -7 -16.5t-16 -6.5h-28q-10 0 -18.5 -6.5t-11.5 -15.5l-16 -39q-5 -8 -3.5 -19t8.5 -18l20 -19q7 -7 7 -16.5t-7 -16.5l-33 -33q-7 -7 -16.5 -7t-16.5 7l-19 20q-7 7 -18 8.5t-19 -3.5l-39 -16q-9 -3 -15.5 -11.5t-6.5 -18.5v-28 q0 -9 -6.5 -16t-16.5 -7h-47q-9 0 -16 7t-7 16v28q0 10 -6.5 18.5t-15.5 11.5l-39 16q-8 5 -18.5 3.5t-17.5 -8.5l-20 -20q-7 -7 -16.5 -7t-16.5 7l-33 33q-7 7 -7 16.5t7 16.5l20 19q7 7 8.5 18t-3.5 19l-16 39q-2 9 -11 15.5t-19 6.5h-27q-10 0 -17 6.5t-7 16.5v47 q0 9 7 16t17 7h27q10 0 19 6.5t11 15.5l16 39q5 8 3.5 18.5t-8.5 17.5l-20 20q-7 7 -7 16.5t7 16.5l33 33q7 7 16.5 7t16.5 -7l20 -20q7 -7 17.5 -8.5t18.5 3.5l39 16q9 2 15.5 11t6.5 19v27q0 10 7 17t16 7h47q10 0 16.5 -7t6.5 -17v-27q0 -10 6.5 -19t15.5 -11l39 -16 q8 -5 19 -3.5t18 8.5l19 20q7 7 16.5 7t16.5 -7l33 -33q7 -7 7 -16.5t-7 -16.5l-20 -20q-7 -7 -8.5 -17.5t3.5 -18.5l16 -39q3 -9 11.5 -15.5t18.5 -6.5h28zM719 351q0 24 -9 45t-25 37t-37 25t-45 9t-45 -9t-37 -25t-25 -37t-9 -45t9 -45t25 -36.5t37 -24.5t45 -9t45 9 t37 24.5t25 36.5t9 45z" />
<glyph unicode="R" d="M301 553h183l93 93v7q0 11 7 18t18 7t18 -7t7 -18q0 -5 -1 -7l94 -93h183v-502h-602v502zM828 477h-452v-351h452v351zM595 628l-75 -75h164l-76 75h-13z" />
<glyph unicode="S" d="M921 135q23 -11 32 -35.5t-2 -47.5q-7 -14 -18.5 -23t-25.5 -12q15 -27 1 -56q-11 -23 -35.5 -32t-47.5 2t-32 35.5t2 47.5l6 11l-199 93l-198 -93l6 -11q11 -23 2 -47.5t-32 -35.5q-24 -11 -48.5 -2t-35.5 32q-12 29 2 56q-30 6 -44 35q-11 23 -2 47.5t32 35.5 q24 11 48.5 2t35.5 -32l4 -12l141 66l-141 66l-4 -12q-11 -23 -35.5 -32t-48.5 2q-23 11 -32 35.5t2 47.5q14 29 44 35q-7 13 -7.5 27.5t5.5 28.5q11 24 35.5 33t48.5 -2q23 -11 32 -35.5t-2 -48.5l-6 -11l198 -92l199 92l-6 11q-11 24 -2 48.5t32 35.5q23 10 47.5 1.5 t35.5 -32.5q7 -14 6.5 -28.5t-7.5 -27.5q14 -3 25.5 -12t18.5 -23q11 -23 2 -47.5t-32 -35.5q-24 -11 -48.5 -2t-35.5 32q-2 4 -4 12l-142 -66l142 -66q2 8 4 12q11 23 35.5 32t48.5 -2zM599 715q43 0 80 -14.5t65 -40t44 -59t16 -72.5q0 -38 -15 -70t-41 -58v-58 q0 -23 -16 -39.5t-39 -16.5q-25 0 -41 18q-6 -17 -20.5 -27t-32.5 -10t-32 10t-20 27q-16 -18 -41 -18q-23 0 -39.5 16.5t-16.5 39.5v58q-26 26 -41 58t-15 70q0 39 16 72.5t44 59t65.5 40t79.5 14.5zM687 492q26 0 44.5 18t18.5 44t-18.5 44.5t-44.5 18.5t-44.5 -18.5 t-18.5 -44.5t18.5 -44t44.5 -18zM512 492q26 0 44 18t18 44t-18 44.5t-44 18.5t-44.5 -18.5t-18.5 -44.5t18.5 -44t44.5 -18zM625 366q10 0 14 6.5t-1 16.5l-27 55q-5 9 -11.5 9t-11.5 -9l-28 -55q-5 -10 -0.5 -16.5t14.5 -6.5h51z" />
<glyph unicode="T" d="M853 502q21 0 36 -15t15 -35v-352q0 -21 -15 -35.5t-36 -14.5h-502q-20 0 -35 14.5t-15 35.5v352q0 20 15 35t35 15h214l-84 101q-1 0 -2 -0.5t-2 -0.5q-11 0 -18 7t-7 18t7 18t18 7t18 -7t7 -18q0 -4 -2 -8l98 -117h9l98 117q-2 4 -2 8q0 11 7 18t18 7t18 -7t7 -18 t-7 -18t-18 -7q-1 0 -2 0.5t-2 0.5l-84 -101h213zM753 401q0 21 -14.5 36t-35.5 15h-301q-21 0 -36 -15t-15 -36v-251q0 -20 15 -35t36 -15h301q21 0 35.5 15t14.5 35v251zM828 226q21 0 36 14.5t15 35.5t-15 35.5t-36 14.5q-20 0 -35 -14.5t-15 -35.5t15 -35.5t35 -14.5z M828 351q21 0 36 15t15 35q0 21 -15 36t-36 15q-20 0 -35 -15t-15 -36q0 -20 15 -35t35 -15z" />
<glyph unicode="U" d="M776 602q31 0 55 -21.5t39.5 -57t23.5 -80.5t8 -92t-8 -92.5t-23.5 -80.5t-39.5 -56.5t-55 -21.5h-347q-32 0 -56 21.5t-39.5 56.5t-23.5 80.5t-8 92.5t8 92t23.5 80.5t39.5 57t56 21.5h347zM527 452q0 11 -7 18t-18 7t-18 -7t-7 -18v-101q0 -11 7 -18t18 -7t18 7t7 18 v101zM653 201q0 20 -15 35t-36 15q-20 0 -35 -15t-15 -35v-25h101v25zM728 452q0 11 -7 18t-18 7t-18 -7t-7 -18v-101q0 -11 7 -18t18 -7t18 7t7 18v101z" />
<glyph unicode="V" d="M728 476q0 -45 -28.5 -79.5t-71.5 -43.5v-253h-50v253q-44 9 -72.5 43.5t-28.5 79.5q0 26 10 49t27 40t40 27t49 10t48.5 -10t39.5 -27t27 -40t10 -49zM528 514q0 -16 10.5 -27t26.5 -11t27 11t11 27t-11 27t-27 11t-26.5 -11t-10.5 -27z" />
<glyph unicode="W" d="M458 0l113 161l-105 66l129 97l74 -74l-54 -23l104 -66zM799 470q22 0 41 -8.5t33 -22.5t22.5 -33t8.5 -41t-8.5 -41t-22.5 -33t-33 -22t-41 -8h-101q-20 20 -37 36q-14 14 -27 26t-15 15q-12 12 -28 12q-12 0 -23 -8l-108 -81h-54q-22 0 -41 8t-33.5 22t-22.5 33t-8 41 v39q0 30 11.5 56t31 45.5t45.5 31t56 11.5q24 0 46 -8q15 49 56 80.5t95 31.5q33 0 61.5 -12.5t49.5 -33.5t33.5 -49.5t12.5 -60.5q0 -7 -0.5 -13.5t0.5 -12.5z" />
<glyph unicode="X" d="M578 276q0 -11 -7 -18t-18 -7t-18 7t-7 18t7 18t18 7t18 -7t7 -18zM653 201q0 -11 -7 -18t-18 -7t-18 7t-7 18q0 10 7 17.5t18 7.5t18 -7.5t7 -17.5zM678 376q0 -20 -14.5 -35t-35.5 -15t-35.5 15t-14.5 35q0 21 14.5 36t35.5 15t35.5 -15t14.5 -36zM753 652h-25v-502 q0 -26 -10 -48.5t-27 -39.5t-39.5 -27t-48.5 -10t-49 10t-40 27t-27 39.5t-10 48.5v502h-25v26h301v-26zM703 652h-201v-502q0 -21 8 -39t21.5 -31.5t32 -21.5t39.5 -8q42 0 71 29t29 71v502z" />
<glyph unicode="Y" d="M602 703q21 0 39 -8t31.5 -21.5t21.5 -32t8 -39.5v-340q24 -21 37.5 -50.5t13.5 -61.5q0 -31 -12 -58.5t-32.5 -47.5t-48 -32t-58.5 -12t-58.5 12t-48 32t-32.5 47.5t-12 58.5q0 32 13.5 61.5t37.5 50.5v340q0 21 8 39.5t21.5 32t31.5 21.5t39 8zM577 326h-25v-89 q-23 -13 -36.5 -35.5t-13.5 -51.5q0 -42 29 -71t71 -29q21 0 39 8t31.5 21.5t21.5 31.5t8 39q0 29 -13.5 51.5t-36.5 35.5v365q0 21 -14.5 35.5t-35.5 14.5t-35.5 -14.5t-14.5 -35.5v-25h50v-25h-50v-50h25v-25h-25v-50h50v-26h-50v-50h25v-25z" />
<glyph unicode="Z" d="M784 100v63h-126q-18 0 -29 13l-67 83l48 59l66 -80h108v63l151 -101zM433 514q18 0 29 -14l67 -82l-48 -60l-66 81h-108q-16 0 -27 11t-11 26q0 16 11 27t27 11h126zM784 376v63h-108l-214 -263q-11 -13 -29 -13h-126q-16 0 -27 10.5t-11 26.5t11 27t27 11h108l214 262 q11 14 29 14h126v63l151 -101z" />
<glyph unicode="[" d="M351 678h502v-628h-502v628zM427 126h-51v-51h51v51zM427 201h-51v-50h51v50zM427 276h-51v-50h51v50zM427 352h-51v-51h51v51zM427 427h-51v-50h51v50zM427 502h-51v-50h51v50zM427 577h-51v-50h51v50zM427 653h-51v-50h51v50zM753 352h-301v-277h301v277zM753 653h-301 v-276h301v276zM828 126h-50v-51h50v51zM828 201h-50v-50h50v50zM828 276h-50v-50h50v50zM828 352h-50v-51h50v51zM828 427h-50v-50h50v50zM828 502h-50v-50h50v50zM828 577h-50v-50h50v50zM828 653h-50v-50h50v50z" />
<glyph unicode="\" d="M936 364q20 -11 31.5 -31t11.5 -44q0 -37 -25.5 -62.5t-62.5 -25.5q-36 0 -62 25.5t-26 62.5q0 4 2 12h-404q0 -3 0.5 -6t0.5 -6q0 -37 -26 -62.5t-62 -25.5q-37 0 -62.5 25.5t-25.5 62.5q0 24 12 44t31 31q-19 11 -31 31t-12 44q0 37 25.5 62.5t62.5 25.5q36 0 62 -25.5 t26 -62.5q0 -3 -0.5 -6t-0.5 -6h404q-2 8 -2 12q0 37 26 62.5t62 25.5q37 0 62.5 -25.5t25.5 -62.5q0 -24 -11.5 -44t-31.5 -31z" />
<glyph unicode="]" d="M366 672h472v-622h-472v622zM743 251h-276v-176h276v176zM743 652h-276v-176h276v176zM743 451h-276v-175h276v175zM441 251h-50v-76h50v76zM441 552h-50v-76h50v76zM818 251h-50v-76h50v76zM818 552h-50v-76h50v76zM441 150h-50v-75h50v75zM441 351h-50v-75h50v75z M818 150h-50v-75h50v75zM818 351h-50v-75h50v75zM818 652h-50v-75h50v75zM441 652h-50v-75h50v75zM441 451h-50v-75h50v75zM818 451h-50v-75h50v75z" />
<glyph unicode="^" d="M756 191q-6 2 -8.5 6.5t-2.5 8.5q6 36 -3 65t-28.5 42.5t-48 6.5t-63.5 -43q-21 -22 -21 -44q0 -20 15 -35.5t33 -27.5t32 -21t12 -16q-35 -22 -69.5 -42t-69.5 -41q-23 38 -47 76.5t-48 76.5l-18 -9q-5 -15 -14 -30t-22 -27t-27.5 -19t-29.5 -7q-20 0 -38.5 15.5 t-31.5 53.5q-7 21 -7 38q0 24 13 36.5t31.5 18.5t40.5 7.5t40 3.5l11 9q-21 40 -43.5 80t-43.5 81l146 86q10 -10 12.5 -23.5t3 -28.5t1 -29.5t5.5 -26t17.5 -18.5t36.5 -7q35 0 60.5 24t32.5 52q3 15 2.5 29.5t-7.5 25.5q-8 11 -18 14t-23 7q-13 3 -22 7t-12 12q-3 6 -3 10 q0 5 6 8q22 12 44 25t41 24.5t33.5 20t21.5 12.5l21 -42t25.5 -47t27.5 -41t28 -23l12 10q1 17 8.5 31t19 24t25.5 15.5t29 5.5q25 0 46.5 -17t29.5 -55q9 -43 -3.5 -60t-34.5 -23t-48 -8t-44 -15q20 -39 40.5 -80.5t40.5 -80.5q-14 -8 -32 -20l-37.5 -25t-39 -23t-36.5 -13 z" />
<glyph unicode="_" d="M803 653q20 0 35 -15t15 -36v-502q0 -20 -15 -35t-35 -15h-402q-21 0 -35.5 15t-14.5 35v502q0 21 14.5 36t35.5 15h402zM752 326h-100v176h-100v-176h-101l151 -150z" />
<glyph unicode="`" d="M857 326q9 -9 12.5 -17.5t3.5 -16.5t-2.5 -14.5t-5.5 -11.5q-4 -6 -8 -11l-142 -142q-9 -9 -17.5 -12.5t-16.5 -3.5t-14.5 2.5t-11.5 5.5q-6 4 -11 8l-302 302v213h213l138 -138zM449 471q19 0 34.5 14.5t15.5 35.5q0 20 -14.5 35t-35.5 15t-35.5 -14.5t-14.5 -35.5 t15 -35.5t35 -14.5z" />
<glyph unicode="a" d="M853 363q16 0 27 -11t11 -26q0 -60 -23 -112.5t-62 -91.5t-91.5 -62t-112.5 -23t-112.5 23t-91.5 62t-61.5 91.5t-22.5 112.5t22.5 112.5t61.5 91.5t91.5 61.5t112.5 22.5v63l151 -100l-151 -101v63q-44 0 -82.5 -17t-67.5 -46t-46 -67.5t-17 -82.5t17 -83t46 -68 t67.5 -46t82.5 -17t83 17t68 46t46 68t17 83q0 15 10.5 26t26.5 11z" />
<glyph unicode="b" d="M728 0l-125 126l-126 -126v703h251v-703z" />
<glyph unicode="c" d="M752 452q31 0 59 -12t48 -32.5t32 -48t12 -58.5t-12 -58.5t-32 -48t-48 -32.5t-59 -12q0 -42 -29 -71t-71 -29h-251q-42 0 -71 29t-29 71v302h451zM752 226q32 0 54 21.5t22 53.5q0 31 -22 53t-54 22v-150zM552 489q-22 0 -42.5 8.5t-20.5 29.5q0 17 21 24t52 13 q11 2 25 5.5t22 6.5q-11 5 -32.5 8t-39.5 6q-50 7 -74 13.5t-24 23.5q0 11 13 20t33 16t43.5 12t44.5 8.5t36 5t18 1.5q12 0 12 -13q0 -5 -3.5 -8.5t-8.5 -3.5q-14 0 -37.5 -3.5t-48 -9t-45 -11.5t-29.5 -12q11 -5 33 -8.5t41 -6.5q50 -7 74 -13.5t24 -23.5t-21 -24t-51 -13 q-13 -3 -30 -6.5t-23 -8.5q2 -5 14.5 -8t23.5 -3q12 0 12 -12q0 -13 -12 -13z" />
<glyph unicode="d" d="M753 627q31 0 58.5 -12t48 -32.5t32.5 -47.5t12 -58v-101q0 -31 -12 -58.5t-32.5 -47.5t-48 -32t-58.5 -12h-104l-172 -151v151h-25q-31 0 -58.5 12t-48 32t-32.5 47.5t-12 58.5v101q0 31 12 58t32.5 47.5t48 32.5t58.5 12h301z" />
<glyph unicode="e" d="M301 602q0 21 14.5 35.5t35.5 14.5h502q21 0 35.5 -14.5t14.5 -35.5v-502q0 -20 -14.5 -35t-35.5 -15h-502q-21 0 -35.5 15t-14.5 35v502zM502 376v25h-151v-25h50v-226h50v226h51zM853 326v25h-151v-25h51v-176h50v176h50zM577 326h50v226h-50v-226zM677 251v25h-150 v-25h50v-101h50v101h50zM753 401h50v151h-50v-151zM401 452h50v100h-50v-100z" />
<glyph unicode="f" d="M575 143l-89 -89q-15 -15 -33.5 -22t-37.5 -7t-37.5 7t-33.5 22l-35 35q-15 15 -22 33.5t-7 37.5t7 37.5t22 33.5l89 89zM806 373l-213 -213l-178 178l213 213zM593 480q-8 -8 -8 -18t8 -18t18 -8t17 8q8 8 8 18t-8 18q-7 8 -17 8t-18 -8zM522 338q8 8 8 17.5t-8 17.5 t-18 8t-18 -8q-7 -8 -7 -17.5t7 -17.5q8 -8 18 -8t18 8zM575 284q8 8 8 18t-8 18t-18 8t-17 -8q-8 -8 -8 -18t8 -18q7 -7 17 -7t18 7zM575 391q8 8 8 18t-8 17q-8 8 -18 8t-17 -8q-8 -7 -8 -17t8 -18q7 -8 17 -8t18 8zM628 231q8 8 8 18t-8 18q-7 8 -17 8t-18 -8t-8 -18 t8 -18t18 -8t17 8zM628 338q8 8 8 17.5t-8 17.5q-7 8 -17 8t-18 -8t-8 -17.5t8 -17.5t18 -8t17 8zM682 285q7 7 7 17t-7 18q-8 8 -18 8t-18 -8t-8 -18t8 -17q8 -8 18 -8t18 8zM682 391q7 8 7 18t-7 17q-8 8 -18 8t-18 -8q-8 -7 -8 -17t8 -18t18 -8t18 8zM699 338q8 -8 18 -8 t18 8t8 17.5t-8 17.5t-18 8t-18 -8q-7 -8 -7 -17.5t7 -17.5zM895 604q15 -15 22 -33.5t7 -37.5t-7 -37.5t-22 -33.5l-71 -71l-178 177l71 71q15 15 33.5 22.5t37.5 7.5t37.5 -7.5t33.5 -22.5z" />
<glyph unicode="g" d="M414 201q0 -32 -22 -54t-53 -22q-32 0 -54 22t-22 54q0 31 22 53t54 22q12 0 25 -5l87 114q-12 18 -12 42q0 31 22 53t53 22q32 0 54 -22t22 -53q0 -16 -7 -33l75 -75q16 7 32 7q5 0 8.5 -0.5t8.5 -1.5l99 156q-16 21 -16 47q0 32 22 53.5t54 21.5q31 0 53 -21.5 t22 -53.5t-22 -53.5t-53 -21.5h-9t-9 2l-99 -157q16 -21 16 -46q0 -32 -21.5 -53.5t-53.5 -21.5t-53.5 21.5t-21.5 53.5q0 18 7 32l-75 75q-14 -7 -33 -7q-14 0 -23 4l-88 -116q11 -17 11 -38z" />
<glyph unicode="h" d="M878 351h-50v-276h-150v226h-151v-226h-151v276h-50l276 276l101 -100v75h100v-176z" />
<glyph unicode="i" d="M740 728q26 0 44.5 -18.5t18.5 -44.5v-627q0 -26 -18.5 -44.5t-44.5 -18.5h-276q-26 0 -44.5 18.5t-18.5 44.5v627q0 26 18.5 44.5t44.5 18.5h276zM564 678q-12 0 -12 -13q0 -12 12 -12h75q13 0 13 12q0 13 -13 13h-75zM602 0q16 0 26.5 11t10.5 27t-10.5 26.5 t-26.5 10.5t-27 -10.5t-11 -26.5t11 -27t27 -11zM777 603h-351v-502h351v502z" />
<glyph unicode="j" d="M507 300v70l-74 -75q-12 -12 -25.5 -11.5t-22 8.5t-9 21t11.5 26l122 123q8 8 16 12t22 4h109q13 0 21.5 -4t16.5 -12l123 -125q12 -12 10.5 -24.5t-10 -21t-21.5 -9t-24 11.5l-75 77v-71h-191zM603 493q-19 0 -35.5 7t-29 19.5t-19.5 29.5t-7 36t7 36t19.5 29.5t29 19.5 t35.5 7t35.5 -7t28.5 -19.5t19 -29.5t7 -36t-7 -36t-19 -29.5t-28.5 -19.5t-35.5 -7zM697 264l62 -63q15 -15 12.5 -37.5t-16.5 -36.5l-86 -91q-12 -12 -25.5 -11t-21.5 9.5t-9 21.5t11 25l54 56l-53 53zM507 264l72 -74l-53 -53l54 -56q12 -12 11 -25t-9 -21.5t-21.5 -9.5 t-25.5 11l-86 91q-14 14 -16 36.5t12 37.5zM521 276q-5 5 -3.5 8.5t8.5 3.5h152q7 0 8.5 -4t-3.5 -9l-67 -68q-5 -5 -12 -5.5t-12 4.5z" />
<glyph unicode="k" d="M703 225v-75h50v-50h-75q-10 0 -15 3.5t-7 8.5q-3 5 -3 13h-50v-63q0 -16 -11 -27t-27 -11t-27 11t-11 27v396q-32 12 -53.5 40.5t-21.5 65.5q0 24 9 44.5t24.5 35.5t36 24t43.5 9t43.5 -9t36 -24t24.5 -35.5t9 -44.5q0 -37 -21.5 -65.5t-53.5 -40.5v-208h50q0 7 3 12 q2 5 7 9t15 4h75v-50h-50zM565 602q-16 0 -27 -11t-11 -27t11 -27t27 -11t27 11t11 27t-11 27t-27 11z" />
<glyph unicode="l" d="M889 136q15 -15 15 -36t-15 -35q-15 -15 -35 -15q-21 0 -36 15l-145 145l-3 4q-29 -18 -61.5 -28t-68.5 -10q-50 0 -93.5 18.5t-75.5 51t-51 75.5t-19 93q0 49 19 92.5t51 76t75.5 51t93.5 18.5q49 0 92.5 -18.5t76 -51t51 -76t18.5 -92.5q0 -36 -10 -68.5t-28 -61.5 l5 -4zM540 251q34 0 63.5 13t51.5 35t35 51.5t13 63.5t-13 63.5t-35 51.5t-51.5 35t-63.5 13t-63.5 -13t-51.5 -35t-35 -51.5t-13 -63.5t13 -63.5t35 -51.5t51.5 -35t63.5 -13z" />
<glyph unicode="m" d="M602 342l-280 234q1 1 4 1h552q3 0 5 -1zM903 200q0 -4 -1 -6l-199 199l199 166q1 -2 1 -7v-352zM501 393l-199 -199q-1 2 -1 6v352q0 5 1 7zM884 177q-4 -2 -6 -2h-552q-2 0 -6 2l201 200l73 -61q3 -3 8 -3t8 3l73 61z" />
<glyph unicode="n" d="M422 603q-12 5 -7 16q2 5 6.5 7t9.5 0q51 -20 74 -48.5t31 -54.5q32 16 66 16t66 -16q8 26 31 54.5t74 48.5q12 5 16 -7q5 -10 -6 -16q-49 -20 -68.5 -46t-24.5 -48q25 -18 46 -50q-23 -15 -57.5 -30t-76.5 -15t-76.5 15t-57.5 30q22 32 46 50q-5 22 -24.5 48t-67.5 46z M853 314q11 0 18 -7.5t7 -18.5q0 -10 -7 -17.5t-18 -7.5h-79q-2 -8 -4 -17t-4 -17l75 -45q9 -5 11.5 -15t-2.5 -19q-8 -12 -22 -12q-7 0 -13 3l-66 40q-24 -51 -62.5 -84.5t-84.5 -33.5t-84.5 33.5t-61.5 84.5l-67 -40q-6 -3 -13 -3q-6 0 -12 3t-9 9q-5 9 -3 19t11 15l75 45 q-2 8 -3.5 17t-3.5 17h-80q-11 0 -18 7.5t-7 17.5q0 11 7 18.5t18 7.5h75q0 10 1 19.5t2 19.5l-66 39q-9 6 -11 16t3 19t15 11.5t19 -3.5l52 -31q6 18 15 33q25 -17 62 -32.5t84 -15.5t84.5 15.5t62.5 32.5q4 -8 7.5 -16t6.5 -17l52 31q9 6 19 3.5t16 -11.5q5 -9 2.5 -19 t-11.5 -16l-66 -39q3 -20 3 -39h75zM539 276q16 0 27 11t11 27q0 15 -11 26t-27 11q-15 0 -26 -11t-11 -26q0 -16 11 -27t26 -11zM640 150q26 0 44.5 18.5t18.5 44.5t-18.5 44.5t-44.5 18.5t-44.5 -18.5t-18.5 -44.5t18.5 -44.5t44.5 -18.5z" />
<glyph unicode="o" d="M620 344q11 -7 18 -18t7 -25t-7 -25.5t-18 -18.5v-32h-50v32q-11 7 -18 18.5t-7 25.5t7 25t18 18v107h50v-107zM815 467q26 -35 41 -77t15 -89q0 -57 -22 -107.5t-59.5 -88t-87.5 -59.5t-107 -22t-107.5 22t-88 59.5t-59 88t-21.5 107.5q0 54 19.5 102t53 84.5t79.5 59.5 t99 28v52h-25v50h100v-50h-25v-52q40 -3 75.5 -17.5t65.5 -37.5l55 55l54 -53zM595 75q46 0 87.5 17.5t72 48.5t48.5 72t18 88q0 46 -18 87t-48.5 72t-72 48.5t-87.5 17.5q-47 0 -88 -17.5t-72 -48.5t-48.5 -72t-17.5 -87q0 -47 17.5 -88t48.5 -72t72 -48.5t88 -17.5z" />
<glyph unicode="p" d="M853 527q21 0 35.5 -14.5t14.5 -35.5v-301q0 -21 -14.5 -35.5t-35.5 -14.5h-502q-20 0 -35 14.5t-15 35.5v301q0 21 15 35.5t35 14.5h50q0 21 15 35.5t36 14.5h50q21 0 35.5 -14.5t14.5 -35.5h301zM627 201q26 0 49 10t40 27t27 40t10 49t-10 48.5t-27 39.5t-40 27 t-49 10t-48.5 -10t-39.5 -27t-27 -39.5t-10 -48.5t10 -49t27 -40t39.5 -27t48.5 -10zM311 477v-301h40q21 0 35.5 14.5t14.5 35.5v201q0 21 -14.5 35.5t-35.5 14.5h-40zM703 326q0 -31 -22 -53t-54 -22q-31 0 -53 22t-22 53q0 32 22 54t53 22q32 0 54 -22t22 -54zM816 377 q15 0 26 11t11 26q0 16 -11 27t-26 11q-16 0 -27 -11t-11 -27q0 -15 11 -26t27 -11z" />
<glyph unicode="q" d="M736 410q-5 0 -11 -4.5t-11.5 -11t-10 -13.5t-6.5 -11q-5 -8 -2.5 -18t10.5 -18l12 -12q8 -8 8 -18t-8 -18l-24 -24q-8 -7 -18 -7t-17 7l-13 13q-3 4 -10.5 5t-16 0t-16.5 -2.5t-12 -2.5q-9 -3 -15 -12t-6 -20v-17q0 -11 -7 -18t-18 -7h-33q-11 0 -18 7t-7 18v17 q0 5 -5 11t-11.5 12t-13 10.5t-10.5 6.5q-8 4 -18.5 2t-17.5 -10l-13 -13q-7 -7 -17 -7t-18 7l-24 24q-8 8 -8 18t8 18l13 12q3 4 4 11.5t0.5 16t-2 16l-2.5 12.5q-3 8 -12 14t-20 6h-17q-11 0 -18 7t-7 18v34q0 10 7 17.5t18 7.5h17q5 0 11 4.5t12 11t10.5 13t6.5 10.5 q4 8 1.5 18.5t-9.5 18.5l-13 12q-7 8 -7 18t7 17l24 24q8 8 18 8t17 -8l13 -12q4 -4 11.5 -5t15.5 -0.5t16 2t12 3.5q9 2 15 11t6 20v18q0 10 7 17.5t18 7.5h33q11 0 18 -7.5t7 -17.5v-18q0 -5 5 -11t11.5 -11.5t13 -10t10.5 -6.5q8 -5 18.5 -2.5t17.5 10.5l13 12q7 8 17 8 t18 -8l24 -24q8 -7 8 -17t-8 -18l-12 -12q-4 -4 -5 -11.5t-0.5 -16t2 -16.5t2.5 -12q3 -8 12 -14t20 -6h17q11 0 18.5 -7.5t7.5 -18.5v-33q0 -11 -7.5 -18t-18.5 -7h-17zM908 105q-5 0 -11.5 -8t-8.5 -12t-1 -9.5t5 -8.5l6 -7q9 -8 0 -17l-11 -12q-9 -9 -18 0l-6 6 q-4 4 -14 3t-14 -3q-10 -3 -10 -16v-8q0 -13 -13 -13h-17q-12 0 -12 13v8q0 5 -8 11.5t-12 8.5q-9 5 -18 -4l-6 -6q-9 -9 -18 0l-12 12q-9 9 0 17l6 7q4 3 3 13t-3 14q-4 11 -16 11h-8q-13 0 -13 12v17q0 12 13 12h8q5 0 11.5 8t8.5 12t1 9.5t-5 8.5l-6 7q-9 8 0 17l12 12 q9 9 18 0l6 -6q4 -4 13.5 -3t14.5 3q10 4 10 16v8q0 13 12 13h17q13 0 13 -13v-8q0 -5 7.5 -11.5t11.5 -8.5q10 -5 19 4l6 6q9 9 18 0l11 -12q9 -9 0 -17l-6 -7q-4 -3 -3 -13t3 -14q4 -11 16 -11h9q5 0 8.5 -3.5t3.5 -8.5v-17q0 -5 -3.5 -8.5t-8.5 -3.5h-9zM528 343 q22 0 42 8.5t34.5 23.5t23 34.5t8.5 42.5q0 22 -8.5 42t-23 35t-34.5 23.5t-42 8.5q-23 0 -43 -8.5t-34.5 -23.5t-23 -35t-8.5 -42q0 -23 8.5 -42.5t23 -34.5t34.5 -23.5t43 -8.5zM846 125q0 18 -12.5 30t-29.5 12t-29.5 -12t-12.5 -30q0 -17 12.5 -29t29.5 -12t29.5 12 t12.5 29z" />
<glyph unicode="r" d="M552 414q0 -26 -18.5 -44.5t-44.5 -18.5t-44.5 18.5t-18.5 44.5t18.5 44.5t44.5 18.5t44.5 -18.5t18.5 -44.5zM878 577q9 0 14.5 -4t7.5 -9q3 -5 3 -12v-401q0 -10 -4 -15t-9 -7q-5 -3 -12 -3h-552q-10 0 -15 3.5t-7 8.5q-3 5 -3 13v401q0 9 3.5 14.5t8.5 7.5q5 3 13 3 h552zM853 527h-502v-351h502v351zM376 201q14 20 31 37q14 14 32 26t38 12q19 0 30 -4t20 -8.5t20 -8.5t30 -4t34 15.5t31.5 34.5t36.5 34.5t49 15.5q28 0 47 -23.5t31 -51.5q14 -33 22 -75h-452z" />
<glyph unicode="s" d="M602 653q57 0 107.5 -20t88 -54t59 -79.5t21.5 -97.5q0 -51 -20 -94.5t-55 -77.5v-79q0 -32 -22 -54t-53 -22q-17 0 -31 7t-24 18q-8 -22 -27 -36t-44 -14q-24 0 -43 14t-27 36q-11 -11 -25 -18t-30 -7q-32 0 -54 22t-22 54v79q-35 34 -55 77.5t-20 94.5q0 52 21.5 97.5 t59 79.5t88 54t107.5 20zM489 326q37 0 62.5 26t25.5 62q0 37 -25.5 62.5t-62.5 25.5q-36 0 -62 -25.5t-26 -62.5q0 -18 7 -34t19 -28t28 -19t34 -7zM630 223q11 0 15 6.5t-1 15.5l-31 62q-5 9 -11 9t-11 -9l-31 -62q-5 -9 -1 -15.5t15 -6.5h56zM715 326q37 0 62.5 26 t25.5 62q0 37 -25.5 62.5t-62.5 25.5q-36 0 -62 -25.5t-26 -62.5q0 -18 7 -34t19 -28t28 -19t34 -7z" />
<glyph unicode="t" d="M853 602q21 0 35.5 -14.5t14.5 -35.5v-276q0 -21 -14.5 -35.5t-35.5 -14.5h-201v-101h26q7 0 12 -3q5 -2 9 -7.5t4 -14.5h-201q0 7 3 12q2 5 7 9t15 4h25v101h-201q-20 0 -35 14.5t-15 35.5v276q0 21 15 35.5t35 14.5h502zM853 552h-502v-276h502v276z" />
<glyph unicode="u" d="M932 427q9 0 15.5 -6.5t6.5 -15.5v-107q0 -9 -6.5 -15.5t-15.5 -6.5h-29v-75q0 -11 -7 -18t-18 -7h-552q-11 0 -18 7t-7 18v301q0 11 7 18t18 7h552q11 0 18 -7t7 -18v-75h29zM853 477h-502v-251h502v251z" />
<glyph unicode="v" d="M853 414q0 -16 -11 -27t-26 -11q-16 0 -27 11t-11 27t11 27t27 11q15 0 26 -11t11 -27zM778 464q0 -16 -11 -27t-27 -11q-15 0 -26 11t-11 27t11 27t26 11q16 0 27 -11t11 -27zM430 341q20 0 38 7.5t31.5 20.5t21 30.5t7.5 37.5t-7.5 37.5t-21 30.5t-31.5 20.5t-38 7.5 t-38 -7.5t-31.5 -20.5t-21 -30.5t-7.5 -37.5t7.5 -37.5t21 -30.5t31.5 -20.5t38 -7.5zM775 341q41 0 69 28t28 68t-28 68t-69 28q-20 0 -38 -7.5t-31.5 -20.5t-21 -30.5t-7.5 -37.5t7.5 -37.5t21 -30.5t31.5 -20.5t38 -7.5zM492 411h-37v-37h-51v37h-37v50h37v38h51v-38h37 v-50zM592 276q-13 0 -30 -1t-35.5 -6t-37.5 -16t-36 -32q-19 -23 -37.5 -45t-38.5 -39q-17 -16 -33 -26.5t-39 -10.5q-14 0 -28 3t-25 15t-18.5 34.5t-7.5 61.5q0 25 4 60t11 72.5t16.5 74.5t19.5 67q8 23 19 43.5t28 36.5t40.5 25t55.5 9q40 0 59 -4t32 -8.5t26.5 -8.5 t42.5 -4h44q30 0 43.5 4t26.5 8.5t32 8.5t59 4q32 0 55.5 -9t40.5 -25t28 -36.5t19 -43.5q10 -30 19.5 -67t16.5 -74.5t11 -72.5t4 -60q0 -39 -7.5 -61.5t-18.5 -34.5t-25.5 -15t-27.5 -3q-23 0 -39 10.5t-33 26.5q-20 17 -38.5 39t-37.5 45q-17 21 -36 32t-37.5 16t-35.5 6 t-30 1h-21z" />
<glyph unicode="w" d="M548 627h188l-60 -144h85l-151 -217h89l-151 -241v167h-88l82 215h-82z" />
<glyph unicode="x" d="M677 452q49 -72 88 -135q16 -27 32 -55t28.5 -53.5t20 -47.5t7.5 -36q0 -29 -12 -44t-26 -22q-17 -8 -38 -9h-351q-21 1 -38 9q-14 7 -25.5 22t-11.5 44q0 14 7.5 36t19.5 47.5t27.5 53.5t32.5 55q39 63 88 135v175h-25v25h201v-25h-25v-175zM777 75q4 0 13 1.5t17 6.5 t14.5 15t6.5 27q0 18 -17.5 56t-43.5 83t-56 91.5t-55 81.5l-4 7v183h-101v-183l-4 -7q-25 -35 -54.5 -81.5t-55.5 -91.5t-43.5 -83t-17.5 -56t6.5 -28t15.5 -15t17 -6t11 -1h351zM526 176q0 -11 -7 -18.5t-18 -7.5t-18 7.5t-7 18.5q0 10 7 17.5t18 7.5t18 -7.5t7 -17.5z M627 276q0 -21 -15 -35.5t-35 -14.5q-21 0 -36 14.5t-15 35.5t15 35.5t36 14.5q20 0 35 -14.5t15 -35.5zM727 176q0 -21 -14.5 -36t-35.5 -15t-35.5 15t-14.5 36q0 20 14.5 35t35.5 15t35.5 -15t14.5 -35z" />
<glyph unicode="y" d="M376 627h75v-50h75v-25h-75v-50h50v-25h-50v-50h75v-26h-75v-50h50v-25h-50v-50h75v-25h-75v-50h50v-25h-50v-51h301v502h76v-25h-26v-477q0 -20 -14.5 -35t-35.5 -15h-301q-21 0 -35.5 15t-14.5 35v477h-25v25z" />
<glyph unicode="z" d="M866 213v63h-51q-24 0 -40.5 8.5t-27 21.5t-15 28.5t-4.5 28.5v101q-1 9 -4.5 10.5t-8.5 1.5t-8.5 -1.5t-4.5 -11.5v-225q0 -13 -4.5 -28.5t-15 -28.5t-27 -22t-40.5 -9t-41 9t-27.5 22t-15 28.5t-4.5 28.5v226q-1 9 -4.5 10.5t-8.5 1.5q-4 0 -8 -1.5t-4 -11.5v-225 q0 -13 -5 -28.5t-15.5 -28.5t-27 -22t-40.5 -9t-41 9t-27.5 22t-15 28.5t-4.5 28.5v125q0 5 -1.5 8.5t-11.5 4.5h-50q-16 0 -26.5 11t-10.5 27q0 15 10.5 26t26.5 11h50q13 0 28.5 -4.5t29 -15t22 -27.5t8.5 -41v-125q1 -10 4.5 -11.5t8.5 -1.5q4 0 8 1.5t4 12.5v225 q0 13 4.5 28.5t15 28.5t27.5 22t41 9t41 -9t27.5 -22t15 -28.5t4.5 -28.5v-226q1 -10 4.5 -11.5t8.5 -1.5q4 0 8 1.5t4 12.5v225q0 13 4.5 28.5t15 28.5t27.5 22t41 9t40.5 -9t27 -22t15.5 -28.5t5 -28.5v-101q0 -9 4 -10.5t8 -1.5h51v63l150 -101z" />
<glyph unicode="{" d="M903 49h-602v49q2 8 4.5 15.5t5.5 14.5q13 31 42 42l51 20q18 8 35.5 15t34.5 15q17 7 33.5 14.5t28.5 12.5v44q-3 20 -9.5 32.5t-11.5 27.5q-6 17 -10.5 37t-4.5 46q0 32 6.5 60.5t24.5 50.5q15 18 35 25t39 7t39 -7t35 -25q18 -22 24.5 -50.5t6.5 -60.5q0 -26 -4.5 -46 t-10.5 -37q-5 -15 -11.5 -27.5t-9.5 -32.5v-46q12 -5 28.5 -12.5t33.5 -14.5q17 -8 34.5 -15t35.5 -15l45 -18q29 -11 42 -42q3 -7 5.5 -14.5t4.5 -15.5v-49z" />
<glyph unicode="|" d="M852 181q7 -18 6 -35.5t-8 -32.5t-17 -27t-19 -19q-19 -15 -43 -16.5t-49.5 2.5t-50 10.5t-45.5 8.5q-6 1 -11.5 1h-11.5h-11t-12 -1q-20 -2 -44.5 -8.5t-50 -10.5t-49.5 -2.5t-43 16.5q-9 7 -19.5 19t-17 27t-8 32.5t6.5 35.5q6 15 19 25.5t28 19t30 16.5t26 18 q22 22 33.5 49t23.5 51t31 41.5t57 19.5q38 -2 57 -19.5t31.5 -41.5t24 -51t33.5 -49q10 -10 25 -18t30 -16.5t28.5 -19t19.5 -25.5zM900 401q-5 -18 -14.5 -33t-22 -24.5t-26.5 -13.5t-28 0q-28 8 -40.5 39t-2.5 68q5 19 14.5 34t22 24.5t26.5 13.5t28 0q28 -8 41 -39 t2 -69zM441 437q10 -37 -2.5 -68t-41.5 -39q-14 -4 -28 0t-26 13.5t-22 24.5t-15 33q-10 38 2.5 69t40.5 39q29 8 55 -13t37 -59zM578 579q10 -37 -2.5 -68.5t-40.5 -39.5q-28 -7 -54.5 14t-36.5 58q-5 18 -4.5 36t6.5 32.5t16.5 25t24.5 13.5q28 7 54.5 -13.5t36.5 -57.5z M763 543q-5 -18 -14.5 -33t-22 -25t-26.5 -14t-28 0q-28 8 -40.5 39.5t-2.5 68.5t36.5 57.5t54.5 13.5t40.5 -38.5t2.5 -68.5z" />
<glyph unicode="}" d="M903 50h-602v49q2 8 4.5 15.5t5.5 14.5q13 31 42 42l51 20q18 8 35.5 15t34.5 15q17 7 33.5 14.5t28.5 12.5v44q-3 20 -9.5 32.5t-11.5 27.5q-6 17 -10.5 37t-4.5 46q0 32 6.5 60.5t24.5 50.5q15 18 35 25t39 7t39 -7t35 -25q18 -22 24.5 -50.5t6.5 -60.5q0 -26 -4.5 -46 t-10.5 -37q-5 -15 -11.5 -27.5t-9.5 -32.5v-46q12 -5 28.5 -12.5t33.5 -14.5q17 -8 34.5 -15t35.5 -15l45 -18q29 -11 42 -42q3 -7 5.5 -14.5t4.5 -15.5v-49zM451 266q-8 -4 -13.5 -6.5t-13.5 -5.5l-5 -2l-34 -14q-8 -3 -15 -6l-14 -6l-18 -7q-14 -5 -27 -13.5t-22 -19.5 q-14 -17 -23 -35q-3 -6 -5.5 -12.5t-4.5 -12.5h-55v79q1 10 6 19q8 17 25 23l29 12q11 5 21.5 9t20.5 9l35 15v25q-2 11 -5.5 18.5t-6.5 16.5q-4 11 -6.5 22t-2.5 28q0 19 4 35.5t15 28.5q9 11 20.5 15t21.5 4q11 0 23 -4t21 -15q11 -12 14.5 -28.5t3.5 -35.5 q0 -17 -2.5 -28t-6.5 -22q-3 -9 -6.5 -16.5t-5.5 -18.5v-27l36 -16l7 -3zM743 271l7 3q10 5 21 9t18 7v27q-2 11 -5.5 18.5t-6.5 16.5q-4 11 -6.5 22t-2.5 28q0 19 3.5 35.5t14.5 28.5q9 11 21 15t23 4q10 0 21.5 -4t20.5 -15q11 -12 15 -28.5t4 -35.5q0 -17 -2.5 -28 t-6.5 -22q-3 -9 -6.5 -16.5t-5.5 -18.5v-25q7 -3 15 -7t17 -8q10 -5 20.5 -9t21.5 -9l29 -12q16 -6 25 -23q5 -9 6 -19v-79h-56q-3 13 -9 26q-10 18 -23 34q-20 22 -48 33l-18 7l-28 11l-2 1q-8 3 -15 6t-15 7l-10 4l-24 10z" />
<glyph unicode="~" d="M832 326q9 -9 12 -17.5t3 -16.5t-2.5 -14.5t-5.5 -11.5q-4 -6 -7 -11l-142 -142q-16 -16 -35 -16q-8 0 -14.5 2.5t-11.5 5.5l-10 8l-302 302v213h213zM882 401q9 -9 12 -17.5t3 -16.5t-2.5 -14.5t-5.5 -11.5q-4 -6 -7 -11l-14 -14q-6 15 -19 28q-7 6 -23.5 22.5l-39 39 t-48.5 49t-53 53.5q-62 62 -137 138l-8 7h-173v50h213zM423 471q20 0 35 14t15 36q0 21 -15 35.5t-35 14.5q-21 0 -35.5 -15t-14.5 -35q0 -21 15 -35.5t35 -14.5z" />
<glyph unicode="&#xa1;" d="M729 566q31 0 53 -22t22 -53v-251q0 -32 -22 -54t-53 -22h-252q-31 0 -53 22t-22 54v251q0 31 22 53t53 22h252zM477 516q-10 0 -17.5 -7.5t-7.5 -17.5v-251q0 -11 7.5 -18.5t17.5 -7.5h252q10 0 17.5 7.5t7.5 18.5v251q0 10 -7.5 17.5t-17.5 7.5h-252zM658 363l52 -52 q11 -11 11 -26.5t-11 -26.5t-26.5 -11t-26.5 11l-53 52l-52 -52q-11 -11 -26.5 -11t-26.5 11t-11 26.5t11 26.5l52 52l-52 52q-11 11 -11 26.5t11 26.5t26.5 11t26.5 -11l52 -52l53 52q11 11 26.5 11t26.5 -11t11 -26.5t-11 -26.5z" />
<glyph unicode="&#xa2;" d="M828 416q33 -15 54 -46t21 -69q0 -26 -10 -49t-27 -40t-39.5 -27t-48.5 -10h-151v76h50l-75 100l-75 -100h50v-76h-151q-26 0 -48.5 10t-39.5 27t-27 40t-10 49q0 39 21 70t55 45q0 2 -0.5 5t-0.5 5q0 32 22 54t54 22q19 0 34 -8.5t26 -22.5q17 47 58.5 76.5t94.5 29.5 q33 0 62.5 -12.5t52 -34.5t35.5 -51.5t13 -62.5z" />
<glyph unicode="&#xa3;" d="M729 566q31 0 53 -22t22 -53v-251q0 -32 -22 -54t-53 -22h-252q-31 0 -53 22t-22 54v251q0 31 22 53t53 22h252zM477 516q-10 0 -17.5 -7.5t-7.5 -17.5v-251q0 -11 7.5 -18.5t17.5 -7.5h252q10 0 17.5 7.5t7.5 18.5v251q0 10 -7.5 17.5t-17.5 7.5h-252zM658 363l52 -52 q11 -11 11 -26.5t-11 -26.5t-26.5 -11t-26.5 11l-53 52l-52 -52q-11 -11 -26.5 -11t-26.5 11t-11 26.5t11 26.5l52 52l-52 52q-11 11 -11 26.5t11 26.5t26.5 11t26.5 -11l52 -52l53 52q11 11 26.5 11t26.5 -11t11 -26.5t-11 -26.5z" />
<glyph unicode="&#xa4;" d="M729 566q31 0 53 -22t22 -53v-251q0 -32 -22 -54t-53 -22h-252q-31 0 -53 22t-22 54v251q0 31 22 53t53 22h252zM477 516q-10 0 -17.5 -7.5t-7.5 -17.5v-251q0 -11 7.5 -18.5t17.5 -7.5h252q10 0 17.5 7.5t7.5 18.5v251q0 10 -7.5 17.5t-17.5 7.5h-252zM658 363l52 -52 q11 -11 11 -26.5t-11 -26.5t-26.5 -11t-26.5 11l-53 52l-52 -52q-11 -11 -26.5 -11t-26.5 11t-11 26.5t11 26.5l52 52l-52 52q-11 11 -11 26.5t11 26.5t26.5 11t26.5 -11l52 -52l53 52q11 11 26.5 11t26.5 -11t11 -26.5t-11 -26.5z" />
<glyph unicode="&#xa5;" d="M878 308q21 0 35.5 -14.5t14.5 -35.5t-14.5 -35.5t-35.5 -14.5q-14 0 -25 7t-18 18h-123l-28 55l-58 -212l-49 4l-37 411l-69 -258h-195v50h156l96 358l49 -4l37 -414l56 205l73 -145h92q6 11 17.5 18t25.5 7z" />
<glyph unicode="&#xa6;" d="M729 566q31 0 53 -22t22 -53v-251q0 -32 -22 -54t-53 -22h-252q-31 0 -53 22t-22 54v251q0 31 22 53t53 22h252zM477 516q-10 0 -17.5 -7.5t-7.5 -17.5v-251q0 -11 7.5 -18.5t17.5 -7.5h252q10 0 17.5 7.5t7.5 18.5v251q0 10 -7.5 17.5t-17.5 7.5h-252zM658 363l52 -52 q11 -11 11 -26.5t-11 -26.5t-26.5 -11t-26.5 11l-53 52l-52 -52q-11 -11 -26.5 -11t-26.5 11t-11 26.5t11 26.5l52 52l-52 52q-11 11 -11 26.5t11 26.5t26.5 11t26.5 -11l52 -52l53 52q11 11 26.5 11t26.5 -11t11 -26.5t-11 -26.5z" />
<glyph unicode="&#xa7;" d="M729 566q31 0 53 -22t22 -53v-251q0 -32 -22 -54t-53 -22h-252q-31 0 -53 22t-22 54v251q0 31 22 53t53 22h252zM477 516q-10 0 -17.5 -7.5t-7.5 -17.5v-251q0 -11 7.5 -18.5t17.5 -7.5h252q10 0 17.5 7.5t7.5 18.5v251q0 10 -7.5 17.5t-17.5 7.5h-252zM658 363l52 -52 q11 -11 11 -26.5t-11 -26.5t-26.5 -11t-26.5 11l-53 52l-52 -52q-11 -11 -26.5 -11t-26.5 11t-11 26.5t11 26.5l52 52l-52 52q-11 11 -11 26.5t11 26.5t26.5 11t26.5 -11l52 -52l53 52q11 11 26.5 11t26.5 -11t11 -26.5t-11 -26.5z" />
<glyph unicode="&#xa8;" d="M577 126h50v-25h-50v25zM527 226h151v-25h-151v25zM527 176h151v-25h-151v25zM778 452q0 -53 -27.5 -95t-72.5 -63v-43h-151v43q-45 21 -72.5 63t-27.5 95q0 36 13.5 68t37.5 56t56 38t68 14t68 -14t56 -38t38 -56t14 -68z" />
<glyph unicode="&#xa9;" d="M954 602h-703v-527h703v527zM979 50h-753v577h753v-577zM401 100h-100v226h100v-226zM527 100h-100v376h100v-376zM652 100h-100v301h100v-301zM778 100h-100v376h100v-376zM903 100h-100v452h100v-452z" />
<glyph unicode="&#xaa;" d="M602 728v-101h201l75 -63l-75 -62h-452v125h201v101h50zM326 339l75 62h151v76h50v-76h251v-125h-452zM552 251h50v-226h-50v226z" />
<glyph unicode="&#xab;" d="M729 566q31 0 53 -22t22 -53v-251q0 -32 -22 -54t-53 -22h-252q-31 0 -53 22t-22 54v251q0 31 22 53t53 22h252zM477 516q-10 0 -17.5 -7.5t-7.5 -17.5v-251q0 -11 7.5 -18.5t17.5 -7.5h252q10 0 17.5 7.5t7.5 18.5v251q0 10 -7.5 17.5t-17.5 7.5h-252zM658 363l52 -52 q11 -11 11 -26.5t-11 -26.5t-26.5 -11t-26.5 11l-53 52l-52 -52q-11 -11 -26.5 -11t-26.5 11t-11 26.5t11 26.5l52 52l-52 52q-11 11 -11 26.5t11 26.5t26.5 11t26.5 -11l52 -52l53 52q11 11 26.5 11t26.5 -11t11 -26.5t-11 -26.5z" />
<glyph unicode="&#xac;" d="M803 477q0 -28 -7 -53t-20 -48l-174 -351l-174 351q-13 23 -20 48t-7 53q0 42 16 78.5t43 63.5t63.5 42.5t78.5 15.5t78.5 -15.5t63.5 -42.5t43 -63.5t16 -78.5zM602 376q21 0 39 8t31.5 21.5t21.5 32t8 39.5q0 42 -29 71t-71 29q-21 0 -39.5 -8t-32 -21.5t-21.5 -31.5 t-8 -39t8 -39.5t21.5 -32t32 -21.5t39.5 -8z" />
<glyph unicode="&#xad;" d="M729 566q31 0 53 -22t22 -53v-251q0 -32 -22 -54t-53 -22h-252q-31 0 -53 22t-22 54v251q0 31 22 53t53 22h252zM477 516q-10 0 -17.5 -7.5t-7.5 -17.5v-251q0 -11 7.5 -18.5t17.5 -7.5h252q10 0 17.5 7.5t7.5 18.5v251q0 10 -7.5 17.5t-17.5 7.5h-252zM658 363l52 -52 q11 -11 11 -26.5t-11 -26.5t-26.5 -11t-26.5 11l-53 52l-52 -52q-11 -11 -26.5 -11t-26.5 11t-11 26.5t11 26.5l52 52l-52 52q-11 11 -11 26.5t11 26.5t26.5 11t26.5 -11l52 -52l53 52q11 11 26.5 11t26.5 -11t11 -26.5t-11 -26.5z" />
<glyph unicode="&#xae;" d="M665 602q52 0 95.5 -18.5t75 -49t49.5 -70t18 -82.5q0 -41 -18 -82t-56 -76q-25 -23 -56 -45.5t-63.5 -40t-64.5 -28t-59 -10.5q-22 0 -40 8t-30 26t-16.5 47t0.5 71q3 25 -6.5 39t-24.5 16t-31 -7.5t-25 -30.5q-11 -26 -30 -48.5t-38 -22.5q-12 0 -22 13t-17 44 q-3 13 -4 25.5t-1 25.5q0 63 31 117.5t82 94t116.5 62t134.5 22.5zM412 349q20 5 31.5 20.5t6.5 32.5t-22 25t-37 3t-31.5 -20.5t-6.5 -32.5t22 -25t37 -3zM503 432q22 -11 43.5 -4.5t30.5 26.5q8 19 -0.5 39.5t-30.5 30.5q-22 11 -43 4.5t-30 -26.5q-9 -19 -0.5 -39.5 t30.5 -30.5zM659 189q24 10 35 30.5t3 40.5q-8 19 -31 25t-47 -4q-24 -11 -35 -31.5t-3 -39.5q8 -20 31 -26t47 5zM667 491q16 0 27.5 11t11.5 27q0 17 -11.5 28t-27.5 11t-27.5 -11t-11.5 -28q0 -16 11.5 -27t27.5 -11zM815 421q16 6 22 24t-2 38t-24.5 29t-32.5 2 q-17 -6 -23 -24t2 -38t24.5 -29t33.5 -2z" />
<glyph unicode="&#xb0;" d="M729 566q31 0 53 -22t22 -53v-251q0 -32 -22 -54t-53 -22h-252q-31 0 -53 22t-22 54v251q0 31 22 53t53 22h252zM477 516q-10 0 -17.5 -7.5t-7.5 -17.5v-251q0 -11 7.5 -18.5t17.5 -7.5h252q10 0 17.5 7.5t7.5 18.5v251q0 10 -7.5 17.5t-17.5 7.5h-252zM658 363l52 -52 q11 -11 11 -26.5t-11 -26.5t-26.5 -11t-26.5 11l-53 52l-52 -52q-11 -11 -26.5 -11t-26.5 11t-11 26.5t11 26.5l52 52l-52 52q-11 11 -11 26.5t11 26.5t26.5 11t26.5 -11l52 -52l53 52q11 11 26.5 11t26.5 -11t11 -26.5t-11 -26.5z" />
<glyph unicode="&#xb1;" d="M729 566q31 0 53 -22t22 -53v-251q0 -32 -22 -54t-53 -22h-252q-31 0 -53 22t-22 54v251q0 31 22 53t53 22h252zM477 516q-10 0 -17.5 -7.5t-7.5 -17.5v-251q0 -11 7.5 -18.5t17.5 -7.5h252q10 0 17.5 7.5t7.5 18.5v251q0 10 -7.5 17.5t-17.5 7.5h-252zM658 363l52 -52 q11 -11 11 -26.5t-11 -26.5t-26.5 -11t-26.5 11l-53 52l-52 -52q-11 -11 -26.5 -11t-26.5 11t-11 26.5t11 26.5l52 52l-52 52q-11 11 -11 26.5t11 26.5t26.5 11t26.5 -11l52 -52l53 52q11 11 26.5 11t26.5 -11t11 -26.5t-11 -26.5z" />
<glyph unicode="&#xb2;" d="M729 566q31 0 53 -22t22 -53v-251q0 -32 -22 -54t-53 -22h-252q-31 0 -53 22t-22 54v251q0 31 22 53t53 22h252zM477 516q-10 0 -17.5 -7.5t-7.5 -17.5v-251q0 -11 7.5 -18.5t17.5 -7.5h252q10 0 17.5 7.5t7.5 18.5v251q0 10 -7.5 17.5t-17.5 7.5h-252zM658 363l52 -52 q11 -11 11 -26.5t-11 -26.5t-26.5 -11t-26.5 11l-53 52l-52 -52q-11 -11 -26.5 -11t-26.5 11t-11 26.5t11 26.5l52 52l-52 52q-11 11 -11 26.5t11 26.5t26.5 11t26.5 -11l52 -52l53 52q11 11 26.5 11t26.5 -11t11 -26.5t-11 -26.5z" />
<glyph unicode="&#xb3;" d="M729 566q31 0 53 -22t22 -53v-251q0 -32 -22 -54t-53 -22h-252q-31 0 -53 22t-22 54v251q0 31 22 53t53 22h252zM477 516q-10 0 -17.5 -7.5t-7.5 -17.5v-251q0 -11 7.5 -18.5t17.5 -7.5h252q10 0 17.5 7.5t7.5 18.5v251q0 10 -7.5 17.5t-17.5 7.5h-252zM658 363l52 -52 q11 -11 11 -26.5t-11 -26.5t-26.5 -11t-26.5 11l-53 52l-52 -52q-11 -11 -26.5 -11t-26.5 11t-11 26.5t11 26.5l52 52l-52 52q-11 11 -11 26.5t11 26.5t26.5 11t26.5 -11l52 -52l53 52q11 11 26.5 11t26.5 -11t11 -26.5t-11 -26.5z" />
<glyph unicode="&#xb4;" d="M891 602v-527h-126v251h51v276h75zM389 326h50v-251h-125v527h75v-276zM539 326h51v-251h-126v251h50v276h25v-276zM690 326h50v-251h-125v251h50v276h25v-276zM790 351h-75v276h75v-276zM565 351v276h75v-276h-75zM489 351h-75v276h75v-276z" />
<glyph unicode="&#xb6;" d="M729 566q31 0 53 -22t22 -53v-251q0 -32 -22 -54t-53 -22h-252q-31 0 -53 22t-22 54v251q0 31 22 53t53 22h252zM477 516q-10 0 -17.5 -7.5t-7.5 -17.5v-251q0 -11 7.5 -18.5t17.5 -7.5h252q10 0 17.5 7.5t7.5 18.5v251q0 10 -7.5 17.5t-17.5 7.5h-252zM658 363l52 -52 q11 -11 11 -26.5t-11 -26.5t-26.5 -11t-26.5 11l-53 52l-52 -52q-11 -11 -26.5 -11t-26.5 11t-11 26.5t11 26.5l52 52l-52 52q-11 11 -11 26.5t11 26.5t26.5 11t26.5 -11l52 -52l53 52q11 11 26.5 11t26.5 -11t11 -26.5t-11 -26.5z" />
<glyph unicode="&#xb7;" d="M728 101v451l201 76v-452zM695 290q3 -4 8 -2v-187l-201 75v452l201 -76v-237l-4 3q-10 6 -17 -3q-4 -5 -3 -10t4 -7zM276 101v451l201 76v-360q-3 1 -6 0l-13 -6q-11 -4 -6 -16q3 -8 11 -8q3 0 5 1l4 2l5 2v-67zM796 400q5 -3 10.5 -2t7.5 6l22 37l35 -15q11 -5 16 7 q4 11 -7 16l-32 13l19 31q8 11 -4 18q-11 6 -18 -5l-20 -34l-46 20q-5 2 -9.5 0t-6.5 -6q-5 -12 7 -17l42 -18l-20 -34q-5 -11 4 -17zM388 283q13 -4 16 9l4 10q2 5 0.5 10t-6.5 7q-10 5 -16 -6l-6 -14q-3 -12 8 -16zM646 315q11 0 13 10q2 13 -11 15q-5 1 -11.5 1t-10.5 -3 q-5 -3 -5 -10q0 -12 12 -12q3 0 7 -0.5t6 -0.5zM843 380q7 -11 18 -4q10 7 4 17l-7 11q-3 4 -8 5t-10 -2q-10 -7 -3 -18zM358 434q2 -13 15 -11q3 1 5.5 1.5t5.5 0.5q5 0 9 4.5t3 9.5q-2 13 -13 11q-2 0 -5.5 -0.5t-8.5 -1.5q-13 -2 -11 -14zM872 326q5 -11 16 -7q10 4 8 14 q-1 4 -3 8l-4 8q-5 8 -15 5q-6 -2 -7.5 -7t0.5 -9zM395 240q8 -6 17 -9t14 6q3 5 1 10t-7 7q-4 2 -5.5 3t-5.5 3q-2 1 -6.5 2t-9.5 -6q-6 -10 2 -16zM745 253q5 -4 10 -3t8 5q4 5 3 10t-6 8l-10 7q-10 7 -17 -2q-4 -5 -3 -10.5t5 -7.5zM508 273q5 -11 19 -4l9 5q5 3 6 8 t-1 10q-6 11 -17 4l-11 -6q-5 -2 -6 -7t1 -10zM423 404q5 -11 16 -7q12 5 7 17q-2 5 -8 13q-7 11 -18 2q-4 -3 -4.5 -8t2.5 -9zM417 339q4 -2 7 -2q7 0 10 6l7 12q5 11 -5 17q-5 2 -10 0.5t-7 -6.5l-6 -10q-7 -10 4 -17zM843 221q3 -9 12 -9q6 0 12.5 3t9.5 8q4 7 0 13 q-7 11 -17 4q-3 -2 -9 -4q-5 -2 -7.5 -6t-0.5 -9zM298 414q2 -4 5.5 -6.5t10.5 -0.5l12 4q12 3 8 16q-4 11 -16 7l-13 -4q-11 -5 -7 -16zM894 257q10 0 12 10q1 4 1 7.5v6.5v1q0 5 -3.5 8.5t-8.5 3.5q-13 0 -13 -12v-1q0 -5 -1 -10t2.5 -9.5t10.5 -4.5zM563 304q5 -12 19 -5 l9 4q11 5 6 17q-6 11 -16 6l-12 -6q-12 -5 -6 -16zM785 228q2 -2 9 -6.5t12 -4.5q9 0 12 9q4 11 -7 15q-4 1 -10 5q-11 6 -17 -5q-4 -7 1 -13z" />
<glyph unicode="&#xb8;" d="M729 566q31 0 53 -22t22 -53v-251q0 -32 -22 -54t-53 -22h-252q-31 0 -53 22t-22 54v251q0 31 22 53t53 22h252zM477 516q-10 0 -17.5 -7.5t-7.5 -17.5v-251q0 -11 7.5 -18.5t17.5 -7.5h252q10 0 17.5 7.5t7.5 18.5v251q0 10 -7.5 17.5t-17.5 7.5h-252zM658 363l52 -52 q11 -11 11 -26.5t-11 -26.5t-26.5 -11t-26.5 11l-53 52l-52 -52q-11 -11 -26.5 -11t-26.5 11t-11 26.5t11 26.5l52 52l-52 52q-11 11 -11 26.5t11 26.5t26.5 11t26.5 -11l52 -52l53 52q11 11 26.5 11t26.5 -11t11 -26.5t-11 -26.5z" />
<glyph unicode="&#xb9;" d="M729 566q31 0 53 -22t22 -53v-251q0 -32 -22 -54t-53 -22h-252q-31 0 -53 22t-22 54v251q0 31 22 53t53 22h252zM477 516q-10 0 -17.5 -7.5t-7.5 -17.5v-251q0 -11 7.5 -18.5t17.5 -7.5h252q10 0 17.5 7.5t7.5 18.5v251q0 10 -7.5 17.5t-17.5 7.5h-252zM658 363l52 -52 q11 -11 11 -26.5t-11 -26.5t-26.5 -11t-26.5 11l-53 52l-52 -52q-11 -11 -26.5 -11t-26.5 11t-11 26.5t11 26.5l52 52l-52 52q-11 11 -11 26.5t11 26.5t26.5 11t26.5 -11l52 -52l53 52q11 11 26.5 11t26.5 -11t11 -26.5t-11 -26.5z" />
<glyph unicode="&#xba;" d="M602 602q52 0 97.5 -19.5t79.5 -53.5t54 -80t20 -98t-20 -97.5t-54 -79.5t-79.5 -54t-97.5 -20t-98 20t-80 54t-53.5 79.5t-19.5 97.5t19.5 98t53.5 80t80 53.5t98 19.5zM602 556q-43 0 -80.5 -16t-65.5 -44t-44 -65.5t-16 -79.5t16 -79.5t44 -65.5t65.5 -44t80.5 -16 v410z" />
<glyph unicode="&#xbb;" d="M729 566q31 0 53 -22t22 -53v-251q0 -32 -22 -54t-53 -22h-252q-31 0 -53 22t-22 54v251q0 31 22 53t53 22h252zM477 516q-10 0 -17.5 -7.5t-7.5 -17.5v-251q0 -11 7.5 -18.5t17.5 -7.5h252q10 0 17.5 7.5t7.5 18.5v251q0 10 -7.5 17.5t-17.5 7.5h-252zM658 363l52 -52 q11 -11 11 -26.5t-11 -26.5t-26.5 -11t-26.5 11l-53 52l-52 -52q-11 -11 -26.5 -11t-26.5 11t-11 26.5t11 26.5l52 52l-52 52q-11 11 -11 26.5t11 26.5t26.5 11t26.5 -11l52 -52l53 52q11 11 26.5 11t26.5 -11t11 -26.5t-11 -26.5z" />
<glyph unicode="&#xbc;" d="M729 566q31 0 53 -22t22 -53v-251q0 -32 -22 -54t-53 -22h-252q-31 0 -53 22t-22 54v251q0 31 22 53t53 22h252zM477 516q-10 0 -17.5 -7.5t-7.5 -17.5v-251q0 -11 7.5 -18.5t17.5 -7.5h252q10 0 17.5 7.5t7.5 18.5v251q0 10 -7.5 17.5t-17.5 7.5h-252zM658 363l52 -52 q11 -11 11 -26.5t-11 -26.5t-26.5 -11t-26.5 11l-53 52l-52 -52q-11 -11 -26.5 -11t-26.5 11t-11 26.5t11 26.5l52 52l-52 52q-11 11 -11 26.5t11 26.5t26.5 11t26.5 -11l52 -52l53 52q11 11 26.5 11t26.5 -11t11 -26.5t-11 -26.5z" />
<glyph unicode="&#xbd;" d="M729 566q31 0 53 -22t22 -53v-251q0 -32 -22 -54t-53 -22h-252q-31 0 -53 22t-22 54v251q0 31 22 53t53 22h252zM477 516q-10 0 -17.5 -7.5t-7.5 -17.5v-251q0 -11 7.5 -18.5t17.5 -7.5h252q10 0 17.5 7.5t7.5 18.5v251q0 10 -7.5 17.5t-17.5 7.5h-252zM658 363l52 -52 q11 -11 11 -26.5t-11 -26.5t-26.5 -11t-26.5 11l-53 52l-52 -52q-11 -11 -26.5 -11t-26.5 11t-11 26.5t11 26.5l52 52l-52 52q-11 11 -11 26.5t11 26.5t26.5 11t26.5 -11l52 -52l53 52q11 11 26.5 11t26.5 -11t11 -26.5t-11 -26.5z" />
<glyph unicode="&#xbe;" d="M729 566q31 0 53 -22t22 -53v-251q0 -32 -22 -54t-53 -22h-252q-31 0 -53 22t-22 54v251q0 31 22 53t53 22h252zM477 516q-10 0 -17.5 -7.5t-7.5 -17.5v-251q0 -11 7.5 -18.5t17.5 -7.5h252q10 0 17.5 7.5t7.5 18.5v251q0 10 -7.5 17.5t-17.5 7.5h-252zM658 363l52 -52 q11 -11 11 -26.5t-11 -26.5t-26.5 -11t-26.5 11l-53 52l-52 -52q-11 -11 -26.5 -11t-26.5 11t-11 26.5t11 26.5l52 52l-52 52q-11 11 -11 26.5t11 26.5t26.5 11t26.5 -11l52 -52l53 52q11 11 26.5 11t26.5 -11t11 -26.5t-11 -26.5z" />
<glyph unicode="&#xbf;" d="M729 566q31 0 53 -22t22 -53v-251q0 -32 -22 -54t-53 -22h-252q-31 0 -53 22t-22 54v251q0 31 22 53t53 22h252zM477 516q-10 0 -17.5 -7.5t-7.5 -17.5v-251q0 -11 7.5 -18.5t17.5 -7.5h252q10 0 17.5 7.5t7.5 18.5v251q0 10 -7.5 17.5t-17.5 7.5h-252zM658 363l52 -52 q11 -11 11 -26.5t-11 -26.5t-26.5 -11t-26.5 11l-53 52l-52 -52q-11 -11 -26.5 -11t-26.5 11t-11 26.5t11 26.5l52 52l-52 52q-11 11 -11 26.5t11 26.5t26.5 11t26.5 -11l52 -52l53 52q11 11 26.5 11t26.5 -11t11 -26.5t-11 -26.5z" />
<glyph unicode="&#xc0;" d="M729 566q31 0 53 -22t22 -53v-251q0 -32 -22 -54t-53 -22h-252q-31 0 -53 22t-22 54v251q0 31 22 53t53 22h252zM477 516q-10 0 -17.5 -7.5t-7.5 -17.5v-251q0 -11 7.5 -18.5t17.5 -7.5h252q10 0 17.5 7.5t7.5 18.5v251q0 10 -7.5 17.5t-17.5 7.5h-252zM658 363l52 -52 q11 -11 11 -26.5t-11 -26.5t-26.5 -11t-26.5 11l-53 52l-52 -52q-11 -11 -26.5 -11t-26.5 11t-11 26.5t11 26.5l52 52l-52 52q-11 11 -11 26.5t11 26.5t26.5 11t26.5 -11l52 -52l53 52q11 11 26.5 11t26.5 -11t11 -26.5t-11 -26.5z" />
<glyph unicode="&#xc1;" d="M729 566q31 0 53 -22t22 -53v-251q0 -32 -22 -54t-53 -22h-252q-31 0 -53 22t-22 54v251q0 31 22 53t53 22h252zM477 516q-10 0 -17.5 -7.5t-7.5 -17.5v-251q0 -11 7.5 -18.5t17.5 -7.5h252q10 0 17.5 7.5t7.5 18.5v251q0 10 -7.5 17.5t-17.5 7.5h-252zM658 363l52 -52 q11 -11 11 -26.5t-11 -26.5t-26.5 -11t-26.5 11l-53 52l-52 -52q-11 -11 -26.5 -11t-26.5 11t-11 26.5t11 26.5l52 52l-52 52q-11 11 -11 26.5t11 26.5t26.5 11t26.5 -11l52 -52l53 52q11 11 26.5 11t26.5 -11t11 -26.5t-11 -26.5z" />
<glyph unicode="&#xc2;" d="M753 326q0 -18 -6 -41.5t-20 -46t-38.5 -39.5t-61.5 -22v-77h101q11 0 18 -7t7 -18t-7 -18t-18 -7h-251q-11 0 -18 7t-7 18t7 18t18 7h100v77q-37 5 -61 22t-38.5 39.5t-20 46t-5.5 41.5v100q0 11 7 18t18 7t18 -7t7 -18v-100q0 -4 2 -20t12 -34t30 -32.5t56 -14.5 q37 0 57.5 15t30.5 34t11.5 34.5t1.5 17.5v100q0 11 7 18t18 7t18 -7t7 -18v-100zM527 451v126q0 31 22 53t53 22q32 0 54 -22t22 -53v-126h-151zM602 251q-31 0 -53 21.5t-22 53.5v100h151v-100q0 -32 -22 -53.5t-54 -21.5z" />
<glyph unicode="&#xc3;" d="M729 566q31 0 53 -22t22 -53v-251q0 -32 -22 -54t-53 -22h-252q-31 0 -53 22t-22 54v251q0 31 22 53t53 22h252zM477 516q-10 0 -17.5 -7.5t-7.5 -17.5v-251q0 -11 7.5 -18.5t17.5 -7.5h252q10 0 17.5 7.5t7.5 18.5v251q0 10 -7.5 17.5t-17.5 7.5h-252zM658 363l52 -52 q11 -11 11 -26.5t-11 -26.5t-26.5 -11t-26.5 11l-53 52l-52 -52q-11 -11 -26.5 -11t-26.5 11t-11 26.5t11 26.5l52 52l-52 52q-11 11 -11 26.5t11 26.5t26.5 11t26.5 -11l52 -52l53 52q11 11 26.5 11t26.5 -11t11 -26.5t-11 -26.5z" />
<glyph unicode="&#xc4;" d="M729 566q31 0 53 -22t22 -53v-251q0 -32 -22 -54t-53 -22h-252q-31 0 -53 22t-22 54v251q0 31 22 53t53 22h252zM477 516q-10 0 -17.5 -7.5t-7.5 -17.5v-251q0 -11 7.5 -18.5t17.5 -7.5h252q10 0 17.5 7.5t7.5 18.5v251q0 10 -7.5 17.5t-17.5 7.5h-252zM658 363l52 -52 q11 -11 11 -26.5t-11 -26.5t-26.5 -11t-26.5 11l-53 52l-52 -52q-11 -11 -26.5 -11t-26.5 11t-11 26.5t11 26.5l52 52l-52 52q-11 11 -11 26.5t11 26.5t26.5 11t26.5 -11l52 -52l53 52q11 11 26.5 11t26.5 -11t11 -26.5t-11 -26.5z" />
<glyph unicode="&#xc5;" d="M729 566q31 0 53 -22t22 -53v-251q0 -32 -22 -54t-53 -22h-252q-31 0 -53 22t-22 54v251q0 31 22 53t53 22h252zM477 516q-10 0 -17.5 -7.5t-7.5 -17.5v-251q0 -11 7.5 -18.5t17.5 -7.5h252q10 0 17.5 7.5t7.5 18.5v251q0 10 -7.5 17.5t-17.5 7.5h-252zM658 363l52 -52 q11 -11 11 -26.5t-11 -26.5t-26.5 -11t-26.5 11l-53 52l-52 -52q-11 -11 -26.5 -11t-26.5 11t-11 26.5t11 26.5l52 52l-52 52q-11 11 -11 26.5t11 26.5t26.5 11t26.5 -11l52 -52l53 52q11 11 26.5 11t26.5 -11t11 -26.5t-11 -26.5z" />
<glyph unicode="&#xc6;" d="M729 566q31 0 53 -22t22 -53v-251q0 -32 -22 -54t-53 -22h-252q-31 0 -53 22t-22 54v251q0 31 22 53t53 22h252zM477 516q-10 0 -17.5 -7.5t-7.5 -17.5v-251q0 -11 7.5 -18.5t17.5 -7.5h252q10 0 17.5 7.5t7.5 18.5v251q0 10 -7.5 17.5t-17.5 7.5h-252zM658 363l52 -52 q11 -11 11 -26.5t-11 -26.5t-26.5 -11t-26.5 11l-53 52l-52 -52q-11 -11 -26.5 -11t-26.5 11t-11 26.5t11 26.5l52 52l-52 52q-11 11 -11 26.5t11 26.5t26.5 11t26.5 -11l52 -52l53 52q11 11 26.5 11t26.5 -11t11 -26.5t-11 -26.5z" />
<glyph unicode="&#xc7;" d="M627 100q32 -1 59.5 -5.5t48 -11t32 -15t11.5 -18.5h-351q0 10 11.5 18.5t31.5 15t47.5 11t59.5 5.5v229q-32 6 -59.5 26t-48 48.5t-32 62.5t-11.5 69v118h352v-118q0 -35 -11.5 -69t-32 -62.5t-48 -48.5t-59.5 -26v-229zM452 535q0 -32 11.5 -64.5t31.5 -59t48 -43 t60 -16.5q31 0 58.5 16.5t48 43t32 59t11.5 64.5v93h-301v-93z" />
<glyph unicode="&#xc8;" d="M729 566q31 0 53 -22t22 -53v-251q0 -32 -22 -54t-53 -22h-252q-31 0 -53 22t-22 54v251q0 31 22 53t53 22h252zM477 516q-10 0 -17.5 -7.5t-7.5 -17.5v-251q0 -11 7.5 -18.5t17.5 -7.5h252q10 0 17.5 7.5t7.5 18.5v251q0 10 -7.5 17.5t-17.5 7.5h-252zM658 363l52 -52 q11 -11 11 -26.5t-11 -26.5t-26.5 -11t-26.5 11l-53 52l-52 -52q-11 -11 -26.5 -11t-26.5 11t-11 26.5t11 26.5l52 52l-52 52q-11 11 -11 26.5t11 26.5t26.5 11t26.5 -11l52 -52l53 52q11 11 26.5 11t26.5 -11t11 -26.5t-11 -26.5z" />
<glyph unicode="&#xc9;" d="M729 566q31 0 53 -22t22 -53v-251q0 -32 -22 -54t-53 -22h-252q-31 0 -53 22t-22 54v251q0 31 22 53t53 22h252zM477 516q-10 0 -17.5 -7.5t-7.5 -17.5v-251q0 -11 7.5 -18.5t17.5 -7.5h252q10 0 17.5 7.5t7.5 18.5v251q0 10 -7.5 17.5t-17.5 7.5h-252zM658 363l52 -52 q11 -11 11 -26.5t-11 -26.5t-26.5 -11t-26.5 11l-53 52l-52 -52q-11 -11 -26.5 -11t-26.5 11t-11 26.5t11 26.5l52 52l-52 52q-11 11 -11 26.5t11 26.5t26.5 11t26.5 -11l52 -52l53 52q11 11 26.5 11t26.5 -11t11 -26.5t-11 -26.5z" />
<glyph unicode="&#xca;" d="M729 566q31 0 53 -22t22 -53v-251q0 -32 -22 -54t-53 -22h-252q-31 0 -53 22t-22 54v251q0 31 22 53t53 22h252zM477 516q-10 0 -17.5 -7.5t-7.5 -17.5v-251q0 -11 7.5 -18.5t17.5 -7.5h252q10 0 17.5 7.5t7.5 18.5v251q0 10 -7.5 17.5t-17.5 7.5h-252zM658 363l52 -52 q11 -11 11 -26.5t-11 -26.5t-26.5 -11t-26.5 11l-53 52l-52 -52q-11 -11 -26.5 -11t-26.5 11t-11 26.5t11 26.5l52 52l-52 52q-11 11 -11 26.5t11 26.5t26.5 11t26.5 -11l52 -52l53 52q11 11 26.5 11t26.5 -11t11 -26.5t-11 -26.5z" />
<glyph unicode="&#xcb;" d="M729 566q31 0 53 -22t22 -53v-251q0 -32 -22 -54t-53 -22h-252q-31 0 -53 22t-22 54v251q0 31 22 53t53 22h252zM477 516q-10 0 -17.5 -7.5t-7.5 -17.5v-251q0 -11 7.5 -18.5t17.5 -7.5h252q10 0 17.5 7.5t7.5 18.5v251q0 10 -7.5 17.5t-17.5 7.5h-252zM658 363l52 -52 q11 -11 11 -26.5t-11 -26.5t-26.5 -11t-26.5 11l-53 52l-52 -52q-11 -11 -26.5 -11t-26.5 11t-11 26.5t11 26.5l52 52l-52 52q-11 11 -11 26.5t11 26.5t26.5 11t26.5 -11l52 -52l53 52q11 11 26.5 11t26.5 -11t11 -26.5t-11 -26.5z" />
<glyph unicode="&#xcc;" d="M729 566q31 0 53 -22t22 -53v-251q0 -32 -22 -54t-53 -22h-252q-31 0 -53 22t-22 54v251q0 31 22 53t53 22h252zM477 516q-10 0 -17.5 -7.5t-7.5 -17.5v-251q0 -11 7.5 -18.5t17.5 -7.5h252q10 0 17.5 7.5t7.5 18.5v251q0 10 -7.5 17.5t-17.5 7.5h-252zM658 363l52 -52 q11 -11 11 -26.5t-11 -26.5t-26.5 -11t-26.5 11l-53 52l-52 -52q-11 -11 -26.5 -11t-26.5 11t-11 26.5t11 26.5l52 52l-52 52q-11 11 -11 26.5t11 26.5t26.5 11t26.5 -11l52 -52l53 52q11 11 26.5 11t26.5 -11t11 -26.5t-11 -26.5z" />
<glyph unicode="&#xcd;" d="M829 502q31 0 58.5 -12t47.5 -32.5t32 -48t12 -58.5t-12 -58.5t-32 -48t-47.5 -32.5t-58.5 -12h-452q-31 0 -58.5 12t-48 32.5t-32.5 48t-12 58.5t12 58.5t32.5 48t48 32.5t58.5 12h452zM452 451h151v-25h176v25h-176v26h-226q-26 0 -49 -10t-40 -27t-27 -40t-10 -49 t10 -48.5t27 -39.5t40 -27t49 -10h226v200h-151v25zM377 389q0 -16 -11 -27t-27 -11t-26.5 11t-10.5 27q0 15 10.5 26t26.5 11t27 -11t11 -26zM427 426q0 -11 -7 -18t-18 -7t-18 7t-7 18t7 18t18 7t18 -7t7 -18zM816 426q13 0 13 13q0 12 -13 12q-12 0 -12 -12q0 -13 12 -13 z" />
<glyph unicode="&#xce;" d="M729 566q31 0 53 -22t22 -53v-251q0 -32 -22 -54t-53 -22h-252q-31 0 -53 22t-22 54v251q0 31 22 53t53 22h252zM477 516q-10 0 -17.5 -7.5t-7.5 -17.5v-251q0 -11 7.5 -18.5t17.5 -7.5h252q10 0 17.5 7.5t7.5 18.5v251q0 10 -7.5 17.5t-17.5 7.5h-252zM658 363l52 -52 q11 -11 11 -26.5t-11 -26.5t-26.5 -11t-26.5 11l-53 52l-52 -52q-11 -11 -26.5 -11t-26.5 11t-11 26.5t11 26.5l52 52l-52 52q-11 11 -11 26.5t11 26.5t26.5 11t26.5 -11l52 -52l53 52q11 11 26.5 11t26.5 -11t11 -26.5t-11 -26.5z" />
<glyph unicode="&#xcf;" d="M729 566q31 0 53 -22t22 -53v-251q0 -32 -22 -54t-53 -22h-252q-31 0 -53 22t-22 54v251q0 31 22 53t53 22h252zM477 516q-10 0 -17.5 -7.5t-7.5 -17.5v-251q0 -11 7.5 -18.5t17.5 -7.5h252q10 0 17.5 7.5t7.5 18.5v251q0 10 -7.5 17.5t-17.5 7.5h-252zM658 363l52 -52 q11 -11 11 -26.5t-11 -26.5t-26.5 -11t-26.5 11l-53 52l-52 -52q-11 -11 -26.5 -11t-26.5 11t-11 26.5t11 26.5l52 52l-52 52q-11 11 -11 26.5t11 26.5t26.5 11t26.5 -11l52 -52l53 52q11 11 26.5 11t26.5 -11t11 -26.5t-11 -26.5z" />
<glyph unicode="&#xd0;" d="M729 566q31 0 53 -22t22 -53v-251q0 -32 -22 -54t-53 -22h-252q-31 0 -53 22t-22 54v251q0 31 22 53t53 22h252zM477 516q-10 0 -17.5 -7.5t-7.5 -17.5v-251q0 -11 7.5 -18.5t17.5 -7.5h252q10 0 17.5 7.5t7.5 18.5v251q0 10 -7.5 17.5t-17.5 7.5h-252zM658 363l52 -52 q11 -11 11 -26.5t-11 -26.5t-26.5 -11t-26.5 11l-53 52l-52 -52q-11 -11 -26.5 -11t-26.5 11t-11 26.5t11 26.5l52 52l-52 52q-11 11 -11 26.5t11 26.5t26.5 11t26.5 -11l52 -52l53 52q11 11 26.5 11t26.5 -11t11 -26.5t-11 -26.5z" />
<glyph unicode="&#xd1;" d="M729 566q31 0 53 -22t22 -53v-251q0 -32 -22 -54t-53 -22h-252q-31 0 -53 22t-22 54v251q0 31 22 53t53 22h252zM477 516q-10 0 -17.5 -7.5t-7.5 -17.5v-251q0 -11 7.5 -18.5t17.5 -7.5h252q10 0 17.5 7.5t7.5 18.5v251q0 10 -7.5 17.5t-17.5 7.5h-252zM658 363l52 -52 q11 -11 11 -26.5t-11 -26.5t-26.5 -11t-26.5 11l-53 52l-52 -52q-11 -11 -26.5 -11t-26.5 11t-11 26.5t11 26.5l52 52l-52 52q-11 11 -11 26.5t11 26.5t26.5 11t26.5 -11l52 -52l53 52q11 11 26.5 11t26.5 -11t11 -26.5t-11 -26.5z" />
<glyph unicode="&#xd2;" d="M729 566q31 0 53 -22t22 -53v-251q0 -32 -22 -54t-53 -22h-252q-31 0 -53 22t-22 54v251q0 31 22 53t53 22h252zM477 516q-10 0 -17.5 -7.5t-7.5 -17.5v-251q0 -11 7.5 -18.5t17.5 -7.5h252q10 0 17.5 7.5t7.5 18.5v251q0 10 -7.5 17.5t-17.5 7.5h-252zM658 363l52 -52 q11 -11 11 -26.5t-11 -26.5t-26.5 -11t-26.5 11l-53 52l-52 -52q-11 -11 -26.5 -11t-26.5 11t-11 26.5t11 26.5l52 52l-52 52q-11 11 -11 26.5t11 26.5t26.5 11t26.5 -11l52 -52l53 52q11 11 26.5 11t26.5 -11t11 -26.5t-11 -26.5z" />
<glyph unicode="&#xd3;" d="M653 301v-140l75 -61v-50l-126 50l-125 -50v50l75 61v140l-226 -75v50l226 151v175q1 14 6 25q5 10 15 18t29 8t29.5 -8t15.5 -18q5 -11 6 -25v-175l226 -151v-50z" />
<glyph unicode="&#xd4;" d="M729 566q31 0 53 -22t22 -53v-251q0 -32 -22 -54t-53 -22h-252q-31 0 -53 22t-22 54v251q0 31 22 53t53 22h252zM477 516q-10 0 -17.5 -7.5t-7.5 -17.5v-251q0 -11 7.5 -18.5t17.5 -7.5h252q10 0 17.5 7.5t7.5 18.5v251q0 10 -7.5 17.5t-17.5 7.5h-252zM658 363l52 -52 q11 -11 11 -26.5t-11 -26.5t-26.5 -11t-26.5 11l-53 52l-52 -52q-11 -11 -26.5 -11t-26.5 11t-11 26.5t11 26.5l52 52l-52 52q-11 11 -11 26.5t11 26.5t26.5 11t26.5 -11l52 -52l53 52q11 11 26.5 11t26.5 -11t11 -26.5t-11 -26.5z" />
<glyph unicode="&#xd5;" d="M729 566q31 0 53 -22t22 -53v-251q0 -32 -22 -54t-53 -22h-252q-31 0 -53 22t-22 54v251q0 31 22 53t53 22h252zM477 516q-10 0 -17.5 -7.5t-7.5 -17.5v-251q0 -11 7.5 -18.5t17.5 -7.5h252q10 0 17.5 7.5t7.5 18.5v251q0 10 -7.5 17.5t-17.5 7.5h-252zM658 363l52 -52 q11 -11 11 -26.5t-11 -26.5t-26.5 -11t-26.5 11l-53 52l-52 -52q-11 -11 -26.5 -11t-26.5 11t-11 26.5t11 26.5l52 52l-52 52q-11 11 -11 26.5t11 26.5t26.5 11t26.5 -11l52 -52l53 52q11 11 26.5 11t26.5 -11t11 -26.5t-11 -26.5z" />
<glyph unicode="&#xd6;" d="M729 566q31 0 53 -22t22 -53v-251q0 -32 -22 -54t-53 -22h-252q-31 0 -53 22t-22 54v251q0 31 22 53t53 22h252zM477 516q-10 0 -17.5 -7.5t-7.5 -17.5v-251q0 -11 7.5 -18.5t17.5 -7.5h252q10 0 17.5 7.5t7.5 18.5v251q0 10 -7.5 17.5t-17.5 7.5h-252zM658 363l52 -52 q11 -11 11 -26.5t-11 -26.5t-26.5 -11t-26.5 11l-53 52l-52 -52q-11 -11 -26.5 -11t-26.5 11t-11 26.5t11 26.5l52 52l-52 52q-11 11 -11 26.5t11 26.5t26.5 11t26.5 -11l52 -52l53 52q11 11 26.5 11t26.5 -11t11 -26.5t-11 -26.5z" />
<glyph unicode="&#xd7;" d="M729 566q31 0 53 -22t22 -53v-251q0 -32 -22 -54t-53 -22h-252q-31 0 -53 22t-22 54v251q0 31 22 53t53 22h252zM477 516q-10 0 -17.5 -7.5t-7.5 -17.5v-251q0 -11 7.5 -18.5t17.5 -7.5h252q10 0 17.5 7.5t7.5 18.5v251q0 10 -7.5 17.5t-17.5 7.5h-252zM658 363l52 -52 q11 -11 11 -26.5t-11 -26.5t-26.5 -11t-26.5 11l-53 52l-52 -52q-11 -11 -26.5 -11t-26.5 11t-11 26.5t11 26.5l52 52l-52 52q-11 11 -11 26.5t11 26.5t26.5 11t26.5 -11l52 -52l53 52q11 11 26.5 11t26.5 -11t11 -26.5t-11 -26.5z" />
<glyph unicode="&#xd8;" d="M729 566q31 0 53 -22t22 -53v-251q0 -32 -22 -54t-53 -22h-252q-31 0 -53 22t-22 54v251q0 31 22 53t53 22h252zM477 516q-10 0 -17.5 -7.5t-7.5 -17.5v-251q0 -11 7.5 -18.5t17.5 -7.5h252q10 0 17.5 7.5t7.5 18.5v251q0 10 -7.5 17.5t-17.5 7.5h-252zM658 363l52 -52 q11 -11 11 -26.5t-11 -26.5t-26.5 -11t-26.5 11l-53 52l-52 -52q-11 -11 -26.5 -11t-26.5 11t-11 26.5t11 26.5l52 52l-52 52q-11 11 -11 26.5t11 26.5t26.5 11t26.5 -11l52 -52l53 52q11 11 26.5 11t26.5 -11t11 -26.5t-11 -26.5z" />
<glyph unicode="&#xd9;" d="M729 566q31 0 53 -22t22 -53v-251q0 -32 -22 -54t-53 -22h-252q-31 0 -53 22t-22 54v251q0 31 22 53t53 22h252zM477 516q-10 0 -17.5 -7.5t-7.5 -17.5v-251q0 -11 7.5 -18.5t17.5 -7.5h252q10 0 17.5 7.5t7.5 18.5v251q0 10 -7.5 17.5t-17.5 7.5h-252zM658 363l52 -52 q11 -11 11 -26.5t-11 -26.5t-26.5 -11t-26.5 11l-53 52l-52 -52q-11 -11 -26.5 -11t-26.5 11t-11 26.5t11 26.5l52 52l-52 52q-11 11 -11 26.5t11 26.5t26.5 11t26.5 -11l52 -52l53 52q11 11 26.5 11t26.5 -11t11 -26.5t-11 -26.5z" />
<glyph unicode="&#xda;" d="M729 566q31 0 53 -22t22 -53v-251q0 -32 -22 -54t-53 -22h-252q-31 0 -53 22t-22 54v251q0 31 22 53t53 22h252zM477 516q-10 0 -17.5 -7.5t-7.5 -17.5v-251q0 -11 7.5 -18.5t17.5 -7.5h252q10 0 17.5 7.5t7.5 18.5v251q0 10 -7.5 17.5t-17.5 7.5h-252zM658 363l52 -52 q11 -11 11 -26.5t-11 -26.5t-26.5 -11t-26.5 11l-53 52l-52 -52q-11 -11 -26.5 -11t-26.5 11t-11 26.5t11 26.5l52 52l-52 52q-11 11 -11 26.5t11 26.5t26.5 11t26.5 -11l52 -52l53 52q11 11 26.5 11t26.5 -11t11 -26.5t-11 -26.5z" />
<glyph unicode="&#xdb;" d="M729 566q31 0 53 -22t22 -53v-251q0 -32 -22 -54t-53 -22h-252q-31 0 -53 22t-22 54v251q0 31 22 53t53 22h252zM477 516q-10 0 -17.5 -7.5t-7.5 -17.5v-251q0 -11 7.5 -18.5t17.5 -7.5h252q10 0 17.5 7.5t7.5 18.5v251q0 10 -7.5 17.5t-17.5 7.5h-252zM658 363l52 -52 q11 -11 11 -26.5t-11 -26.5t-26.5 -11t-26.5 11l-53 52l-52 -52q-11 -11 -26.5 -11t-26.5 11t-11 26.5t11 26.5l52 52l-52 52q-11 11 -11 26.5t11 26.5t26.5 11t26.5 -11l52 -52l53 52q11 11 26.5 11t26.5 -11t11 -26.5t-11 -26.5z" />
<glyph unicode="&#xdc;" d="M729 566q31 0 53 -22t22 -53v-251q0 -32 -22 -54t-53 -22h-252q-31 0 -53 22t-22 54v251q0 31 22 53t53 22h252zM477 516q-10 0 -17.5 -7.5t-7.5 -17.5v-251q0 -11 7.5 -18.5t17.5 -7.5h252q10 0 17.5 7.5t7.5 18.5v251q0 10 -7.5 17.5t-17.5 7.5h-252zM658 363l52 -52 q11 -11 11 -26.5t-11 -26.5t-26.5 -11t-26.5 11l-53 52l-52 -52q-11 -11 -26.5 -11t-26.5 11t-11 26.5t11 26.5l52 52l-52 52q-11 11 -11 26.5t11 26.5t26.5 11t26.5 -11l52 -52l53 52q11 11 26.5 11t26.5 -11t11 -26.5t-11 -26.5z" />
<glyph unicode="&#xdd;" d="M729 566q31 0 53 -22t22 -53v-251q0 -32 -22 -54t-53 -22h-252q-31 0 -53 22t-22 54v251q0 31 22 53t53 22h252zM477 516q-10 0 -17.5 -7.5t-7.5 -17.5v-251q0 -11 7.5 -18.5t17.5 -7.5h252q10 0 17.5 7.5t7.5 18.5v251q0 10 -7.5 17.5t-17.5 7.5h-252zM658 363l52 -52 q11 -11 11 -26.5t-11 -26.5t-26.5 -11t-26.5 11l-53 52l-52 -52q-11 -11 -26.5 -11t-26.5 11t-11 26.5t11 26.5l52 52l-52 52q-11 11 -11 26.5t11 26.5t26.5 11t26.5 -11l52 -52l53 52q11 11 26.5 11t26.5 -11t11 -26.5t-11 -26.5z" />
<glyph unicode="&#xde;" d="M729 566q31 0 53 -22t22 -53v-251q0 -32 -22 -54t-53 -22h-252q-31 0 -53 22t-22 54v251q0 31 22 53t53 22h252zM477 516q-10 0 -17.5 -7.5t-7.5 -17.5v-251q0 -11 7.5 -18.5t17.5 -7.5h252q10 0 17.5 7.5t7.5 18.5v251q0 10 -7.5 17.5t-17.5 7.5h-252zM658 363l52 -52 q11 -11 11 -26.5t-11 -26.5t-26.5 -11t-26.5 11l-53 52l-52 -52q-11 -11 -26.5 -11t-26.5 11t-11 26.5t11 26.5l52 52l-52 52q-11 11 -11 26.5t11 26.5t26.5 11t26.5 -11l52 -52l53 52q11 11 26.5 11t26.5 -11t11 -26.5t-11 -26.5z" />
<glyph unicode="&#xdf;" d="M615 550q44 -9 72.5 -43.5t28.5 -79.5v-51h-125v-175h125v-151h-251v377q0 45 29 79.5t72 43.5l-1 2v25q0 11 7.5 18t18.5 7q10 0 17.5 -7t7.5 -18l251 75v-175l-251 100v-25q0 -1 -1 -2zM616 351h100v-125h-100v125z" />
<glyph unicode="&#xe0;" d="M729 566q31 0 53 -22t22 -53v-251q0 -32 -22 -54t-53 -22h-252q-31 0 -53 22t-22 54v251q0 31 22 53t53 22h252zM477 516q-10 0 -17.5 -7.5t-7.5 -17.5v-251q0 -11 7.5 -18.5t17.5 -7.5h252q10 0 17.5 7.5t7.5 18.5v251q0 10 -7.5 17.5t-17.5 7.5h-252zM658 363l52 -52 q11 -11 11 -26.5t-11 -26.5t-26.5 -11t-26.5 11l-53 52l-52 -52q-11 -11 -26.5 -11t-26.5 11t-11 26.5t11 26.5l52 52l-52 52q-11 11 -11 26.5t11 26.5t26.5 11t26.5 -11l52 -52l53 52q11 11 26.5 11t26.5 -11t11 -26.5t-11 -26.5z" />
<glyph unicode="&#xe1;" d="M729 566q31 0 53 -22t22 -53v-251q0 -32 -22 -54t-53 -22h-252q-31 0 -53 22t-22 54v251q0 31 22 53t53 22h252zM477 516q-10 0 -17.5 -7.5t-7.5 -17.5v-251q0 -11 7.5 -18.5t17.5 -7.5h252q10 0 17.5 7.5t7.5 18.5v251q0 10 -7.5 17.5t-17.5 7.5h-252zM658 363l52 -52 q11 -11 11 -26.5t-11 -26.5t-26.5 -11t-26.5 11l-53 52l-52 -52q-11 -11 -26.5 -11t-26.5 11t-11 26.5t11 26.5l52 52l-52 52q-11 11 -11 26.5t11 26.5t26.5 11t26.5 -11l52 -52l53 52q11 11 26.5 11t26.5 -11t11 -26.5t-11 -26.5z" />
<glyph unicode="&#xe2;" d="M729 566q31 0 53 -22t22 -53v-251q0 -32 -22 -54t-53 -22h-252q-31 0 -53 22t-22 54v251q0 31 22 53t53 22h252zM477 516q-10 0 -17.5 -7.5t-7.5 -17.5v-251q0 -11 7.5 -18.5t17.5 -7.5h252q10 0 17.5 7.5t7.5 18.5v251q0 10 -7.5 17.5t-17.5 7.5h-252zM658 363l52 -52 q11 -11 11 -26.5t-11 -26.5t-26.5 -11t-26.5 11l-53 52l-52 -52q-11 -11 -26.5 -11t-26.5 11t-11 26.5t11 26.5l52 52l-52 52q-11 11 -11 26.5t11 26.5t26.5 11t26.5 -11l52 -52l53 52q11 11 26.5 11t26.5 -11t11 -26.5t-11 -26.5z" />
<glyph unicode="&#xe3;" d="M729 566q31 0 53 -22t22 -53v-251q0 -32 -22 -54t-53 -22h-252q-31 0 -53 22t-22 54v251q0 31 22 53t53 22h252zM477 516q-10 0 -17.5 -7.5t-7.5 -17.5v-251q0 -11 7.5 -18.5t17.5 -7.5h252q10 0 17.5 7.5t7.5 18.5v251q0 10 -7.5 17.5t-17.5 7.5h-252zM658 363l52 -52 q11 -11 11 -26.5t-11 -26.5t-26.5 -11t-26.5 11l-53 52l-52 -52q-11 -11 -26.5 -11t-26.5 11t-11 26.5t11 26.5l52 52l-52 52q-11 11 -11 26.5t11 26.5t26.5 11t26.5 -11l52 -52l53 52q11 11 26.5 11t26.5 -11t11 -26.5t-11 -26.5z" />
<glyph unicode="&#xe4;" d="M729 566q31 0 53 -22t22 -53v-251q0 -32 -22 -54t-53 -22h-252q-31 0 -53 22t-22 54v251q0 31 22 53t53 22h252zM477 516q-10 0 -17.5 -7.5t-7.5 -17.5v-251q0 -11 7.5 -18.5t17.5 -7.5h252q10 0 17.5 7.5t7.5 18.5v251q0 10 -7.5 17.5t-17.5 7.5h-252zM658 363l52 -52 q11 -11 11 -26.5t-11 -26.5t-26.5 -11t-26.5 11l-53 52l-52 -52q-11 -11 -26.5 -11t-26.5 11t-11 26.5t11 26.5l52 52l-52 52q-11 11 -11 26.5t11 26.5t26.5 11t26.5 -11l52 -52l53 52q11 11 26.5 11t26.5 -11t11 -26.5t-11 -26.5z" />
<glyph unicode="&#xe5;" d="M778 565q44 0 82.5 -16.5t67.5 -45.5t46 -68t17 -83t-17 -83t-46 -68t-67.5 -45.5t-82.5 -16.5v-63l-151 100l151 101v-63q28 0 53.5 11t44 29.5t29.5 43.5t11 54q0 28 -11 53.5t-29.5 44t-44 29.5t-53.5 11q-29 0 -54 -11t-44 -29.5t-29.5 -44t-10.5 -53.5v-38 q-3 -42 -20.5 -78.5t-46 -64t-66 -43t-80.5 -15.5q-44 0 -82.5 17t-67.5 46t-46 68t-17 83t17 82.5t46 67.5t67.5 46t82.5 17v63l151 -100l-151 -101v63q-29 0 -54 -11t-43.5 -29.5t-29.5 -44t-11 -53.5q0 -29 11 -54t29.5 -43.5t43.5 -29.5t54 -11q28 0 53.5 11t44 29.5 t29.5 43.5t11 54v37q2 42 19.5 78.5t46.5 64t66.5 43t80.5 15.5z" />
<glyph unicode="&#xe6;" d="M729 566q31 0 53 -22t22 -53v-251q0 -32 -22 -54t-53 -22h-252q-31 0 -53 22t-22 54v251q0 31 22 53t53 22h252zM477 516q-10 0 -17.5 -7.5t-7.5 -17.5v-251q0 -11 7.5 -18.5t17.5 -7.5h252q10 0 17.5 7.5t7.5 18.5v251q0 10 -7.5 17.5t-17.5 7.5h-252zM658 363l52 -52 q11 -11 11 -26.5t-11 -26.5t-26.5 -11t-26.5 11l-53 52l-52 -52q-11 -11 -26.5 -11t-26.5 11t-11 26.5t11 26.5l52 52l-52 52q-11 11 -11 26.5t11 26.5t26.5 11t26.5 -11l52 -52l53 52q11 11 26.5 11t26.5 -11t11 -26.5t-11 -26.5z" />
<glyph unicode="&#xe7;" d="M849 629q0 -17 -7 -31t-18 -25v-472q0 -21 -14.5 -36t-35.5 -15h-326q-21 0 -36 15t-15 36v100h-50q-19 0 -29 7.5t-15 17.5q-5 11 -6 25v226q0 19 7.5 29t17.5 15q11 5 25 6h50v28q-25 25 -25 62q0 18 7 34t19 28t28 19t34 7q23 0 46 -13q19 13 42 13q8 0 15 -2l14 -4 q14 14 32 22.5t40 8.5q24 0 45 -11t35 -29q20 15 45 15q32 0 53.5 -22t21.5 -54zM448 529v-378q0 -21 14.5 -35.5t35.5 -14.5h226q20 0 35 14.5t15 35.5v403q-25 0 -44 14q-14 -19 -35 -30t-46 -11q-44 0 -74 32q-6 -3 -13 -4t-14 -1q-13 0 -23 3q-12 -13 -28.5 -20.5 t-36.5 -7.5h-12zM347 477v-226h50v226h-50zM623 176h-25v351h25v-351zM523 176h-25v351h25v-351zM724 176h-25v351h25v-351z" />
<glyph unicode="&#xe8;" d="M729 566q31 0 53 -22t22 -53v-251q0 -32 -22 -54t-53 -22h-252q-31 0 -53 22t-22 54v251q0 31 22 53t53 22h252zM477 516q-10 0 -17.5 -7.5t-7.5 -17.5v-251q0 -11 7.5 -18.5t17.5 -7.5h252q10 0 17.5 7.5t7.5 18.5v251q0 10 -7.5 17.5t-17.5 7.5h-252zM658 363l52 -52 q11 -11 11 -26.5t-11 -26.5t-26.5 -11t-26.5 11l-53 52l-52 -52q-11 -11 -26.5 -11t-26.5 11t-11 26.5t11 26.5l52 52l-52 52q-11 11 -11 26.5t11 26.5t26.5 11t26.5 -11l52 -52l53 52q11 11 26.5 11t26.5 -11t11 -26.5t-11 -26.5z" />
<glyph unicode="&#xe9;" d="M729 566q31 0 53 -22t22 -53v-251q0 -32 -22 -54t-53 -22h-252q-31 0 -53 22t-22 54v251q0 31 22 53t53 22h252zM477 516q-10 0 -17.5 -7.5t-7.5 -17.5v-251q0 -11 7.5 -18.5t17.5 -7.5h252q10 0 17.5 7.5t7.5 18.5v251q0 10 -7.5 17.5t-17.5 7.5h-252zM658 363l52 -52 q11 -11 11 -26.5t-11 -26.5t-26.5 -11t-26.5 11l-53 52l-52 -52q-11 -11 -26.5 -11t-26.5 11t-11 26.5t11 26.5l52 52l-52 52q-11 11 -11 26.5t11 26.5t26.5 11t26.5 -11l52 -52l53 52q11 11 26.5 11t26.5 -11t11 -26.5t-11 -26.5z" />
<glyph unicode="&#xea;" d="M729 566q31 0 53 -22t22 -53v-251q0 -32 -22 -54t-53 -22h-252q-31 0 -53 22t-22 54v251q0 31 22 53t53 22h252zM477 516q-10 0 -17.5 -7.5t-7.5 -17.5v-251q0 -11 7.5 -18.5t17.5 -7.5h252q10 0 17.5 7.5t7.5 18.5v251q0 10 -7.5 17.5t-17.5 7.5h-252zM658 363l52 -52 q11 -11 11 -26.5t-11 -26.5t-26.5 -11t-26.5 11l-53 52l-52 -52q-11 -11 -26.5 -11t-26.5 11t-11 26.5t11 26.5l52 52l-52 52q-11 11 -11 26.5t11 26.5t26.5 11t26.5 -11l52 -52l53 52q11 11 26.5 11t26.5 -11t11 -26.5t-11 -26.5z" />
<glyph unicode="&#xeb;" d="M729 566q31 0 53 -22t22 -53v-251q0 -32 -22 -54t-53 -22h-252q-31 0 -53 22t-22 54v251q0 31 22 53t53 22h252zM477 516q-10 0 -17.5 -7.5t-7.5 -17.5v-251q0 -11 7.5 -18.5t17.5 -7.5h252q10 0 17.5 7.5t7.5 18.5v251q0 10 -7.5 17.5t-17.5 7.5h-252zM658 363l52 -52 q11 -11 11 -26.5t-11 -26.5t-26.5 -11t-26.5 11l-53 52l-52 -52q-11 -11 -26.5 -11t-26.5 11t-11 26.5t11 26.5l52 52l-52 52q-11 11 -11 26.5t11 26.5t26.5 11t26.5 -11l52 -52l53 52q11 11 26.5 11t26.5 -11t11 -26.5t-11 -26.5z" />
<glyph unicode="&#xec;" d="M729 566q31 0 53 -22t22 -53v-251q0 -32 -22 -54t-53 -22h-252q-31 0 -53 22t-22 54v251q0 31 22 53t53 22h252zM477 516q-10 0 -17.5 -7.5t-7.5 -17.5v-251q0 -11 7.5 -18.5t17.5 -7.5h252q10 0 17.5 7.5t7.5 18.5v251q0 10 -7.5 17.5t-17.5 7.5h-252zM658 363l52 -52 q11 -11 11 -26.5t-11 -26.5t-26.5 -11t-26.5 11l-53 52l-52 -52q-11 -11 -26.5 -11t-26.5 11t-11 26.5t11 26.5l52 52l-52 52q-11 11 -11 26.5t11 26.5t26.5 11t26.5 -11l52 -52l53 52q11 11 26.5 11t26.5 -11t11 -26.5t-11 -26.5z" />
<glyph unicode="&#xed;" d="M729 566q31 0 53 -22t22 -53v-251q0 -32 -22 -54t-53 -22h-252q-31 0 -53 22t-22 54v251q0 31 22 53t53 22h252zM477 516q-10 0 -17.5 -7.5t-7.5 -17.5v-251q0 -11 7.5 -18.5t17.5 -7.5h252q10 0 17.5 7.5t7.5 18.5v251q0 10 -7.5 17.5t-17.5 7.5h-252zM658 363l52 -52 q11 -11 11 -26.5t-11 -26.5t-26.5 -11t-26.5 11l-53 52l-52 -52q-11 -11 -26.5 -11t-26.5 11t-11 26.5t11 26.5l52 52l-52 52q-11 11 -11 26.5t11 26.5t26.5 11t26.5 -11l52 -52l53 52q11 11 26.5 11t26.5 -11t11 -26.5t-11 -26.5z" />
<glyph unicode="&#xee;" d="M729 566q31 0 53 -22t22 -53v-251q0 -32 -22 -54t-53 -22h-252q-31 0 -53 22t-22 54v251q0 31 22 53t53 22h252zM477 516q-10 0 -17.5 -7.5t-7.5 -17.5v-251q0 -11 7.5 -18.5t17.5 -7.5h252q10 0 17.5 7.5t7.5 18.5v251q0 10 -7.5 17.5t-17.5 7.5h-252zM658 363l52 -52 q11 -11 11 -26.5t-11 -26.5t-26.5 -11t-26.5 11l-53 52l-52 -52q-11 -11 -26.5 -11t-26.5 11t-11 26.5t11 26.5l52 52l-52 52q-11 11 -11 26.5t11 26.5t26.5 11t26.5 -11l52 -52l53 52q11 11 26.5 11t26.5 -11t11 -26.5t-11 -26.5z" />
<glyph unicode="&#xef;" d="M729 566q31 0 53 -22t22 -53v-251q0 -32 -22 -54t-53 -22h-252q-31 0 -53 22t-22 54v251q0 31 22 53t53 22h252zM477 516q-10 0 -17.5 -7.5t-7.5 -17.5v-251q0 -11 7.5 -18.5t17.5 -7.5h252q10 0 17.5 7.5t7.5 18.5v251q0 10 -7.5 17.5t-17.5 7.5h-252zM658 363l52 -52 q11 -11 11 -26.5t-11 -26.5t-26.5 -11t-26.5 11l-53 52l-52 -52q-11 -11 -26.5 -11t-26.5 11t-11 26.5t11 26.5l52 52l-52 52q-11 11 -11 26.5t11 26.5t26.5 11t26.5 -11l52 -52l53 52q11 11 26.5 11t26.5 -11t11 -26.5t-11 -26.5z" />
<glyph unicode="&#xf0;" d="M729 566q31 0 53 -22t22 -53v-251q0 -32 -22 -54t-53 -22h-252q-31 0 -53 22t-22 54v251q0 31 22 53t53 22h252zM477 516q-10 0 -17.5 -7.5t-7.5 -17.5v-251q0 -11 7.5 -18.5t17.5 -7.5h252q10 0 17.5 7.5t7.5 18.5v251q0 10 -7.5 17.5t-17.5 7.5h-252zM658 363l52 -52 q11 -11 11 -26.5t-11 -26.5t-26.5 -11t-26.5 11l-53 52l-52 -52q-11 -11 -26.5 -11t-26.5 11t-11 26.5t11 26.5l52 52l-52 52q-11 11 -11 26.5t11 26.5t26.5 11t26.5 -11l52 -52l53 52q11 11 26.5 11t26.5 -11t11 -26.5t-11 -26.5z" />
<glyph unicode="&#xf1;" d="M729 566q31 0 53 -22t22 -53v-251q0 -32 -22 -54t-53 -22h-252q-31 0 -53 22t-22 54v251q0 31 22 53t53 22h252zM477 516q-10 0 -17.5 -7.5t-7.5 -17.5v-251q0 -11 7.5 -18.5t17.5 -7.5h252q10 0 17.5 7.5t7.5 18.5v251q0 10 -7.5 17.5t-17.5 7.5h-252zM658 363l52 -52 q11 -11 11 -26.5t-11 -26.5t-26.5 -11t-26.5 11l-53 52l-52 -52q-11 -11 -26.5 -11t-26.5 11t-11 26.5t11 26.5l52 52l-52 52q-11 11 -11 26.5t11 26.5t26.5 11t26.5 -11l52 -52l53 52q11 11 26.5 11t26.5 -11t11 -26.5t-11 -26.5z" />
<glyph unicode="&#xf2;" d="M729 566q31 0 53 -22t22 -53v-251q0 -32 -22 -54t-53 -22h-252q-31 0 -53 22t-22 54v251q0 31 22 53t53 22h252zM477 516q-10 0 -17.5 -7.5t-7.5 -17.5v-251q0 -11 7.5 -18.5t17.5 -7.5h252q10 0 17.5 7.5t7.5 18.5v251q0 10 -7.5 17.5t-17.5 7.5h-252zM658 363l52 -52 q11 -11 11 -26.5t-11 -26.5t-26.5 -11t-26.5 11l-53 52l-52 -52q-11 -11 -26.5 -11t-26.5 11t-11 26.5t11 26.5l52 52l-52 52q-11 11 -11 26.5t11 26.5t26.5 11t26.5 -11l52 -52l53 52q11 11 26.5 11t26.5 -11t11 -26.5t-11 -26.5z" />
<glyph unicode="&#xf3;" d="M729 566q31 0 53 -22t22 -53v-251q0 -32 -22 -54t-53 -22h-252q-31 0 -53 22t-22 54v251q0 31 22 53t53 22h252zM477 516q-10 0 -17.5 -7.5t-7.5 -17.5v-251q0 -11 7.5 -18.5t17.5 -7.5h252q10 0 17.5 7.5t7.5 18.5v251q0 10 -7.5 17.5t-17.5 7.5h-252zM658 363l52 -52 q11 -11 11 -26.5t-11 -26.5t-26.5 -11t-26.5 11l-53 52l-52 -52q-11 -11 -26.5 -11t-26.5 11t-11 26.5t11 26.5l52 52l-52 52q-11 11 -11 26.5t11 26.5t26.5 11t26.5 -11l52 -52l53 52q11 11 26.5 11t26.5 -11t11 -26.5t-11 -26.5z" />
<glyph unicode="&#xf4;" d="M729 566q31 0 53 -22t22 -53v-251q0 -32 -22 -54t-53 -22h-252q-31 0 -53 22t-22 54v251q0 31 22 53t53 22h252zM477 516q-10 0 -17.5 -7.5t-7.5 -17.5v-251q0 -11 7.5 -18.5t17.5 -7.5h252q10 0 17.5 7.5t7.5 18.5v251q0 10 -7.5 17.5t-17.5 7.5h-252zM658 363l52 -52 q11 -11 11 -26.5t-11 -26.5t-26.5 -11t-26.5 11l-53 52l-52 -52q-11 -11 -26.5 -11t-26.5 11t-11 26.5t11 26.5l52 52l-52 52q-11 11 -11 26.5t11 26.5t26.5 11t26.5 -11l52 -52l53 52q11 11 26.5 11t26.5 -11t11 -26.5t-11 -26.5z" />
<glyph unicode="&#xf5;" d="M729 566q31 0 53 -22t22 -53v-251q0 -32 -22 -54t-53 -22h-252q-31 0 -53 22t-22 54v251q0 31 22 53t53 22h252zM477 516q-10 0 -17.5 -7.5t-7.5 -17.5v-251q0 -11 7.5 -18.5t17.5 -7.5h252q10 0 17.5 7.5t7.5 18.5v251q0 10 -7.5 17.5t-17.5 7.5h-252zM658 363l52 -52 q11 -11 11 -26.5t-11 -26.5t-26.5 -11t-26.5 11l-53 52l-52 -52q-11 -11 -26.5 -11t-26.5 11t-11 26.5t11 26.5l52 52l-52 52q-11 11 -11 26.5t11 26.5t26.5 11t26.5 -11l52 -52l53 52q11 11 26.5 11t26.5 -11t11 -26.5t-11 -26.5z" />
<glyph unicode="&#xf6;" d="M729 566q31 0 53 -22t22 -53v-251q0 -32 -22 -54t-53 -22h-252q-31 0 -53 22t-22 54v251q0 31 22 53t53 22h252zM477 516q-10 0 -17.5 -7.5t-7.5 -17.5v-251q0 -11 7.5 -18.5t17.5 -7.5h252q10 0 17.5 7.5t7.5 18.5v251q0 10 -7.5 17.5t-17.5 7.5h-252zM658 363l52 -52 q11 -11 11 -26.5t-11 -26.5t-26.5 -11t-26.5 11l-53 52l-52 -52q-11 -11 -26.5 -11t-26.5 11t-11 26.5t11 26.5l52 52l-52 52q-11 11 -11 26.5t11 26.5t26.5 11t26.5 -11l52 -52l53 52q11 11 26.5 11t26.5 -11t11 -26.5t-11 -26.5z" />
<glyph unicode="&#xf7;" d="M450 400q5 -2 9 -3t9 -2q-20 32 -30.5 70.5t-10.5 78.5v58h-100q0 -19 3.5 -48t16.5 -59t37.5 -56t65.5 -39zM680 376l-27 90l75 59h-94l-31 90l-31 -90h-95l76 -59l-28 -90l78 54zM715 362q-18 -23 -40 -38t-47 -20v-180q32 -2 59.5 -8.5t47.5 -16t31.5 -22.5t11.5 -27 h-351q0 14 11.5 27t32 22.5t48 16t59.5 8.5v180q-25 5 -47 20t-40 38q-10 2 -21.5 5.5t-26.5 8.5q-48 15 -76.5 45.5t-43 65t-18.5 67t-4 52.5v15q0 4 1 6h125v25h351v-25h125v-6q0 -3 0.5 -6.5t0.5 -8.5q0 -20 -4 -52.5t-18.5 -67t-43 -65t-76.5 -45.5q-15 -5 -26 -8.5 t-21 -5.5zM755 400q41 13 65.5 39t37 56t16.5 59t4 48h-100v-58q0 -40 -10.5 -78.5t-30.5 -70.5q5 1 9 2t9 3z" />
<glyph unicode="&#xf8;" d="M602 677q67 0 126.5 -25.5t104 -70t70 -104t25.5 -126.5q0 -68 -25.5 -127.5t-70 -103.5t-104 -70t-126.5 -26q-68 0 -127 26t-103.5 70t-70 103.5t-25.5 127.5q0 67 25.5 126.5t70 104t103.5 70t127 25.5zM602 100q52 0 98 19.5t80 53.5t53.5 80t19.5 98t-19.5 97.5 t-53.5 79.5t-80 54t-98 20t-97.5 -20t-79.5 -54t-54 -79.5t-20 -97.5t20 -98t54 -80t79.5 -53.5t97.5 -19.5zM549 404l195 89l-89 -195l-195 -89zM567 386l-71 -142l142 71z" />
<glyph unicode="&#xf9;" d="M729 566q31 0 53 -22t22 -53v-251q0 -32 -22 -54t-53 -22h-252q-31 0 -53 22t-22 54v251q0 31 22 53t53 22h252zM477 516q-10 0 -17.5 -7.5t-7.5 -17.5v-251q0 -11 7.5 -18.5t17.5 -7.5h252q10 0 17.5 7.5t7.5 18.5v251q0 10 -7.5 17.5t-17.5 7.5h-252zM658 363l52 -52 q11 -11 11 -26.5t-11 -26.5t-26.5 -11t-26.5 11l-53 52l-52 -52q-11 -11 -26.5 -11t-26.5 11t-11 26.5t11 26.5l52 52l-52 52q-11 11 -11 26.5t11 26.5t26.5 11t26.5 -11l52 -52l53 52q11 11 26.5 11t26.5 -11t11 -26.5t-11 -26.5z" />
<glyph unicode="&#xfa;" d="M729 566q31 0 53 -22t22 -53v-251q0 -32 -22 -54t-53 -22h-252q-31 0 -53 22t-22 54v251q0 31 22 53t53 22h252zM477 516q-10 0 -17.5 -7.5t-7.5 -17.5v-251q0 -11 7.5 -18.5t17.5 -7.5h252q10 0 17.5 7.5t7.5 18.5v251q0 10 -7.5 17.5t-17.5 7.5h-252zM658 363l52 -52 q11 -11 11 -26.5t-11 -26.5t-26.5 -11t-26.5 11l-53 52l-52 -52q-11 -11 -26.5 -11t-26.5 11t-11 26.5t11 26.5l52 52l-52 52q-11 11 -11 26.5t11 26.5t26.5 11t26.5 -11l52 -52l53 52q11 11 26.5 11t26.5 -11t11 -26.5t-11 -26.5z" />
<glyph unicode="&#xfb;" d="M729 566q31 0 53 -22t22 -53v-251q0 -32 -22 -54t-53 -22h-252q-31 0 -53 22t-22 54v251q0 31 22 53t53 22h252zM477 516q-10 0 -17.5 -7.5t-7.5 -17.5v-251q0 -11 7.5 -18.5t17.5 -7.5h252q10 0 17.5 7.5t7.5 18.5v251q0 10 -7.5 17.5t-17.5 7.5h-252zM658 363l52 -52 q11 -11 11 -26.5t-11 -26.5t-26.5 -11t-26.5 11l-53 52l-52 -52q-11 -11 -26.5 -11t-26.5 11t-11 26.5t11 26.5l52 52l-52 52q-11 11 -11 26.5t11 26.5t26.5 11t26.5 -11l52 -52l53 52q11 11 26.5 11t26.5 -11t11 -26.5t-11 -26.5z" />
<glyph unicode="&#xfc;" d="M729 566q31 0 53 -22t22 -53v-251q0 -32 -22 -54t-53 -22h-252q-31 0 -53 22t-22 54v251q0 31 22 53t53 22h252zM477 516q-10 0 -17.5 -7.5t-7.5 -17.5v-251q0 -11 7.5 -18.5t17.5 -7.5h252q10 0 17.5 7.5t7.5 18.5v251q0 10 -7.5 17.5t-17.5 7.5h-252zM658 363l52 -52 q11 -11 11 -26.5t-11 -26.5t-26.5 -11t-26.5 11l-53 52l-52 -52q-11 -11 -26.5 -11t-26.5 11t-11 26.5t11 26.5l52 52l-52 52q-11 11 -11 26.5t11 26.5t26.5 11t26.5 -11l52 -52l53 52q11 11 26.5 11t26.5 -11t11 -26.5t-11 -26.5z" />
<glyph unicode="&#xfd;" d="M729 566q31 0 53 -22t22 -53v-251q0 -32 -22 -54t-53 -22h-252q-31 0 -53 22t-22 54v251q0 31 22 53t53 22h252zM477 516q-10 0 -17.5 -7.5t-7.5 -17.5v-251q0 -11 7.5 -18.5t17.5 -7.5h252q10 0 17.5 7.5t7.5 18.5v251q0 10 -7.5 17.5t-17.5 7.5h-252zM658 363l52 -52 q11 -11 11 -26.5t-11 -26.5t-26.5 -11t-26.5 11l-53 52l-52 -52q-11 -11 -26.5 -11t-26.5 11t-11 26.5t11 26.5l52 52l-52 52q-11 11 -11 26.5t11 26.5t26.5 11t26.5 -11l52 -52l53 52q11 11 26.5 11t26.5 -11t11 -26.5t-11 -26.5z" />
<glyph unicode="&#xfe;" d="M729 566q31 0 53 -22t22 -53v-251q0 -32 -22 -54t-53 -22h-252q-31 0 -53 22t-22 54v251q0 31 22 53t53 22h252zM477 516q-10 0 -17.5 -7.5t-7.5 -17.5v-251q0 -11 7.5 -18.5t17.5 -7.5h252q10 0 17.5 7.5t7.5 18.5v251q0 10 -7.5 17.5t-17.5 7.5h-252zM658 363l52 -52 q11 -11 11 -26.5t-11 -26.5t-26.5 -11t-26.5 11l-53 52l-52 -52q-11 -11 -26.5 -11t-26.5 11t-11 26.5t11 26.5l52 52l-52 52q-11 11 -11 26.5t11 26.5t26.5 11t26.5 -11l52 -52l53 52q11 11 26.5 11t26.5 -11t11 -26.5t-11 -26.5z" />
<glyph unicode="&#xff;" d="M729 566q31 0 53 -22t22 -53v-251q0 -32 -22 -54t-53 -22h-252q-31 0 -53 22t-22 54v251q0 31 22 53t53 22h252zM477 516q-10 0 -17.5 -7.5t-7.5 -17.5v-251q0 -11 7.5 -18.5t17.5 -7.5h252q10 0 17.5 7.5t7.5 18.5v251q0 10 -7.5 17.5t-17.5 7.5h-252zM658 363l52 -52 q11 -11 11 -26.5t-11 -26.5t-26.5 -11t-26.5 11l-53 52l-52 -52q-11 -11 -26.5 -11t-26.5 11t-11 26.5t11 26.5l52 52l-52 52q-11 11 -11 26.5t11 26.5t26.5 11t26.5 -11l52 -52l53 52q11 11 26.5 11t26.5 -11t11 -26.5t-11 -26.5z" />
<glyph unicode="&#x100;" d="M729 566q31 0 53 -22t22 -53v-251q0 -32 -22 -54t-53 -22h-252q-31 0 -53 22t-22 54v251q0 31 22 53t53 22h252zM477 516q-10 0 -17.5 -7.5t-7.5 -17.5v-251q0 -11 7.5 -18.5t17.5 -7.5h252q10 0 17.5 7.5t7.5 18.5v251q0 10 -7.5 17.5t-17.5 7.5h-252zM658 363l52 -52 q11 -11 11 -26.5t-11 -26.5t-26.5 -11t-26.5 11l-53 52l-52 -52q-11 -11 -26.5 -11t-26.5 11t-11 26.5t11 26.5l52 52l-52 52q-11 11 -11 26.5t11 26.5t26.5 11t26.5 -11l52 -52l53 52q11 11 26.5 11t26.5 -11t11 -26.5t-11 -26.5z" />
<glyph unicode="&#x101;" d="M729 566q31 0 53 -22t22 -53v-251q0 -32 -22 -54t-53 -22h-252q-31 0 -53 22t-22 54v251q0 31 22 53t53 22h252zM477 516q-10 0 -17.5 -7.5t-7.5 -17.5v-251q0 -11 7.5 -18.5t17.5 -7.5h252q10 0 17.5 7.5t7.5 18.5v251q0 10 -7.5 17.5t-17.5 7.5h-252zM658 363l52 -52 q11 -11 11 -26.5t-11 -26.5t-26.5 -11t-26.5 11l-53 52l-52 -52q-11 -11 -26.5 -11t-26.5 11t-11 26.5t11 26.5l52 52l-52 52q-11 11 -11 26.5t11 26.5t26.5 11t26.5 -11l52 -52l53 52q11 11 26.5 11t26.5 -11t11 -26.5t-11 -26.5z" />
<glyph unicode="&#x102;" d="M729 566q31 0 53 -22t22 -53v-251q0 -32 -22 -54t-53 -22h-252q-31 0 -53 22t-22 54v251q0 31 22 53t53 22h252zM477 516q-10 0 -17.5 -7.5t-7.5 -17.5v-251q0 -11 7.5 -18.5t17.5 -7.5h252q10 0 17.5 7.5t7.5 18.5v251q0 10 -7.5 17.5t-17.5 7.5h-252zM658 363l52 -52 q11 -11 11 -26.5t-11 -26.5t-26.5 -11t-26.5 11l-53 52l-52 -52q-11 -11 -26.5 -11t-26.5 11t-11 26.5t11 26.5l52 52l-52 52q-11 11 -11 26.5t11 26.5t26.5 11t26.5 -11l52 -52l53 52q11 11 26.5 11t26.5 -11t11 -26.5t-11 -26.5z" />
<glyph unicode="&#x103;" d="M729 566q31 0 53 -22t22 -53v-251q0 -32 -22 -54t-53 -22h-252q-31 0 -53 22t-22 54v251q0 31 22 53t53 22h252zM477 516q-10 0 -17.5 -7.5t-7.5 -17.5v-251q0 -11 7.5 -18.5t17.5 -7.5h252q10 0 17.5 7.5t7.5 18.5v251q0 10 -7.5 17.5t-17.5 7.5h-252zM658 363l52 -52 q11 -11 11 -26.5t-11 -26.5t-26.5 -11t-26.5 11l-53 52l-52 -52q-11 -11 -26.5 -11t-26.5 11t-11 26.5t11 26.5l52 52l-52 52q-11 11 -11 26.5t11 26.5t26.5 11t26.5 -11l52 -52l53 52q11 11 26.5 11t26.5 -11t11 -26.5t-11 -26.5z" />
<glyph unicode="&#x104;" d="M729 566q31 0 53 -22t22 -53v-251q0 -32 -22 -54t-53 -22h-252q-31 0 -53 22t-22 54v251q0 31 22 53t53 22h252zM477 516q-10 0 -17.5 -7.5t-7.5 -17.5v-251q0 -11 7.5 -18.5t17.5 -7.5h252q10 0 17.5 7.5t7.5 18.5v251q0 10 -7.5 17.5t-17.5 7.5h-252zM658 363l52 -52 q11 -11 11 -26.5t-11 -26.5t-26.5 -11t-26.5 11l-53 52l-52 -52q-11 -11 -26.5 -11t-26.5 11t-11 26.5t11 26.5l52 52l-52 52q-11 11 -11 26.5t11 26.5t26.5 11t26.5 -11l52 -52l53 52q11 11 26.5 11t26.5 -11t11 -26.5t-11 -26.5z" />
<glyph unicode="&#x105;" d="M729 566q31 0 53 -22t22 -53v-251q0 -32 -22 -54t-53 -22h-252q-31 0 -53 22t-22 54v251q0 31 22 53t53 22h252zM477 516q-10 0 -17.5 -7.5t-7.5 -17.5v-251q0 -11 7.5 -18.5t17.5 -7.5h252q10 0 17.5 7.5t7.5 18.5v251q0 10 -7.5 17.5t-17.5 7.5h-252zM658 363l52 -52 q11 -11 11 -26.5t-11 -26.5t-26.5 -11t-26.5 11l-53 52l-52 -52q-11 -11 -26.5 -11t-26.5 11t-11 26.5t11 26.5l52 52l-52 52q-11 11 -11 26.5t11 26.5t26.5 11t26.5 -11l52 -52l53 52q11 11 26.5 11t26.5 -11t11 -26.5t-11 -26.5z" />
<glyph unicode="&#x106;" d="M729 566q31 0 53 -22t22 -53v-251q0 -32 -22 -54t-53 -22h-252q-31 0 -53 22t-22 54v251q0 31 22 53t53 22h252zM477 516q-10 0 -17.5 -7.5t-7.5 -17.5v-251q0 -11 7.5 -18.5t17.5 -7.5h252q10 0 17.5 7.5t7.5 18.5v251q0 10 -7.5 17.5t-17.5 7.5h-252zM658 363l52 -52 q11 -11 11 -26.5t-11 -26.5t-26.5 -11t-26.5 11l-53 52l-52 -52q-11 -11 -26.5 -11t-26.5 11t-11 26.5t11 26.5l52 52l-52 52q-11 11 -11 26.5t11 26.5t26.5 11t26.5 -11l52 -52l53 52q11 11 26.5 11t26.5 -11t11 -26.5t-11 -26.5z" />
<glyph unicode="&#x107;" d="M729 566q31 0 53 -22t22 -53v-251q0 -32 -22 -54t-53 -22h-252q-31 0 -53 22t-22 54v251q0 31 22 53t53 22h252zM477 516q-10 0 -17.5 -7.5t-7.5 -17.5v-251q0 -11 7.5 -18.5t17.5 -7.5h252q10 0 17.5 7.5t7.5 18.5v251q0 10 -7.5 17.5t-17.5 7.5h-252zM658 363l52 -52 q11 -11 11 -26.5t-11 -26.5t-26.5 -11t-26.5 11l-53 52l-52 -52q-11 -11 -26.5 -11t-26.5 11t-11 26.5t11 26.5l52 52l-52 52q-11 11 -11 26.5t11 26.5t26.5 11t26.5 -11l52 -52l53 52q11 11 26.5 11t26.5 -11t11 -26.5t-11 -26.5z" />
<glyph unicode="&#x108;" d="M729 566q31 0 53 -22t22 -53v-251q0 -32 -22 -54t-53 -22h-252q-31 0 -53 22t-22 54v251q0 31 22 53t53 22h252zM477 516q-10 0 -17.5 -7.5t-7.5 -17.5v-251q0 -11 7.5 -18.5t17.5 -7.5h252q10 0 17.5 7.5t7.5 18.5v251q0 10 -7.5 17.5t-17.5 7.5h-252zM658 363l52 -52 q11 -11 11 -26.5t-11 -26.5t-26.5 -11t-26.5 11l-53 52l-52 -52q-11 -11 -26.5 -11t-26.5 11t-11 26.5t11 26.5l52 52l-52 52q-11 11 -11 26.5t11 26.5t26.5 11t26.5 -11l52 -52l53 52q11 11 26.5 11t26.5 -11t11 -26.5t-11 -26.5z" />
<glyph unicode="&#x109;" d="M729 566q31 0 53 -22t22 -53v-251q0 -32 -22 -54t-53 -22h-252q-31 0 -53 22t-22 54v251q0 31 22 53t53 22h252zM477 516q-10 0 -17.5 -7.5t-7.5 -17.5v-251q0 -11 7.5 -18.5t17.5 -7.5h252q10 0 17.5 7.5t7.5 18.5v251q0 10 -7.5 17.5t-17.5 7.5h-252zM658 363l52 -52 q11 -11 11 -26.5t-11 -26.5t-26.5 -11t-26.5 11l-53 52l-52 -52q-11 -11 -26.5 -11t-26.5 11t-11 26.5t11 26.5l52 52l-52 52q-11 11 -11 26.5t11 26.5t26.5 11t26.5 -11l52 -52l53 52q11 11 26.5 11t26.5 -11t11 -26.5t-11 -26.5z" />
<glyph unicode="&#x10a;" d="M729 566q31 0 53 -22t22 -53v-251q0 -32 -22 -54t-53 -22h-252q-31 0 -53 22t-22 54v251q0 31 22 53t53 22h252zM477 516q-10 0 -17.5 -7.5t-7.5 -17.5v-251q0 -11 7.5 -18.5t17.5 -7.5h252q10 0 17.5 7.5t7.5 18.5v251q0 10 -7.5 17.5t-17.5 7.5h-252zM658 363l52 -52 q11 -11 11 -26.5t-11 -26.5t-26.5 -11t-26.5 11l-53 52l-52 -52q-11 -11 -26.5 -11t-26.5 11t-11 26.5t11 26.5l52 52l-52 52q-11 11 -11 26.5t11 26.5t26.5 11t26.5 -11l52 -52l53 52q11 11 26.5 11t26.5 -11t11 -26.5t-11 -26.5z" />
<glyph unicode="&#x10b;" d="M729 566q31 0 53 -22t22 -53v-251q0 -32 -22 -54t-53 -22h-252q-31 0 -53 22t-22 54v251q0 31 22 53t53 22h252zM477 516q-10 0 -17.5 -7.5t-7.5 -17.5v-251q0 -11 7.5 -18.5t17.5 -7.5h252q10 0 17.5 7.5t7.5 18.5v251q0 10 -7.5 17.5t-17.5 7.5h-252zM658 363l52 -52 q11 -11 11 -26.5t-11 -26.5t-26.5 -11t-26.5 11l-53 52l-52 -52q-11 -11 -26.5 -11t-26.5 11t-11 26.5t11 26.5l52 52l-52 52q-11 11 -11 26.5t11 26.5t26.5 11t26.5 -11l52 -52l53 52q11 11 26.5 11t26.5 -11t11 -26.5t-11 -26.5z" />
<glyph unicode="&#x10c;" d="M729 566q31 0 53 -22t22 -53v-251q0 -32 -22 -54t-53 -22h-252q-31 0 -53 22t-22 54v251q0 31 22 53t53 22h252zM477 516q-10 0 -17.5 -7.5t-7.5 -17.5v-251q0 -11 7.5 -18.5t17.5 -7.5h252q10 0 17.5 7.5t7.5 18.5v251q0 10 -7.5 17.5t-17.5 7.5h-252zM658 363l52 -52 q11 -11 11 -26.5t-11 -26.5t-26.5 -11t-26.5 11l-53 52l-52 -52q-11 -11 -26.5 -11t-26.5 11t-11 26.5t11 26.5l52 52l-52 52q-11 11 -11 26.5t11 26.5t26.5 11t26.5 -11l52 -52l53 52q11 11 26.5 11t26.5 -11t11 -26.5t-11 -26.5z" />
<glyph unicode="&#x10d;" d="M729 566q31 0 53 -22t22 -53v-251q0 -32 -22 -54t-53 -22h-252q-31 0 -53 22t-22 54v251q0 31 22 53t53 22h252zM477 516q-10 0 -17.5 -7.5t-7.5 -17.5v-251q0 -11 7.5 -18.5t17.5 -7.5h252q10 0 17.5 7.5t7.5 18.5v251q0 10 -7.5 17.5t-17.5 7.5h-252zM658 363l52 -52 q11 -11 11 -26.5t-11 -26.5t-26.5 -11t-26.5 11l-53 52l-52 -52q-11 -11 -26.5 -11t-26.5 11t-11 26.5t11 26.5l52 52l-52 52q-11 11 -11 26.5t11 26.5t26.5 11t26.5 -11l52 -52l53 52q11 11 26.5 11t26.5 -11t11 -26.5t-11 -26.5z" />
<glyph unicode="&#x10e;" d="M729 566q31 0 53 -22t22 -53v-251q0 -32 -22 -54t-53 -22h-252q-31 0 -53 22t-22 54v251q0 31 22 53t53 22h252zM477 516q-10 0 -17.5 -7.5t-7.5 -17.5v-251q0 -11 7.5 -18.5t17.5 -7.5h252q10 0 17.5 7.5t7.5 18.5v251q0 10 -7.5 17.5t-17.5 7.5h-252zM658 363l52 -52 q11 -11 11 -26.5t-11 -26.5t-26.5 -11t-26.5 11l-53 52l-52 -52q-11 -11 -26.5 -11t-26.5 11t-11 26.5t11 26.5l52 52l-52 52q-11 11 -11 26.5t11 26.5t26.5 11t26.5 -11l52 -52l53 52q11 11 26.5 11t26.5 -11t11 -26.5t-11 -26.5z" />
<glyph unicode="&#x10f;" d="M729 566q31 0 53 -22t22 -53v-251q0 -32 -22 -54t-53 -22h-252q-31 0 -53 22t-22 54v251q0 31 22 53t53 22h252zM477 516q-10 0 -17.5 -7.5t-7.5 -17.5v-251q0 -11 7.5 -18.5t17.5 -7.5h252q10 0 17.5 7.5t7.5 18.5v251q0 10 -7.5 17.5t-17.5 7.5h-252zM658 363l52 -52 q11 -11 11 -26.5t-11 -26.5t-26.5 -11t-26.5 11l-53 52l-52 -52q-11 -11 -26.5 -11t-26.5 11t-11 26.5t11 26.5l52 52l-52 52q-11 11 -11 26.5t11 26.5t26.5 11t26.5 -11l52 -52l53 52q11 11 26.5 11t26.5 -11t11 -26.5t-11 -26.5z" />
<glyph unicode="&#x110;" d="M729 566q31 0 53 -22t22 -53v-251q0 -32 -22 -54t-53 -22h-252q-31 0 -53 22t-22 54v251q0 31 22 53t53 22h252zM477 516q-10 0 -17.5 -7.5t-7.5 -17.5v-251q0 -11 7.5 -18.5t17.5 -7.5h252q10 0 17.5 7.5t7.5 18.5v251q0 10 -7.5 17.5t-17.5 7.5h-252zM658 363l52 -52 q11 -11 11 -26.5t-11 -26.5t-26.5 -11t-26.5 11l-53 52l-52 -52q-11 -11 -26.5 -11t-26.5 11t-11 26.5t11 26.5l52 52l-52 52q-11 11 -11 26.5t11 26.5t26.5 11t26.5 -11l52 -52l53 52q11 11 26.5 11t26.5 -11t11 -26.5t-11 -26.5z" />
<glyph unicode="&#x111;" d="M729 566q31 0 53 -22t22 -53v-251q0 -32 -22 -54t-53 -22h-252q-31 0 -53 22t-22 54v251q0 31 22 53t53 22h252zM477 516q-10 0 -17.5 -7.5t-7.5 -17.5v-251q0 -11 7.5 -18.5t17.5 -7.5h252q10 0 17.5 7.5t7.5 18.5v251q0 10 -7.5 17.5t-17.5 7.5h-252zM658 363l52 -52 q11 -11 11 -26.5t-11 -26.5t-26.5 -11t-26.5 11l-53 52l-52 -52q-11 -11 -26.5 -11t-26.5 11t-11 26.5t11 26.5l52 52l-52 52q-11 11 -11 26.5t11 26.5t26.5 11t26.5 -11l52 -52l53 52q11 11 26.5 11t26.5 -11t11 -26.5t-11 -26.5z" />
<glyph unicode="&#x112;" d="M729 566q31 0 53 -22t22 -53v-251q0 -32 -22 -54t-53 -22h-252q-31 0 -53 22t-22 54v251q0 31 22 53t53 22h252zM477 516q-10 0 -17.5 -7.5t-7.5 -17.5v-251q0 -11 7.5 -18.5t17.5 -7.5h252q10 0 17.5 7.5t7.5 18.5v251q0 10 -7.5 17.5t-17.5 7.5h-252zM658 363l52 -52 q11 -11 11 -26.5t-11 -26.5t-26.5 -11t-26.5 11l-53 52l-52 -52q-11 -11 -26.5 -11t-26.5 11t-11 26.5t11 26.5l52 52l-52 52q-11 11 -11 26.5t11 26.5t26.5 11t26.5 -11l52 -52l53 52q11 11 26.5 11t26.5 -11t11 -26.5t-11 -26.5z" />
<glyph unicode="&#x113;" d="M729 566q31 0 53 -22t22 -53v-251q0 -32 -22 -54t-53 -22h-252q-31 0 -53 22t-22 54v251q0 31 22 53t53 22h252zM477 516q-10 0 -17.5 -7.5t-7.5 -17.5v-251q0 -11 7.5 -18.5t17.5 -7.5h252q10 0 17.5 7.5t7.5 18.5v251q0 10 -7.5 17.5t-17.5 7.5h-252zM658 363l52 -52 q11 -11 11 -26.5t-11 -26.5t-26.5 -11t-26.5 11l-53 52l-52 -52q-11 -11 -26.5 -11t-26.5 11t-11 26.5t11 26.5l52 52l-52 52q-11 11 -11 26.5t11 26.5t26.5 11t26.5 -11l52 -52l53 52q11 11 26.5 11t26.5 -11t11 -26.5t-11 -26.5z" />
<glyph unicode="&#x114;" d="M729 566q31 0 53 -22t22 -53v-251q0 -32 -22 -54t-53 -22h-252q-31 0 -53 22t-22 54v251q0 31 22 53t53 22h252zM477 516q-10 0 -17.5 -7.5t-7.5 -17.5v-251q0 -11 7.5 -18.5t17.5 -7.5h252q10 0 17.5 7.5t7.5 18.5v251q0 10 -7.5 17.5t-17.5 7.5h-252zM658 363l52 -52 q11 -11 11 -26.5t-11 -26.5t-26.5 -11t-26.5 11l-53 52l-52 -52q-11 -11 -26.5 -11t-26.5 11t-11 26.5t11 26.5l52 52l-52 52q-11 11 -11 26.5t11 26.5t26.5 11t26.5 -11l52 -52l53 52q11 11 26.5 11t26.5 -11t11 -26.5t-11 -26.5z" />
<glyph unicode="&#x115;" d="M729 566q31 0 53 -22t22 -53v-251q0 -32 -22 -54t-53 -22h-252q-31 0 -53 22t-22 54v251q0 31 22 53t53 22h252zM477 516q-10 0 -17.5 -7.5t-7.5 -17.5v-251q0 -11 7.5 -18.5t17.5 -7.5h252q10 0 17.5 7.5t7.5 18.5v251q0 10 -7.5 17.5t-17.5 7.5h-252zM658 363l52 -52 q11 -11 11 -26.5t-11 -26.5t-26.5 -11t-26.5 11l-53 52l-52 -52q-11 -11 -26.5 -11t-26.5 11t-11 26.5t11 26.5l52 52l-52 52q-11 11 -11 26.5t11 26.5t26.5 11t26.5 -11l52 -52l53 52q11 11 26.5 11t26.5 -11t11 -26.5t-11 -26.5z" />
<glyph unicode="&#x116;" d="M729 566q31 0 53 -22t22 -53v-251q0 -32 -22 -54t-53 -22h-252q-31 0 -53 22t-22 54v251q0 31 22 53t53 22h252zM477 516q-10 0 -17.5 -7.5t-7.5 -17.5v-251q0 -11 7.5 -18.5t17.5 -7.5h252q10 0 17.5 7.5t7.5 18.5v251q0 10 -7.5 17.5t-17.5 7.5h-252zM658 363l52 -52 q11 -11 11 -26.5t-11 -26.5t-26.5 -11t-26.5 11l-53 52l-52 -52q-11 -11 -26.5 -11t-26.5 11t-11 26.5t11 26.5l52 52l-52 52q-11 11 -11 26.5t11 26.5t26.5 11t26.5 -11l52 -52l53 52q11 11 26.5 11t26.5 -11t11 -26.5t-11 -26.5z" />
<glyph unicode="&#x117;" d="M729 566q31 0 53 -22t22 -53v-251q0 -32 -22 -54t-53 -22h-252q-31 0 -53 22t-22 54v251q0 31 22 53t53 22h252zM477 516q-10 0 -17.5 -7.5t-7.5 -17.5v-251q0 -11 7.5 -18.5t17.5 -7.5h252q10 0 17.5 7.5t7.5 18.5v251q0 10 -7.5 17.5t-17.5 7.5h-252zM658 363l52 -52 q11 -11 11 -26.5t-11 -26.5t-26.5 -11t-26.5 11l-53 52l-52 -52q-11 -11 -26.5 -11t-26.5 11t-11 26.5t11 26.5l52 52l-52 52q-11 11 -11 26.5t11 26.5t26.5 11t26.5 -11l52 -52l53 52q11 11 26.5 11t26.5 -11t11 -26.5t-11 -26.5z" />
<glyph unicode="&#x118;" d="M729 566q31 0 53 -22t22 -53v-251q0 -32 -22 -54t-53 -22h-252q-31 0 -53 22t-22 54v251q0 31 22 53t53 22h252zM477 516q-10 0 -17.5 -7.5t-7.5 -17.5v-251q0 -11 7.5 -18.5t17.5 -7.5h252q10 0 17.5 7.5t7.5 18.5v251q0 10 -7.5 17.5t-17.5 7.5h-252zM658 363l52 -52 q11 -11 11 -26.5t-11 -26.5t-26.5 -11t-26.5 11l-53 52l-52 -52q-11 -11 -26.5 -11t-26.5 11t-11 26.5t11 26.5l52 52l-52 52q-11 11 -11 26.5t11 26.5t26.5 11t26.5 -11l52 -52l53 52q11 11 26.5 11t26.5 -11t11 -26.5t-11 -26.5z" />
<glyph unicode="&#x119;" d="M729 566q31 0 53 -22t22 -53v-251q0 -32 -22 -54t-53 -22h-252q-31 0 -53 22t-22 54v251q0 31 22 53t53 22h252zM477 516q-10 0 -17.5 -7.5t-7.5 -17.5v-251q0 -11 7.5 -18.5t17.5 -7.5h252q10 0 17.5 7.5t7.5 18.5v251q0 10 -7.5 17.5t-17.5 7.5h-252zM658 363l52 -52 q11 -11 11 -26.5t-11 -26.5t-26.5 -11t-26.5 11l-53 52l-52 -52q-11 -11 -26.5 -11t-26.5 11t-11 26.5t11 26.5l52 52l-52 52q-11 11 -11 26.5t11 26.5t26.5 11t26.5 -11l52 -52l53 52q11 11 26.5 11t26.5 -11t11 -26.5t-11 -26.5z" />
<glyph unicode="&#x11a;" d="M729 566q31 0 53 -22t22 -53v-251q0 -32 -22 -54t-53 -22h-252q-31 0 -53 22t-22 54v251q0 31 22 53t53 22h252zM477 516q-10 0 -17.5 -7.5t-7.5 -17.5v-251q0 -11 7.5 -18.5t17.5 -7.5h252q10 0 17.5 7.5t7.5 18.5v251q0 10 -7.5 17.5t-17.5 7.5h-252zM658 363l52 -52 q11 -11 11 -26.5t-11 -26.5t-26.5 -11t-26.5 11l-53 52l-52 -52q-11 -11 -26.5 -11t-26.5 11t-11 26.5t11 26.5l52 52l-52 52q-11 11 -11 26.5t11 26.5t26.5 11t26.5 -11l52 -52l53 52q11 11 26.5 11t26.5 -11t11 -26.5t-11 -26.5z" />
<glyph unicode="&#x11b;" d="M729 566q31 0 53 -22t22 -53v-251q0 -32 -22 -54t-53 -22h-252q-31 0 -53 22t-22 54v251q0 31 22 53t53 22h252zM477 516q-10 0 -17.5 -7.5t-7.5 -17.5v-251q0 -11 7.5 -18.5t17.5 -7.5h252q10 0 17.5 7.5t7.5 18.5v251q0 10 -7.5 17.5t-17.5 7.5h-252zM658 363l52 -52 q11 -11 11 -26.5t-11 -26.5t-26.5 -11t-26.5 11l-53 52l-52 -52q-11 -11 -26.5 -11t-26.5 11t-11 26.5t11 26.5l52 52l-52 52q-11 11 -11 26.5t11 26.5t26.5 11t26.5 -11l52 -52l53 52q11 11 26.5 11t26.5 -11t11 -26.5t-11 -26.5z" />
<glyph unicode="&#x11c;" d="M729 566q31 0 53 -22t22 -53v-251q0 -32 -22 -54t-53 -22h-252q-31 0 -53 22t-22 54v251q0 31 22 53t53 22h252zM477 516q-10 0 -17.5 -7.5t-7.5 -17.5v-251q0 -11 7.5 -18.5t17.5 -7.5h252q10 0 17.5 7.5t7.5 18.5v251q0 10 -7.5 17.5t-17.5 7.5h-252zM658 363l52 -52 q11 -11 11 -26.5t-11 -26.5t-26.5 -11t-26.5 11l-53 52l-52 -52q-11 -11 -26.5 -11t-26.5 11t-11 26.5t11 26.5l52 52l-52 52q-11 11 -11 26.5t11 26.5t26.5 11t26.5 -11l52 -52l53 52q11 11 26.5 11t26.5 -11t11 -26.5t-11 -26.5z" />
<glyph unicode="&#x11d;" d="M729 566q31 0 53 -22t22 -53v-251q0 -32 -22 -54t-53 -22h-252q-31 0 -53 22t-22 54v251q0 31 22 53t53 22h252zM477 516q-10 0 -17.5 -7.5t-7.5 -17.5v-251q0 -11 7.5 -18.5t17.5 -7.5h252q10 0 17.5 7.5t7.5 18.5v251q0 10 -7.5 17.5t-17.5 7.5h-252zM658 363l52 -52 q11 -11 11 -26.5t-11 -26.5t-26.5 -11t-26.5 11l-53 52l-52 -52q-11 -11 -26.5 -11t-26.5 11t-11 26.5t11 26.5l52 52l-52 52q-11 11 -11 26.5t11 26.5t26.5 11t26.5 -11l52 -52l53 52q11 11 26.5 11t26.5 -11t11 -26.5t-11 -26.5z" />
<glyph unicode="&#x11e;" d="M729 566q31 0 53 -22t22 -53v-251q0 -32 -22 -54t-53 -22h-252q-31 0 -53 22t-22 54v251q0 31 22 53t53 22h252zM477 516q-10 0 -17.5 -7.5t-7.5 -17.5v-251q0 -11 7.5 -18.5t17.5 -7.5h252q10 0 17.5 7.5t7.5 18.5v251q0 10 -7.5 17.5t-17.5 7.5h-252zM658 363l52 -52 q11 -11 11 -26.5t-11 -26.5t-26.5 -11t-26.5 11l-53 52l-52 -52q-11 -11 -26.5 -11t-26.5 11t-11 26.5t11 26.5l52 52l-52 52q-11 11 -11 26.5t11 26.5t26.5 11t26.5 -11l52 -52l53 52q11 11 26.5 11t26.5 -11t11 -26.5t-11 -26.5z" />
<glyph unicode="&#x11f;" d="M729 566q31 0 53 -22t22 -53v-251q0 -32 -22 -54t-53 -22h-252q-31 0 -53 22t-22 54v251q0 31 22 53t53 22h252zM477 516q-10 0 -17.5 -7.5t-7.5 -17.5v-251q0 -11 7.5 -18.5t17.5 -7.5h252q10 0 17.5 7.5t7.5 18.5v251q0 10 -7.5 17.5t-17.5 7.5h-252zM658 363l52 -52 q11 -11 11 -26.5t-11 -26.5t-26.5 -11t-26.5 11l-53 52l-52 -52q-11 -11 -26.5 -11t-26.5 11t-11 26.5t11 26.5l52 52l-52 52q-11 11 -11 26.5t11 26.5t26.5 11t26.5 -11l52 -52l53 52q11 11 26.5 11t26.5 -11t11 -26.5t-11 -26.5z" />
<glyph unicode="&#x120;" d="M729 566q31 0 53 -22t22 -53v-251q0 -32 -22 -54t-53 -22h-252q-31 0 -53 22t-22 54v251q0 31 22 53t53 22h252zM477 516q-10 0 -17.5 -7.5t-7.5 -17.5v-251q0 -11 7.5 -18.5t17.5 -7.5h252q10 0 17.5 7.5t7.5 18.5v251q0 10 -7.5 17.5t-17.5 7.5h-252zM658 363l52 -52 q11 -11 11 -26.5t-11 -26.5t-26.5 -11t-26.5 11l-53 52l-52 -52q-11 -11 -26.5 -11t-26.5 11t-11 26.5t11 26.5l52 52l-52 52q-11 11 -11 26.5t11 26.5t26.5 11t26.5 -11l52 -52l53 52q11 11 26.5 11t26.5 -11t11 -26.5t-11 -26.5z" />
<glyph unicode="&#x121;" d="M729 566q31 0 53 -22t22 -53v-251q0 -32 -22 -54t-53 -22h-252q-31 0 -53 22t-22 54v251q0 31 22 53t53 22h252zM477 516q-10 0 -17.5 -7.5t-7.5 -17.5v-251q0 -11 7.5 -18.5t17.5 -7.5h252q10 0 17.5 7.5t7.5 18.5v251q0 10 -7.5 17.5t-17.5 7.5h-252zM658 363l52 -52 q11 -11 11 -26.5t-11 -26.5t-26.5 -11t-26.5 11l-53 52l-52 -52q-11 -11 -26.5 -11t-26.5 11t-11 26.5t11 26.5l52 52l-52 52q-11 11 -11 26.5t11 26.5t26.5 11t26.5 -11l52 -52l53 52q11 11 26.5 11t26.5 -11t11 -26.5t-11 -26.5z" />
<glyph unicode="&#x122;" d="M729 566q31 0 53 -22t22 -53v-251q0 -32 -22 -54t-53 -22h-252q-31 0 -53 22t-22 54v251q0 31 22 53t53 22h252zM477 516q-10 0 -17.5 -7.5t-7.5 -17.5v-251q0 -11 7.5 -18.5t17.5 -7.5h252q10 0 17.5 7.5t7.5 18.5v251q0 10 -7.5 17.5t-17.5 7.5h-252zM658 363l52 -52 q11 -11 11 -26.5t-11 -26.5t-26.5 -11t-26.5 11l-53 52l-52 -52q-11 -11 -26.5 -11t-26.5 11t-11 26.5t11 26.5l52 52l-52 52q-11 11 -11 26.5t11 26.5t26.5 11t26.5 -11l52 -52l53 52q11 11 26.5 11t26.5 -11t11 -26.5t-11 -26.5z" />
<glyph unicode="&#x123;" d="M729 566q31 0 53 -22t22 -53v-251q0 -32 -22 -54t-53 -22h-252q-31 0 -53 22t-22 54v251q0 31 22 53t53 22h252zM477 516q-10 0 -17.5 -7.5t-7.5 -17.5v-251q0 -11 7.5 -18.5t17.5 -7.5h252q10 0 17.5 7.5t7.5 18.5v251q0 10 -7.5 17.5t-17.5 7.5h-252zM658 363l52 -52 q11 -11 11 -26.5t-11 -26.5t-26.5 -11t-26.5 11l-53 52l-52 -52q-11 -11 -26.5 -11t-26.5 11t-11 26.5t11 26.5l52 52l-52 52q-11 11 -11 26.5t11 26.5t26.5 11t26.5 -11l52 -52l53 52q11 11 26.5 11t26.5 -11t11 -26.5t-11 -26.5z" />
<glyph unicode="&#x124;" d="M729 566q31 0 53 -22t22 -53v-251q0 -32 -22 -54t-53 -22h-252q-31 0 -53 22t-22 54v251q0 31 22 53t53 22h252zM477 516q-10 0 -17.5 -7.5t-7.5 -17.5v-251q0 -11 7.5 -18.5t17.5 -7.5h252q10 0 17.5 7.5t7.5 18.5v251q0 10 -7.5 17.5t-17.5 7.5h-252zM658 363l52 -52 q11 -11 11 -26.5t-11 -26.5t-26.5 -11t-26.5 11l-53 52l-52 -52q-11 -11 -26.5 -11t-26.5 11t-11 26.5t11 26.5l52 52l-52 52q-11 11 -11 26.5t11 26.5t26.5 11t26.5 -11l52 -52l53 52q11 11 26.5 11t26.5 -11t11 -26.5t-11 -26.5z" />
<glyph unicode="&#x125;" d="M729 566q31 0 53 -22t22 -53v-251q0 -32 -22 -54t-53 -22h-252q-31 0 -53 22t-22 54v251q0 31 22 53t53 22h252zM477 516q-10 0 -17.5 -7.5t-7.5 -17.5v-251q0 -11 7.5 -18.5t17.5 -7.5h252q10 0 17.5 7.5t7.5 18.5v251q0 10 -7.5 17.5t-17.5 7.5h-252zM658 363l52 -52 q11 -11 11 -26.5t-11 -26.5t-26.5 -11t-26.5 11l-53 52l-52 -52q-11 -11 -26.5 -11t-26.5 11t-11 26.5t11 26.5l52 52l-52 52q-11 11 -11 26.5t11 26.5t26.5 11t26.5 -11l52 -52l53 52q11 11 26.5 11t26.5 -11t11 -26.5t-11 -26.5z" />
<glyph unicode="&#x126;" d="M729 566q31 0 53 -22t22 -53v-251q0 -32 -22 -54t-53 -22h-252q-31 0 -53 22t-22 54v251q0 31 22 53t53 22h252zM477 516q-10 0 -17.5 -7.5t-7.5 -17.5v-251q0 -11 7.5 -18.5t17.5 -7.5h252q10 0 17.5 7.5t7.5 18.5v251q0 10 -7.5 17.5t-17.5 7.5h-252zM658 363l52 -52 q11 -11 11 -26.5t-11 -26.5t-26.5 -11t-26.5 11l-53 52l-52 -52q-11 -11 -26.5 -11t-26.5 11t-11 26.5t11 26.5l52 52l-52 52q-11 11 -11 26.5t11 26.5t26.5 11t26.5 -11l52 -52l53 52q11 11 26.5 11t26.5 -11t11 -26.5t-11 -26.5z" />
<glyph unicode="&#x127;" d="M729 566q31 0 53 -22t22 -53v-251q0 -32 -22 -54t-53 -22h-252q-31 0 -53 22t-22 54v251q0 31 22 53t53 22h252zM477 516q-10 0 -17.5 -7.5t-7.5 -17.5v-251q0 -11 7.5 -18.5t17.5 -7.5h252q10 0 17.5 7.5t7.5 18.5v251q0 10 -7.5 17.5t-17.5 7.5h-252zM658 363l52 -52 q11 -11 11 -26.5t-11 -26.5t-26.5 -11t-26.5 11l-53 52l-52 -52q-11 -11 -26.5 -11t-26.5 11t-11 26.5t11 26.5l52 52l-52 52q-11 11 -11 26.5t11 26.5t26.5 11t26.5 -11l52 -52l53 52q11 11 26.5 11t26.5 -11t11 -26.5t-11 -26.5z" />
<glyph unicode="&#x128;" d="M729 566q31 0 53 -22t22 -53v-251q0 -32 -22 -54t-53 -22h-252q-31 0 -53 22t-22 54v251q0 31 22 53t53 22h252zM477 516q-10 0 -17.5 -7.5t-7.5 -17.5v-251q0 -11 7.5 -18.5t17.5 -7.5h252q10 0 17.5 7.5t7.5 18.5v251q0 10 -7.5 17.5t-17.5 7.5h-252zM658 363l52 -52 q11 -11 11 -26.5t-11 -26.5t-26.5 -11t-26.5 11l-53 52l-52 -52q-11 -11 -26.5 -11t-26.5 11t-11 26.5t11 26.5l52 52l-52 52q-11 11 -11 26.5t11 26.5t26.5 11t26.5 -11l52 -52l53 52q11 11 26.5 11t26.5 -11t11 -26.5t-11 -26.5z" />
<glyph unicode="&#x129;" d="M729 566q31 0 53 -22t22 -53v-251q0 -32 -22 -54t-53 -22h-252q-31 0 -53 22t-22 54v251q0 31 22 53t53 22h252zM477 516q-10 0 -17.5 -7.5t-7.5 -17.5v-251q0 -11 7.5 -18.5t17.5 -7.5h252q10 0 17.5 7.5t7.5 18.5v251q0 10 -7.5 17.5t-17.5 7.5h-252zM658 363l52 -52 q11 -11 11 -26.5t-11 -26.5t-26.5 -11t-26.5 11l-53 52l-52 -52q-11 -11 -26.5 -11t-26.5 11t-11 26.5t11 26.5l52 52l-52 52q-11 11 -11 26.5t11 26.5t26.5 11t26.5 -11l52 -52l53 52q11 11 26.5 11t26.5 -11t11 -26.5t-11 -26.5z" />
<glyph unicode="&#x12a;" d="M729 566q31 0 53 -22t22 -53v-251q0 -32 -22 -54t-53 -22h-252q-31 0 -53 22t-22 54v251q0 31 22 53t53 22h252zM477 516q-10 0 -17.5 -7.5t-7.5 -17.5v-251q0 -11 7.5 -18.5t17.5 -7.5h252q10 0 17.5 7.5t7.5 18.5v251q0 10 -7.5 17.5t-17.5 7.5h-252zM658 363l52 -52 q11 -11 11 -26.5t-11 -26.5t-26.5 -11t-26.5 11l-53 52l-52 -52q-11 -11 -26.5 -11t-26.5 11t-11 26.5t11 26.5l52 52l-52 52q-11 11 -11 26.5t11 26.5t26.5 11t26.5 -11l52 -52l53 52q11 11 26.5 11t26.5 -11t11 -26.5t-11 -26.5z" />
<glyph unicode="&#x12b;" d="M729 566q31 0 53 -22t22 -53v-251q0 -32 -22 -54t-53 -22h-252q-31 0 -53 22t-22 54v251q0 31 22 53t53 22h252zM477 516q-10 0 -17.5 -7.5t-7.5 -17.5v-251q0 -11 7.5 -18.5t17.5 -7.5h252q10 0 17.5 7.5t7.5 18.5v251q0 10 -7.5 17.5t-17.5 7.5h-252zM658 363l52 -52 q11 -11 11 -26.5t-11 -26.5t-26.5 -11t-26.5 11l-53 52l-52 -52q-11 -11 -26.5 -11t-26.5 11t-11 26.5t11 26.5l52 52l-52 52q-11 11 -11 26.5t11 26.5t26.5 11t26.5 -11l52 -52l53 52q11 11 26.5 11t26.5 -11t11 -26.5t-11 -26.5z" />
<glyph unicode="&#x12c;" d="M729 566q31 0 53 -22t22 -53v-251q0 -32 -22 -54t-53 -22h-252q-31 0 -53 22t-22 54v251q0 31 22 53t53 22h252zM477 516q-10 0 -17.5 -7.5t-7.5 -17.5v-251q0 -11 7.5 -18.5t17.5 -7.5h252q10 0 17.5 7.5t7.5 18.5v251q0 10 -7.5 17.5t-17.5 7.5h-252zM658 363l52 -52 q11 -11 11 -26.5t-11 -26.5t-26.5 -11t-26.5 11l-53 52l-52 -52q-11 -11 -26.5 -11t-26.5 11t-11 26.5t11 26.5l52 52l-52 52q-11 11 -11 26.5t11 26.5t26.5 11t26.5 -11l52 -52l53 52q11 11 26.5 11t26.5 -11t11 -26.5t-11 -26.5z" />
<glyph unicode="&#x12d;" d="M729 566q31 0 53 -22t22 -53v-251q0 -32 -22 -54t-53 -22h-252q-31 0 -53 22t-22 54v251q0 31 22 53t53 22h252zM477 516q-10 0 -17.5 -7.5t-7.5 -17.5v-251q0 -11 7.5 -18.5t17.5 -7.5h252q10 0 17.5 7.5t7.5 18.5v251q0 10 -7.5 17.5t-17.5 7.5h-252zM658 363l52 -52 q11 -11 11 -26.5t-11 -26.5t-26.5 -11t-26.5 11l-53 52l-52 -52q-11 -11 -26.5 -11t-26.5 11t-11 26.5t11 26.5l52 52l-52 52q-11 11 -11 26.5t11 26.5t26.5 11t26.5 -11l52 -52l53 52q11 11 26.5 11t26.5 -11t11 -26.5t-11 -26.5z" />
<glyph unicode="&#x12e;" d="M729 566q31 0 53 -22t22 -53v-251q0 -32 -22 -54t-53 -22h-252q-31 0 -53 22t-22 54v251q0 31 22 53t53 22h252zM477 516q-10 0 -17.5 -7.5t-7.5 -17.5v-251q0 -11 7.5 -18.5t17.5 -7.5h252q10 0 17.5 7.5t7.5 18.5v251q0 10 -7.5 17.5t-17.5 7.5h-252zM658 363l52 -52 q11 -11 11 -26.5t-11 -26.5t-26.5 -11t-26.5 11l-53 52l-52 -52q-11 -11 -26.5 -11t-26.5 11t-11 26.5t11 26.5l52 52l-52 52q-11 11 -11 26.5t11 26.5t26.5 11t26.5 -11l52 -52l53 52q11 11 26.5 11t26.5 -11t11 -26.5t-11 -26.5z" />
<glyph unicode="&#x12f;" d="M729 566q31 0 53 -22t22 -53v-251q0 -32 -22 -54t-53 -22h-252q-31 0 -53 22t-22 54v251q0 31 22 53t53 22h252zM477 516q-10 0 -17.5 -7.5t-7.5 -17.5v-251q0 -11 7.5 -18.5t17.5 -7.5h252q10 0 17.5 7.5t7.5 18.5v251q0 10 -7.5 17.5t-17.5 7.5h-252zM658 363l52 -52 q11 -11 11 -26.5t-11 -26.5t-26.5 -11t-26.5 11l-53 52l-52 -52q-11 -11 -26.5 -11t-26.5 11t-11 26.5t11 26.5l52 52l-52 52q-11 11 -11 26.5t11 26.5t26.5 11t26.5 -11l52 -52l53 52q11 11 26.5 11t26.5 -11t11 -26.5t-11 -26.5z" />
<glyph unicode="&#x130;" d="M729 566q31 0 53 -22t22 -53v-251q0 -32 -22 -54t-53 -22h-252q-31 0 -53 22t-22 54v251q0 31 22 53t53 22h252zM477 516q-10 0 -17.5 -7.5t-7.5 -17.5v-251q0 -11 7.5 -18.5t17.5 -7.5h252q10 0 17.5 7.5t7.5 18.5v251q0 10 -7.5 17.5t-17.5 7.5h-252zM658 363l52 -52 q11 -11 11 -26.5t-11 -26.5t-26.5 -11t-26.5 11l-53 52l-52 -52q-11 -11 -26.5 -11t-26.5 11t-11 26.5t11 26.5l52 52l-52 52q-11 11 -11 26.5t11 26.5t26.5 11t26.5 -11l52 -52l53 52q11 11 26.5 11t26.5 -11t11 -26.5t-11 -26.5z" />
<glyph unicode="&#x131;" d="M729 566q31 0 53 -22t22 -53v-251q0 -32 -22 -54t-53 -22h-252q-31 0 -53 22t-22 54v251q0 31 22 53t53 22h252zM477 516q-10 0 -17.5 -7.5t-7.5 -17.5v-251q0 -11 7.5 -18.5t17.5 -7.5h252q10 0 17.5 7.5t7.5 18.5v251q0 10 -7.5 17.5t-17.5 7.5h-252zM658 363l52 -52 q11 -11 11 -26.5t-11 -26.5t-26.5 -11t-26.5 11l-53 52l-52 -52q-11 -11 -26.5 -11t-26.5 11t-11 26.5t11 26.5l52 52l-52 52q-11 11 -11 26.5t11 26.5t26.5 11t26.5 -11l52 -52l53 52q11 11 26.5 11t26.5 -11t11 -26.5t-11 -26.5z" />
<glyph unicode="&#x132;" d="M729 566q31 0 53 -22t22 -53v-251q0 -32 -22 -54t-53 -22h-252q-31 0 -53 22t-22 54v251q0 31 22 53t53 22h252zM477 516q-10 0 -17.5 -7.5t-7.5 -17.5v-251q0 -11 7.5 -18.5t17.5 -7.5h252q10 0 17.5 7.5t7.5 18.5v251q0 10 -7.5 17.5t-17.5 7.5h-252zM658 363l52 -52 q11 -11 11 -26.5t-11 -26.5t-26.5 -11t-26.5 11l-53 52l-52 -52q-11 -11 -26.5 -11t-26.5 11t-11 26.5t11 26.5l52 52l-52 52q-11 11 -11 26.5t11 26.5t26.5 11t26.5 -11l52 -52l53 52q11 11 26.5 11t26.5 -11t11 -26.5t-11 -26.5z" />
<glyph unicode="&#x133;" d="M729 566q31 0 53 -22t22 -53v-251q0 -32 -22 -54t-53 -22h-252q-31 0 -53 22t-22 54v251q0 31 22 53t53 22h252zM477 516q-10 0 -17.5 -7.5t-7.5 -17.5v-251q0 -11 7.5 -18.5t17.5 -7.5h252q10 0 17.5 7.5t7.5 18.5v251q0 10 -7.5 17.5t-17.5 7.5h-252zM658 363l52 -52 q11 -11 11 -26.5t-11 -26.5t-26.5 -11t-26.5 11l-53 52l-52 -52q-11 -11 -26.5 -11t-26.5 11t-11 26.5t11 26.5l52 52l-52 52q-11 11 -11 26.5t11 26.5t26.5 11t26.5 -11l52 -52l53 52q11 11 26.5 11t26.5 -11t11 -26.5t-11 -26.5z" />
<glyph unicode="&#x134;" d="M729 566q31 0 53 -22t22 -53v-251q0 -32 -22 -54t-53 -22h-252q-31 0 -53 22t-22 54v251q0 31 22 53t53 22h252zM477 516q-10 0 -17.5 -7.5t-7.5 -17.5v-251q0 -11 7.5 -18.5t17.5 -7.5h252q10 0 17.5 7.5t7.5 18.5v251q0 10 -7.5 17.5t-17.5 7.5h-252zM658 363l52 -52 q11 -11 11 -26.5t-11 -26.5t-26.5 -11t-26.5 11l-53 52l-52 -52q-11 -11 -26.5 -11t-26.5 11t-11 26.5t11 26.5l52 52l-52 52q-11 11 -11 26.5t11 26.5t26.5 11t26.5 -11l52 -52l53 52q11 11 26.5 11t26.5 -11t11 -26.5t-11 -26.5z" />
<glyph unicode="&#x135;" d="M729 566q31 0 53 -22t22 -53v-251q0 -32 -22 -54t-53 -22h-252q-31 0 -53 22t-22 54v251q0 31 22 53t53 22h252zM477 516q-10 0 -17.5 -7.5t-7.5 -17.5v-251q0 -11 7.5 -18.5t17.5 -7.5h252q10 0 17.5 7.5t7.5 18.5v251q0 10 -7.5 17.5t-17.5 7.5h-252zM658 363l52 -52 q11 -11 11 -26.5t-11 -26.5t-26.5 -11t-26.5 11l-53 52l-52 -52q-11 -11 -26.5 -11t-26.5 11t-11 26.5t11 26.5l52 52l-52 52q-11 11 -11 26.5t11 26.5t26.5 11t26.5 -11l52 -52l53 52q11 11 26.5 11t26.5 -11t11 -26.5t-11 -26.5z" />
<glyph unicode="&#x136;" d="M729 566q31 0 53 -22t22 -53v-251q0 -32 -22 -54t-53 -22h-252q-31 0 -53 22t-22 54v251q0 31 22 53t53 22h252zM477 516q-10 0 -17.5 -7.5t-7.5 -17.5v-251q0 -11 7.5 -18.5t17.5 -7.5h252q10 0 17.5 7.5t7.5 18.5v251q0 10 -7.5 17.5t-17.5 7.5h-252zM658 363l52 -52 q11 -11 11 -26.5t-11 -26.5t-26.5 -11t-26.5 11l-53 52l-52 -52q-11 -11 -26.5 -11t-26.5 11t-11 26.5t11 26.5l52 52l-52 52q-11 11 -11 26.5t11 26.5t26.5 11t26.5 -11l52 -52l53 52q11 11 26.5 11t26.5 -11t11 -26.5t-11 -26.5z" />
<glyph unicode="&#x137;" d="M729 566q31 0 53 -22t22 -53v-251q0 -32 -22 -54t-53 -22h-252q-31 0 -53 22t-22 54v251q0 31 22 53t53 22h252zM477 516q-10 0 -17.5 -7.5t-7.5 -17.5v-251q0 -11 7.5 -18.5t17.5 -7.5h252q10 0 17.5 7.5t7.5 18.5v251q0 10 -7.5 17.5t-17.5 7.5h-252zM658 363l52 -52 q11 -11 11 -26.5t-11 -26.5t-26.5 -11t-26.5 11l-53 52l-52 -52q-11 -11 -26.5 -11t-26.5 11t-11 26.5t11 26.5l52 52l-52 52q-11 11 -11 26.5t11 26.5t26.5 11t26.5 -11l52 -52l53 52q11 11 26.5 11t26.5 -11t11 -26.5t-11 -26.5z" />
<glyph unicode="&#x138;" d="M729 566q31 0 53 -22t22 -53v-251q0 -32 -22 -54t-53 -22h-252q-31 0 -53 22t-22 54v251q0 31 22 53t53 22h252zM477 516q-10 0 -17.5 -7.5t-7.5 -17.5v-251q0 -11 7.5 -18.5t17.5 -7.5h252q10 0 17.5 7.5t7.5 18.5v251q0 10 -7.5 17.5t-17.5 7.5h-252zM658 363l52 -52 q11 -11 11 -26.5t-11 -26.5t-26.5 -11t-26.5 11l-53 52l-52 -52q-11 -11 -26.5 -11t-26.5 11t-11 26.5t11 26.5l52 52l-52 52q-11 11 -11 26.5t11 26.5t26.5 11t26.5 -11l52 -52l53 52q11 11 26.5 11t26.5 -11t11 -26.5t-11 -26.5z" />
<glyph unicode="&#x139;" d="M729 566q31 0 53 -22t22 -53v-251q0 -32 -22 -54t-53 -22h-252q-31 0 -53 22t-22 54v251q0 31 22 53t53 22h252zM477 516q-10 0 -17.5 -7.5t-7.5 -17.5v-251q0 -11 7.5 -18.5t17.5 -7.5h252q10 0 17.5 7.5t7.5 18.5v251q0 10 -7.5 17.5t-17.5 7.5h-252zM658 363l52 -52 q11 -11 11 -26.5t-11 -26.5t-26.5 -11t-26.5 11l-53 52l-52 -52q-11 -11 -26.5 -11t-26.5 11t-11 26.5t11 26.5l52 52l-52 52q-11 11 -11 26.5t11 26.5t26.5 11t26.5 -11l52 -52l53 52q11 11 26.5 11t26.5 -11t11 -26.5t-11 -26.5z" />
<glyph unicode="&#x13a;" d="M729 566q31 0 53 -22t22 -53v-251q0 -32 -22 -54t-53 -22h-252q-31 0 -53 22t-22 54v251q0 31 22 53t53 22h252zM477 516q-10 0 -17.5 -7.5t-7.5 -17.5v-251q0 -11 7.5 -18.5t17.5 -7.5h252q10 0 17.5 7.5t7.5 18.5v251q0 10 -7.5 17.5t-17.5 7.5h-252zM658 363l52 -52 q11 -11 11 -26.5t-11 -26.5t-26.5 -11t-26.5 11l-53 52l-52 -52q-11 -11 -26.5 -11t-26.5 11t-11 26.5t11 26.5l52 52l-52 52q-11 11 -11 26.5t11 26.5t26.5 11t26.5 -11l52 -52l53 52q11 11 26.5 11t26.5 -11t11 -26.5t-11 -26.5z" />
<glyph unicode="&#x13b;" d="M729 566q31 0 53 -22t22 -53v-251q0 -32 -22 -54t-53 -22h-252q-31 0 -53 22t-22 54v251q0 31 22 53t53 22h252zM477 516q-10 0 -17.5 -7.5t-7.5 -17.5v-251q0 -11 7.5 -18.5t17.5 -7.5h252q10 0 17.5 7.5t7.5 18.5v251q0 10 -7.5 17.5t-17.5 7.5h-252zM658 363l52 -52 q11 -11 11 -26.5t-11 -26.5t-26.5 -11t-26.5 11l-53 52l-52 -52q-11 -11 -26.5 -11t-26.5 11t-11 26.5t11 26.5l52 52l-52 52q-11 11 -11 26.5t11 26.5t26.5 11t26.5 -11l52 -52l53 52q11 11 26.5 11t26.5 -11t11 -26.5t-11 -26.5z" />
<glyph unicode="&#x13c;" d="M729 566q31 0 53 -22t22 -53v-251q0 -32 -22 -54t-53 -22h-252q-31 0 -53 22t-22 54v251q0 31 22 53t53 22h252zM477 516q-10 0 -17.5 -7.5t-7.5 -17.5v-251q0 -11 7.5 -18.5t17.5 -7.5h252q10 0 17.5 7.5t7.5 18.5v251q0 10 -7.5 17.5t-17.5 7.5h-252zM658 363l52 -52 q11 -11 11 -26.5t-11 -26.5t-26.5 -11t-26.5 11l-53 52l-52 -52q-11 -11 -26.5 -11t-26.5 11t-11 26.5t11 26.5l52 52l-52 52q-11 11 -11 26.5t11 26.5t26.5 11t26.5 -11l52 -52l53 52q11 11 26.5 11t26.5 -11t11 -26.5t-11 -26.5z" />
<glyph unicode="&#x13d;" d="M729 566q31 0 53 -22t22 -53v-251q0 -32 -22 -54t-53 -22h-252q-31 0 -53 22t-22 54v251q0 31 22 53t53 22h252zM477 516q-10 0 -17.5 -7.5t-7.5 -17.5v-251q0 -11 7.5 -18.5t17.5 -7.5h252q10 0 17.5 7.5t7.5 18.5v251q0 10 -7.5 17.5t-17.5 7.5h-252zM658 363l52 -52 q11 -11 11 -26.5t-11 -26.5t-26.5 -11t-26.5 11l-53 52l-52 -52q-11 -11 -26.5 -11t-26.5 11t-11 26.5t11 26.5l52 52l-52 52q-11 11 -11 26.5t11 26.5t26.5 11t26.5 -11l52 -52l53 52q11 11 26.5 11t26.5 -11t11 -26.5t-11 -26.5z" />
<glyph unicode="&#x13e;" d="M729 566q31 0 53 -22t22 -53v-251q0 -32 -22 -54t-53 -22h-252q-31 0 -53 22t-22 54v251q0 31 22 53t53 22h252zM477 516q-10 0 -17.5 -7.5t-7.5 -17.5v-251q0 -11 7.5 -18.5t17.5 -7.5h252q10 0 17.5 7.5t7.5 18.5v251q0 10 -7.5 17.5t-17.5 7.5h-252zM658 363l52 -52 q11 -11 11 -26.5t-11 -26.5t-26.5 -11t-26.5 11l-53 52l-52 -52q-11 -11 -26.5 -11t-26.5 11t-11 26.5t11 26.5l52 52l-52 52q-11 11 -11 26.5t11 26.5t26.5 11t26.5 -11l52 -52l53 52q11 11 26.5 11t26.5 -11t11 -26.5t-11 -26.5z" />
<glyph unicode="&#x13f;" d="M729 566q31 0 53 -22t22 -53v-251q0 -32 -22 -54t-53 -22h-252q-31 0 -53 22t-22 54v251q0 31 22 53t53 22h252zM477 516q-10 0 -17.5 -7.5t-7.5 -17.5v-251q0 -11 7.5 -18.5t17.5 -7.5h252q10 0 17.5 7.5t7.5 18.5v251q0 10 -7.5 17.5t-17.5 7.5h-252zM658 363l52 -52 q11 -11 11 -26.5t-11 -26.5t-26.5 -11t-26.5 11l-53 52l-52 -52q-11 -11 -26.5 -11t-26.5 11t-11 26.5t11 26.5l52 52l-52 52q-11 11 -11 26.5t11 26.5t26.5 11t26.5 -11l52 -52l53 52q11 11 26.5 11t26.5 -11t11 -26.5t-11 -26.5z" />
<glyph unicode="&#x140;" d="M729 566q31 0 53 -22t22 -53v-251q0 -32 -22 -54t-53 -22h-252q-31 0 -53 22t-22 54v251q0 31 22 53t53 22h252zM477 516q-10 0 -17.5 -7.5t-7.5 -17.5v-251q0 -11 7.5 -18.5t17.5 -7.5h252q10 0 17.5 7.5t7.5 18.5v251q0 10 -7.5 17.5t-17.5 7.5h-252zM658 363l52 -52 q11 -11 11 -26.5t-11 -26.5t-26.5 -11t-26.5 11l-53 52l-52 -52q-11 -11 -26.5 -11t-26.5 11t-11 26.5t11 26.5l52 52l-52 52q-11 11 -11 26.5t11 26.5t26.5 11t26.5 -11l52 -52l53 52q11 11 26.5 11t26.5 -11t11 -26.5t-11 -26.5z" />
<glyph unicode="&#x141;" d="M729 566q31 0 53 -22t22 -53v-251q0 -32 -22 -54t-53 -22h-252q-31 0 -53 22t-22 54v251q0 31 22 53t53 22h252zM477 516q-10 0 -17.5 -7.5t-7.5 -17.5v-251q0 -11 7.5 -18.5t17.5 -7.5h252q10 0 17.5 7.5t7.5 18.5v251q0 10 -7.5 17.5t-17.5 7.5h-252zM658 363l52 -52 q11 -11 11 -26.5t-11 -26.5t-26.5 -11t-26.5 11l-53 52l-52 -52q-11 -11 -26.5 -11t-26.5 11t-11 26.5t11 26.5l52 52l-52 52q-11 11 -11 26.5t11 26.5t26.5 11t26.5 -11l52 -52l53 52q11 11 26.5 11t26.5 -11t11 -26.5t-11 -26.5z" />
<glyph unicode="&#x142;" d="M729 566q31 0 53 -22t22 -53v-251q0 -32 -22 -54t-53 -22h-252q-31 0 -53 22t-22 54v251q0 31 22 53t53 22h252zM477 516q-10 0 -17.5 -7.5t-7.5 -17.5v-251q0 -11 7.5 -18.5t17.5 -7.5h252q10 0 17.5 7.5t7.5 18.5v251q0 10 -7.5 17.5t-17.5 7.5h-252zM658 363l52 -52 q11 -11 11 -26.5t-11 -26.5t-26.5 -11t-26.5 11l-53 52l-52 -52q-11 -11 -26.5 -11t-26.5 11t-11 26.5t11 26.5l52 52l-52 52q-11 11 -11 26.5t11 26.5t26.5 11t26.5 -11l52 -52l53 52q11 11 26.5 11t26.5 -11t11 -26.5t-11 -26.5z" />
<glyph unicode="&#x143;" d="M729 566q31 0 53 -22t22 -53v-251q0 -32 -22 -54t-53 -22h-252q-31 0 -53 22t-22 54v251q0 31 22 53t53 22h252zM477 516q-10 0 -17.5 -7.5t-7.5 -17.5v-251q0 -11 7.5 -18.5t17.5 -7.5h252q10 0 17.5 7.5t7.5 18.5v251q0 10 -7.5 17.5t-17.5 7.5h-252zM658 363l52 -52 q11 -11 11 -26.5t-11 -26.5t-26.5 -11t-26.5 11l-53 52l-52 -52q-11 -11 -26.5 -11t-26.5 11t-11 26.5t11 26.5l52 52l-52 52q-11 11 -11 26.5t11 26.5t26.5 11t26.5 -11l52 -52l53 52q11 11 26.5 11t26.5 -11t11 -26.5t-11 -26.5z" />
<glyph unicode="&#x144;" d="M729 566q31 0 53 -22t22 -53v-251q0 -32 -22 -54t-53 -22h-252q-31 0 -53 22t-22 54v251q0 31 22 53t53 22h252zM477 516q-10 0 -17.5 -7.5t-7.5 -17.5v-251q0 -11 7.5 -18.5t17.5 -7.5h252q10 0 17.5 7.5t7.5 18.5v251q0 10 -7.5 17.5t-17.5 7.5h-252zM658 363l52 -52 q11 -11 11 -26.5t-11 -26.5t-26.5 -11t-26.5 11l-53 52l-52 -52q-11 -11 -26.5 -11t-26.5 11t-11 26.5t11 26.5l52 52l-52 52q-11 11 -11 26.5t11 26.5t26.5 11t26.5 -11l52 -52l53 52q11 11 26.5 11t26.5 -11t11 -26.5t-11 -26.5z" />
<glyph unicode="&#x145;" d="M729 566q31 0 53 -22t22 -53v-251q0 -32 -22 -54t-53 -22h-252q-31 0 -53 22t-22 54v251q0 31 22 53t53 22h252zM477 516q-10 0 -17.5 -7.5t-7.5 -17.5v-251q0 -11 7.5 -18.5t17.5 -7.5h252q10 0 17.5 7.5t7.5 18.5v251q0 10 -7.5 17.5t-17.5 7.5h-252zM658 363l52 -52 q11 -11 11 -26.5t-11 -26.5t-26.5 -11t-26.5 11l-53 52l-52 -52q-11 -11 -26.5 -11t-26.5 11t-11 26.5t11 26.5l52 52l-52 52q-11 11 -11 26.5t11 26.5t26.5 11t26.5 -11l52 -52l53 52q11 11 26.5 11t26.5 -11t11 -26.5t-11 -26.5z" />
<glyph unicode="&#x146;" d="M729 566q31 0 53 -22t22 -53v-251q0 -32 -22 -54t-53 -22h-252q-31 0 -53 22t-22 54v251q0 31 22 53t53 22h252zM477 516q-10 0 -17.5 -7.5t-7.5 -17.5v-251q0 -11 7.5 -18.5t17.5 -7.5h252q10 0 17.5 7.5t7.5 18.5v251q0 10 -7.5 17.5t-17.5 7.5h-252zM658 363l52 -52 q11 -11 11 -26.5t-11 -26.5t-26.5 -11t-26.5 11l-53 52l-52 -52q-11 -11 -26.5 -11t-26.5 11t-11 26.5t11 26.5l52 52l-52 52q-11 11 -11 26.5t11 26.5t26.5 11t26.5 -11l52 -52l53 52q11 11 26.5 11t26.5 -11t11 -26.5t-11 -26.5z" />
<glyph unicode="&#x147;" d="M729 566q31 0 53 -22t22 -53v-251q0 -32 -22 -54t-53 -22h-252q-31 0 -53 22t-22 54v251q0 31 22 53t53 22h252zM477 516q-10 0 -17.5 -7.5t-7.5 -17.5v-251q0 -11 7.5 -18.5t17.5 -7.5h252q10 0 17.5 7.5t7.5 18.5v251q0 10 -7.5 17.5t-17.5 7.5h-252zM658 363l52 -52 q11 -11 11 -26.5t-11 -26.5t-26.5 -11t-26.5 11l-53 52l-52 -52q-11 -11 -26.5 -11t-26.5 11t-11 26.5t11 26.5l52 52l-52 52q-11 11 -11 26.5t11 26.5t26.5 11t26.5 -11l52 -52l53 52q11 11 26.5 11t26.5 -11t11 -26.5t-11 -26.5z" />
<glyph unicode="&#x148;" d="M729 566q31 0 53 -22t22 -53v-251q0 -32 -22 -54t-53 -22h-252q-31 0 -53 22t-22 54v251q0 31 22 53t53 22h252zM477 516q-10 0 -17.5 -7.5t-7.5 -17.5v-251q0 -11 7.5 -18.5t17.5 -7.5h252q10 0 17.5 7.5t7.5 18.5v251q0 10 -7.5 17.5t-17.5 7.5h-252zM658 363l52 -52 q11 -11 11 -26.5t-11 -26.5t-26.5 -11t-26.5 11l-53 52l-52 -52q-11 -11 -26.5 -11t-26.5 11t-11 26.5t11 26.5l52 52l-52 52q-11 11 -11 26.5t11 26.5t26.5 11t26.5 -11l52 -52l53 52q11 11 26.5 11t26.5 -11t11 -26.5t-11 -26.5z" />
<glyph unicode="&#x149;" d="M729 566q31 0 53 -22t22 -53v-251q0 -32 -22 -54t-53 -22h-252q-31 0 -53 22t-22 54v251q0 31 22 53t53 22h252zM477 516q-10 0 -17.5 -7.5t-7.5 -17.5v-251q0 -11 7.5 -18.5t17.5 -7.5h252q10 0 17.5 7.5t7.5 18.5v251q0 10 -7.5 17.5t-17.5 7.5h-252zM658 363l52 -52 q11 -11 11 -26.5t-11 -26.5t-26.5 -11t-26.5 11l-53 52l-52 -52q-11 -11 -26.5 -11t-26.5 11t-11 26.5t11 26.5l52 52l-52 52q-11 11 -11 26.5t11 26.5t26.5 11t26.5 -11l52 -52l53 52q11 11 26.5 11t26.5 -11t11 -26.5t-11 -26.5z" />
<glyph unicode="&#x14a;" d="M729 566q31 0 53 -22t22 -53v-251q0 -32 -22 -54t-53 -22h-252q-31 0 -53 22t-22 54v251q0 31 22 53t53 22h252zM477 516q-10 0 -17.5 -7.5t-7.5 -17.5v-251q0 -11 7.5 -18.5t17.5 -7.5h252q10 0 17.5 7.5t7.5 18.5v251q0 10 -7.5 17.5t-17.5 7.5h-252zM658 363l52 -52 q11 -11 11 -26.5t-11 -26.5t-26.5 -11t-26.5 11l-53 52l-52 -52q-11 -11 -26.5 -11t-26.5 11t-11 26.5t11 26.5l52 52l-52 52q-11 11 -11 26.5t11 26.5t26.5 11t26.5 -11l52 -52l53 52q11 11 26.5 11t26.5 -11t11 -26.5t-11 -26.5z" />
<glyph unicode="&#x14b;" d="M729 566q31 0 53 -22t22 -53v-251q0 -32 -22 -54t-53 -22h-252q-31 0 -53 22t-22 54v251q0 31 22 53t53 22h252zM477 516q-10 0 -17.5 -7.5t-7.5 -17.5v-251q0 -11 7.5 -18.5t17.5 -7.5h252q10 0 17.5 7.5t7.5 18.5v251q0 10 -7.5 17.5t-17.5 7.5h-252zM658 363l52 -52 q11 -11 11 -26.5t-11 -26.5t-26.5 -11t-26.5 11l-53 52l-52 -52q-11 -11 -26.5 -11t-26.5 11t-11 26.5t11 26.5l52 52l-52 52q-11 11 -11 26.5t11 26.5t26.5 11t26.5 -11l52 -52l53 52q11 11 26.5 11t26.5 -11t11 -26.5t-11 -26.5z" />
<glyph unicode="&#x14c;" d="M729 566q31 0 53 -22t22 -53v-251q0 -32 -22 -54t-53 -22h-252q-31 0 -53 22t-22 54v251q0 31 22 53t53 22h252zM477 516q-10 0 -17.5 -7.5t-7.5 -17.5v-251q0 -11 7.5 -18.5t17.5 -7.5h252q10 0 17.5 7.5t7.5 18.5v251q0 10 -7.5 17.5t-17.5 7.5h-252zM658 363l52 -52 q11 -11 11 -26.5t-11 -26.5t-26.5 -11t-26.5 11l-53 52l-52 -52q-11 -11 -26.5 -11t-26.5 11t-11 26.5t11 26.5l52 52l-52 52q-11 11 -11 26.5t11 26.5t26.5 11t26.5 -11l52 -52l53 52q11 11 26.5 11t26.5 -11t11 -26.5t-11 -26.5z" />
<glyph unicode="&#x14d;" d="M729 566q31 0 53 -22t22 -53v-251q0 -32 -22 -54t-53 -22h-252q-31 0 -53 22t-22 54v251q0 31 22 53t53 22h252zM477 516q-10 0 -17.5 -7.5t-7.5 -17.5v-251q0 -11 7.5 -18.5t17.5 -7.5h252q10 0 17.5 7.5t7.5 18.5v251q0 10 -7.5 17.5t-17.5 7.5h-252zM658 363l52 -52 q11 -11 11 -26.5t-11 -26.5t-26.5 -11t-26.5 11l-53 52l-52 -52q-11 -11 -26.5 -11t-26.5 11t-11 26.5t11 26.5l52 52l-52 52q-11 11 -11 26.5t11 26.5t26.5 11t26.5 -11l52 -52l53 52q11 11 26.5 11t26.5 -11t11 -26.5t-11 -26.5z" />
<glyph unicode="&#x14e;" d="M729 566q31 0 53 -22t22 -53v-251q0 -32 -22 -54t-53 -22h-252q-31 0 -53 22t-22 54v251q0 31 22 53t53 22h252zM477 516q-10 0 -17.5 -7.5t-7.5 -17.5v-251q0 -11 7.5 -18.5t17.5 -7.5h252q10 0 17.5 7.5t7.5 18.5v251q0 10 -7.5 17.5t-17.5 7.5h-252zM658 363l52 -52 q11 -11 11 -26.5t-11 -26.5t-26.5 -11t-26.5 11l-53 52l-52 -52q-11 -11 -26.5 -11t-26.5 11t-11 26.5t11 26.5l52 52l-52 52q-11 11 -11 26.5t11 26.5t26.5 11t26.5 -11l52 -52l53 52q11 11 26.5 11t26.5 -11t11 -26.5t-11 -26.5z" />
<glyph unicode="&#x14f;" d="M729 566q31 0 53 -22t22 -53v-251q0 -32 -22 -54t-53 -22h-252q-31 0 -53 22t-22 54v251q0 31 22 53t53 22h252zM477 516q-10 0 -17.5 -7.5t-7.5 -17.5v-251q0 -11 7.5 -18.5t17.5 -7.5h252q10 0 17.5 7.5t7.5 18.5v251q0 10 -7.5 17.5t-17.5 7.5h-252zM658 363l52 -52 q11 -11 11 -26.5t-11 -26.5t-26.5 -11t-26.5 11l-53 52l-52 -52q-11 -11 -26.5 -11t-26.5 11t-11 26.5t11 26.5l52 52l-52 52q-11 11 -11 26.5t11 26.5t26.5 11t26.5 -11l52 -52l53 52q11 11 26.5 11t26.5 -11t11 -26.5t-11 -26.5z" />
<glyph unicode="&#x150;" d="M729 566q31 0 53 -22t22 -53v-251q0 -32 -22 -54t-53 -22h-252q-31 0 -53 22t-22 54v251q0 31 22 53t53 22h252zM477 516q-10 0 -17.5 -7.5t-7.5 -17.5v-251q0 -11 7.5 -18.5t17.5 -7.5h252q10 0 17.5 7.5t7.5 18.5v251q0 10 -7.5 17.5t-17.5 7.5h-252zM658 363l52 -52 q11 -11 11 -26.5t-11 -26.5t-26.5 -11t-26.5 11l-53 52l-52 -52q-11 -11 -26.5 -11t-26.5 11t-11 26.5t11 26.5l52 52l-52 52q-11 11 -11 26.5t11 26.5t26.5 11t26.5 -11l52 -52l53 52q11 11 26.5 11t26.5 -11t11 -26.5t-11 -26.5z" />
<glyph unicode="&#x151;" d="M729 566q31 0 53 -22t22 -53v-251q0 -32 -22 -54t-53 -22h-252q-31 0 -53 22t-22 54v251q0 31 22 53t53 22h252zM477 516q-10 0 -17.5 -7.5t-7.5 -17.5v-251q0 -11 7.5 -18.5t17.5 -7.5h252q10 0 17.5 7.5t7.5 18.5v251q0 10 -7.5 17.5t-17.5 7.5h-252zM658 363l52 -52 q11 -11 11 -26.5t-11 -26.5t-26.5 -11t-26.5 11l-53 52l-52 -52q-11 -11 -26.5 -11t-26.5 11t-11 26.5t11 26.5l52 52l-52 52q-11 11 -11 26.5t11 26.5t26.5 11t26.5 -11l52 -52l53 52q11 11 26.5 11t26.5 -11t11 -26.5t-11 -26.5z" />
<glyph unicode="&#x152;" d="M729 566q31 0 53 -22t22 -53v-251q0 -32 -22 -54t-53 -22h-252q-31 0 -53 22t-22 54v251q0 31 22 53t53 22h252zM477 516q-10 0 -17.5 -7.5t-7.5 -17.5v-251q0 -11 7.5 -18.5t17.5 -7.5h252q10 0 17.5 7.5t7.5 18.5v251q0 10 -7.5 17.5t-17.5 7.5h-252zM658 363l52 -52 q11 -11 11 -26.5t-11 -26.5t-26.5 -11t-26.5 11l-53 52l-52 -52q-11 -11 -26.5 -11t-26.5 11t-11 26.5t11 26.5l52 52l-52 52q-11 11 -11 26.5t11 26.5t26.5 11t26.5 -11l52 -52l53 52q11 11 26.5 11t26.5 -11t11 -26.5t-11 -26.5z" />
<glyph unicode="&#x153;" d="M729 566q31 0 53 -22t22 -53v-251q0 -32 -22 -54t-53 -22h-252q-31 0 -53 22t-22 54v251q0 31 22 53t53 22h252zM477 516q-10 0 -17.5 -7.5t-7.5 -17.5v-251q0 -11 7.5 -18.5t17.5 -7.5h252q10 0 17.5 7.5t7.5 18.5v251q0 10 -7.5 17.5t-17.5 7.5h-252zM658 363l52 -52 q11 -11 11 -26.5t-11 -26.5t-26.5 -11t-26.5 11l-53 52l-52 -52q-11 -11 -26.5 -11t-26.5 11t-11 26.5t11 26.5l52 52l-52 52q-11 11 -11 26.5t11 26.5t26.5 11t26.5 -11l52 -52l53 52q11 11 26.5 11t26.5 -11t11 -26.5t-11 -26.5z" />
<glyph unicode="&#x154;" d="M729 566q31 0 53 -22t22 -53v-251q0 -32 -22 -54t-53 -22h-252q-31 0 -53 22t-22 54v251q0 31 22 53t53 22h252zM477 516q-10 0 -17.5 -7.5t-7.5 -17.5v-251q0 -11 7.5 -18.5t17.5 -7.5h252q10 0 17.5 7.5t7.5 18.5v251q0 10 -7.5 17.5t-17.5 7.5h-252zM658 363l52 -52 q11 -11 11 -26.5t-11 -26.5t-26.5 -11t-26.5 11l-53 52l-52 -52q-11 -11 -26.5 -11t-26.5 11t-11 26.5t11 26.5l52 52l-52 52q-11 11 -11 26.5t11 26.5t26.5 11t26.5 -11l52 -52l53 52q11 11 26.5 11t26.5 -11t11 -26.5t-11 -26.5z" />
<glyph unicode="&#x155;" d="M729 566q31 0 53 -22t22 -53v-251q0 -32 -22 -54t-53 -22h-252q-31 0 -53 22t-22 54v251q0 31 22 53t53 22h252zM477 516q-10 0 -17.5 -7.5t-7.5 -17.5v-251q0 -11 7.5 -18.5t17.5 -7.5h252q10 0 17.5 7.5t7.5 18.5v251q0 10 -7.5 17.5t-17.5 7.5h-252zM658 363l52 -52 q11 -11 11 -26.5t-11 -26.5t-26.5 -11t-26.5 11l-53 52l-52 -52q-11 -11 -26.5 -11t-26.5 11t-11 26.5t11 26.5l52 52l-52 52q-11 11 -11 26.5t11 26.5t26.5 11t26.5 -11l52 -52l53 52q11 11 26.5 11t26.5 -11t11 -26.5t-11 -26.5z" />
<glyph unicode="&#x156;" d="M729 566q31 0 53 -22t22 -53v-251q0 -32 -22 -54t-53 -22h-252q-31 0 -53 22t-22 54v251q0 31 22 53t53 22h252zM477 516q-10 0 -17.5 -7.5t-7.5 -17.5v-251q0 -11 7.5 -18.5t17.5 -7.5h252q10 0 17.5 7.5t7.5 18.5v251q0 10 -7.5 17.5t-17.5 7.5h-252zM658 363l52 -52 q11 -11 11 -26.5t-11 -26.5t-26.5 -11t-26.5 11l-53 52l-52 -52q-11 -11 -26.5 -11t-26.5 11t-11 26.5t11 26.5l52 52l-52 52q-11 11 -11 26.5t11 26.5t26.5 11t26.5 -11l52 -52l53 52q11 11 26.5 11t26.5 -11t11 -26.5t-11 -26.5z" />
<glyph unicode="&#x157;" d="M729 566q31 0 53 -22t22 -53v-251q0 -32 -22 -54t-53 -22h-252q-31 0 -53 22t-22 54v251q0 31 22 53t53 22h252zM477 516q-10 0 -17.5 -7.5t-7.5 -17.5v-251q0 -11 7.5 -18.5t17.5 -7.5h252q10 0 17.5 7.5t7.5 18.5v251q0 10 -7.5 17.5t-17.5 7.5h-252zM658 363l52 -52 q11 -11 11 -26.5t-11 -26.5t-26.5 -11t-26.5 11l-53 52l-52 -52q-11 -11 -26.5 -11t-26.5 11t-11 26.5t11 26.5l52 52l-52 52q-11 11 -11 26.5t11 26.5t26.5 11t26.5 -11l52 -52l53 52q11 11 26.5 11t26.5 -11t11 -26.5t-11 -26.5z" />
<glyph unicode="&#x158;" d="M729 566q31 0 53 -22t22 -53v-251q0 -32 -22 -54t-53 -22h-252q-31 0 -53 22t-22 54v251q0 31 22 53t53 22h252zM477 516q-10 0 -17.5 -7.5t-7.5 -17.5v-251q0 -11 7.5 -18.5t17.5 -7.5h252q10 0 17.5 7.5t7.5 18.5v251q0 10 -7.5 17.5t-17.5 7.5h-252zM658 363l52 -52 q11 -11 11 -26.5t-11 -26.5t-26.5 -11t-26.5 11l-53 52l-52 -52q-11 -11 -26.5 -11t-26.5 11t-11 26.5t11 26.5l52 52l-52 52q-11 11 -11 26.5t11 26.5t26.5 11t26.5 -11l52 -52l53 52q11 11 26.5 11t26.5 -11t11 -26.5t-11 -26.5z" />
<glyph unicode="&#x159;" d="M729 566q31 0 53 -22t22 -53v-251q0 -32 -22 -54t-53 -22h-252q-31 0 -53 22t-22 54v251q0 31 22 53t53 22h252zM477 516q-10 0 -17.5 -7.5t-7.5 -17.5v-251q0 -11 7.5 -18.5t17.5 -7.5h252q10 0 17.5 7.5t7.5 18.5v251q0 10 -7.5 17.5t-17.5 7.5h-252zM658 363l52 -52 q11 -11 11 -26.5t-11 -26.5t-26.5 -11t-26.5 11l-53 52l-52 -52q-11 -11 -26.5 -11t-26.5 11t-11 26.5t11 26.5l52 52l-52 52q-11 11 -11 26.5t11 26.5t26.5 11t26.5 -11l52 -52l53 52q11 11 26.5 11t26.5 -11t11 -26.5t-11 -26.5z" />
<glyph unicode="&#x15a;" d="M729 566q31 0 53 -22t22 -53v-251q0 -32 -22 -54t-53 -22h-252q-31 0 -53 22t-22 54v251q0 31 22 53t53 22h252zM477 516q-10 0 -17.5 -7.5t-7.5 -17.5v-251q0 -11 7.5 -18.5t17.5 -7.5h252q10 0 17.5 7.5t7.5 18.5v251q0 10 -7.5 17.5t-17.5 7.5h-252zM658 363l52 -52 q11 -11 11 -26.5t-11 -26.5t-26.5 -11t-26.5 11l-53 52l-52 -52q-11 -11 -26.5 -11t-26.5 11t-11 26.5t11 26.5l52 52l-52 52q-11 11 -11 26.5t11 26.5t26.5 11t26.5 -11l52 -52l53 52q11 11 26.5 11t26.5 -11t11 -26.5t-11 -26.5z" />
<glyph unicode="&#x15b;" d="M729 566q31 0 53 -22t22 -53v-251q0 -32 -22 -54t-53 -22h-252q-31 0 -53 22t-22 54v251q0 31 22 53t53 22h252zM477 516q-10 0 -17.5 -7.5t-7.5 -17.5v-251q0 -11 7.5 -18.5t17.5 -7.5h252q10 0 17.5 7.5t7.5 18.5v251q0 10 -7.5 17.5t-17.5 7.5h-252zM658 363l52 -52 q11 -11 11 -26.5t-11 -26.5t-26.5 -11t-26.5 11l-53 52l-52 -52q-11 -11 -26.5 -11t-26.5 11t-11 26.5t11 26.5l52 52l-52 52q-11 11 -11 26.5t11 26.5t26.5 11t26.5 -11l52 -52l53 52q11 11 26.5 11t26.5 -11t11 -26.5t-11 -26.5z" />
<glyph unicode="&#x15c;" d="M729 566q31 0 53 -22t22 -53v-251q0 -32 -22 -54t-53 -22h-252q-31 0 -53 22t-22 54v251q0 31 22 53t53 22h252zM477 516q-10 0 -17.5 -7.5t-7.5 -17.5v-251q0 -11 7.5 -18.5t17.5 -7.5h252q10 0 17.5 7.5t7.5 18.5v251q0 10 -7.5 17.5t-17.5 7.5h-252zM658 363l52 -52 q11 -11 11 -26.5t-11 -26.5t-26.5 -11t-26.5 11l-53 52l-52 -52q-11 -11 -26.5 -11t-26.5 11t-11 26.5t11 26.5l52 52l-52 52q-11 11 -11 26.5t11 26.5t26.5 11t26.5 -11l52 -52l53 52q11 11 26.5 11t26.5 -11t11 -26.5t-11 -26.5z" />
<glyph unicode="&#x15d;" d="M729 566q31 0 53 -22t22 -53v-251q0 -32 -22 -54t-53 -22h-252q-31 0 -53 22t-22 54v251q0 31 22 53t53 22h252zM477 516q-10 0 -17.5 -7.5t-7.5 -17.5v-251q0 -11 7.5 -18.5t17.5 -7.5h252q10 0 17.5 7.5t7.5 18.5v251q0 10 -7.5 17.5t-17.5 7.5h-252zM658 363l52 -52 q11 -11 11 -26.5t-11 -26.5t-26.5 -11t-26.5 11l-53 52l-52 -52q-11 -11 -26.5 -11t-26.5 11t-11 26.5t11 26.5l52 52l-52 52q-11 11 -11 26.5t11 26.5t26.5 11t26.5 -11l52 -52l53 52q11 11 26.5 11t26.5 -11t11 -26.5t-11 -26.5z" />
<glyph unicode="&#x15e;" d="M729 566q31 0 53 -22t22 -53v-251q0 -32 -22 -54t-53 -22h-252q-31 0 -53 22t-22 54v251q0 31 22 53t53 22h252zM477 516q-10 0 -17.5 -7.5t-7.5 -17.5v-251q0 -11 7.5 -18.5t17.5 -7.5h252q10 0 17.5 7.5t7.5 18.5v251q0 10 -7.5 17.5t-17.5 7.5h-252zM658 363l52 -52 q11 -11 11 -26.5t-11 -26.5t-26.5 -11t-26.5 11l-53 52l-52 -52q-11 -11 -26.5 -11t-26.5 11t-11 26.5t11 26.5l52 52l-52 52q-11 11 -11 26.5t11 26.5t26.5 11t26.5 -11l52 -52l53 52q11 11 26.5 11t26.5 -11t11 -26.5t-11 -26.5z" />
<glyph unicode="&#x15f;" d="M729 566q31 0 53 -22t22 -53v-251q0 -32 -22 -54t-53 -22h-252q-31 0 -53 22t-22 54v251q0 31 22 53t53 22h252zM477 516q-10 0 -17.5 -7.5t-7.5 -17.5v-251q0 -11 7.5 -18.5t17.5 -7.5h252q10 0 17.5 7.5t7.5 18.5v251q0 10 -7.5 17.5t-17.5 7.5h-252zM658 363l52 -52 q11 -11 11 -26.5t-11 -26.5t-26.5 -11t-26.5 11l-53 52l-52 -52q-11 -11 -26.5 -11t-26.5 11t-11 26.5t11 26.5l52 52l-52 52q-11 11 -11 26.5t11 26.5t26.5 11t26.5 -11l52 -52l53 52q11 11 26.5 11t26.5 -11t11 -26.5t-11 -26.5z" />
<glyph unicode="&#x160;" d="M729 566q31 0 53 -22t22 -53v-251q0 -32 -22 -54t-53 -22h-252q-31 0 -53 22t-22 54v251q0 31 22 53t53 22h252zM477 516q-10 0 -17.5 -7.5t-7.5 -17.5v-251q0 -11 7.5 -18.5t17.5 -7.5h252q10 0 17.5 7.5t7.5 18.5v251q0 10 -7.5 17.5t-17.5 7.5h-252zM658 363l52 -52 q11 -11 11 -26.5t-11 -26.5t-26.5 -11t-26.5 11l-53 52l-52 -52q-11 -11 -26.5 -11t-26.5 11t-11 26.5t11 26.5l52 52l-52 52q-11 11 -11 26.5t11 26.5t26.5 11t26.5 -11l52 -52l53 52q11 11 26.5 11t26.5 -11t11 -26.5t-11 -26.5z" />
<glyph unicode="&#x161;" d="M729 566q31 0 53 -22t22 -53v-251q0 -32 -22 -54t-53 -22h-252q-31 0 -53 22t-22 54v251q0 31 22 53t53 22h252zM477 516q-10 0 -17.5 -7.5t-7.5 -17.5v-251q0 -11 7.5 -18.5t17.5 -7.5h252q10 0 17.5 7.5t7.5 18.5v251q0 10 -7.5 17.5t-17.5 7.5h-252zM658 363l52 -52 q11 -11 11 -26.5t-11 -26.5t-26.5 -11t-26.5 11l-53 52l-52 -52q-11 -11 -26.5 -11t-26.5 11t-11 26.5t11 26.5l52 52l-52 52q-11 11 -11 26.5t11 26.5t26.5 11t26.5 -11l52 -52l53 52q11 11 26.5 11t26.5 -11t11 -26.5t-11 -26.5z" />
<glyph unicode="&#x162;" d="M729 566q31 0 53 -22t22 -53v-251q0 -32 -22 -54t-53 -22h-252q-31 0 -53 22t-22 54v251q0 31 22 53t53 22h252zM477 516q-10 0 -17.5 -7.5t-7.5 -17.5v-251q0 -11 7.5 -18.5t17.5 -7.5h252q10 0 17.5 7.5t7.5 18.5v251q0 10 -7.5 17.5t-17.5 7.5h-252zM658 363l52 -52 q11 -11 11 -26.5t-11 -26.5t-26.5 -11t-26.5 11l-53 52l-52 -52q-11 -11 -26.5 -11t-26.5 11t-11 26.5t11 26.5l52 52l-52 52q-11 11 -11 26.5t11 26.5t26.5 11t26.5 -11l52 -52l53 52q11 11 26.5 11t26.5 -11t11 -26.5t-11 -26.5z" />
<glyph unicode="&#x163;" d="M729 566q31 0 53 -22t22 -53v-251q0 -32 -22 -54t-53 -22h-252q-31 0 -53 22t-22 54v251q0 31 22 53t53 22h252zM477 516q-10 0 -17.5 -7.5t-7.5 -17.5v-251q0 -11 7.5 -18.5t17.5 -7.5h252q10 0 17.5 7.5t7.5 18.5v251q0 10 -7.5 17.5t-17.5 7.5h-252zM658 363l52 -52 q11 -11 11 -26.5t-11 -26.5t-26.5 -11t-26.5 11l-53 52l-52 -52q-11 -11 -26.5 -11t-26.5 11t-11 26.5t11 26.5l52 52l-52 52q-11 11 -11 26.5t11 26.5t26.5 11t26.5 -11l52 -52l53 52q11 11 26.5 11t26.5 -11t11 -26.5t-11 -26.5z" />
<glyph unicode="&#x164;" d="M729 566q31 0 53 -22t22 -53v-251q0 -32 -22 -54t-53 -22h-252q-31 0 -53 22t-22 54v251q0 31 22 53t53 22h252zM477 516q-10 0 -17.5 -7.5t-7.5 -17.5v-251q0 -11 7.5 -18.5t17.5 -7.5h252q10 0 17.5 7.5t7.5 18.5v251q0 10 -7.5 17.5t-17.5 7.5h-252zM658 363l52 -52 q11 -11 11 -26.5t-11 -26.5t-26.5 -11t-26.5 11l-53 52l-52 -52q-11 -11 -26.5 -11t-26.5 11t-11 26.5t11 26.5l52 52l-52 52q-11 11 -11 26.5t11 26.5t26.5 11t26.5 -11l52 -52l53 52q11 11 26.5 11t26.5 -11t11 -26.5t-11 -26.5z" />
<glyph unicode="&#x165;" d="M729 566q31 0 53 -22t22 -53v-251q0 -32 -22 -54t-53 -22h-252q-31 0 -53 22t-22 54v251q0 31 22 53t53 22h252zM477 516q-10 0 -17.5 -7.5t-7.5 -17.5v-251q0 -11 7.5 -18.5t17.5 -7.5h252q10 0 17.5 7.5t7.5 18.5v251q0 10 -7.5 17.5t-17.5 7.5h-252zM658 363l52 -52 q11 -11 11 -26.5t-11 -26.5t-26.5 -11t-26.5 11l-53 52l-52 -52q-11 -11 -26.5 -11t-26.5 11t-11 26.5t11 26.5l52 52l-52 52q-11 11 -11 26.5t11 26.5t26.5 11t26.5 -11l52 -52l53 52q11 11 26.5 11t26.5 -11t11 -26.5t-11 -26.5z" />
<glyph unicode="&#x166;" d="M729 566q31 0 53 -22t22 -53v-251q0 -32 -22 -54t-53 -22h-252q-31 0 -53 22t-22 54v251q0 31 22 53t53 22h252zM477 516q-10 0 -17.5 -7.5t-7.5 -17.5v-251q0 -11 7.5 -18.5t17.5 -7.5h252q10 0 17.5 7.5t7.5 18.5v251q0 10 -7.5 17.5t-17.5 7.5h-252zM658 363l52 -52 q11 -11 11 -26.5t-11 -26.5t-26.5 -11t-26.5 11l-53 52l-52 -52q-11 -11 -26.5 -11t-26.5 11t-11 26.5t11 26.5l52 52l-52 52q-11 11 -11 26.5t11 26.5t26.5 11t26.5 -11l52 -52l53 52q11 11 26.5 11t26.5 -11t11 -26.5t-11 -26.5z" />
<glyph unicode="&#x167;" d="M729 566q31 0 53 -22t22 -53v-251q0 -32 -22 -54t-53 -22h-252q-31 0 -53 22t-22 54v251q0 31 22 53t53 22h252zM477 516q-10 0 -17.5 -7.5t-7.5 -17.5v-251q0 -11 7.5 -18.5t17.5 -7.5h252q10 0 17.5 7.5t7.5 18.5v251q0 10 -7.5 17.5t-17.5 7.5h-252zM658 363l52 -52 q11 -11 11 -26.5t-11 -26.5t-26.5 -11t-26.5 11l-53 52l-52 -52q-11 -11 -26.5 -11t-26.5 11t-11 26.5t11 26.5l52 52l-52 52q-11 11 -11 26.5t11 26.5t26.5 11t26.5 -11l52 -52l53 52q11 11 26.5 11t26.5 -11t11 -26.5t-11 -26.5z" />
<glyph unicode="&#x168;" d="M729 566q31 0 53 -22t22 -53v-251q0 -32 -22 -54t-53 -22h-252q-31 0 -53 22t-22 54v251q0 31 22 53t53 22h252zM477 516q-10 0 -17.5 -7.5t-7.5 -17.5v-251q0 -11 7.5 -18.5t17.5 -7.5h252q10 0 17.5 7.5t7.5 18.5v251q0 10 -7.5 17.5t-17.5 7.5h-252zM658 363l52 -52 q11 -11 11 -26.5t-11 -26.5t-26.5 -11t-26.5 11l-53 52l-52 -52q-11 -11 -26.5 -11t-26.5 11t-11 26.5t11 26.5l52 52l-52 52q-11 11 -11 26.5t11 26.5t26.5 11t26.5 -11l52 -52l53 52q11 11 26.5 11t26.5 -11t11 -26.5t-11 -26.5z" />
<glyph unicode="&#x169;" d="M729 566q31 0 53 -22t22 -53v-251q0 -32 -22 -54t-53 -22h-252q-31 0 -53 22t-22 54v251q0 31 22 53t53 22h252zM477 516q-10 0 -17.5 -7.5t-7.5 -17.5v-251q0 -11 7.5 -18.5t17.5 -7.5h252q10 0 17.5 7.5t7.5 18.5v251q0 10 -7.5 17.5t-17.5 7.5h-252zM658 363l52 -52 q11 -11 11 -26.5t-11 -26.5t-26.5 -11t-26.5 11l-53 52l-52 -52q-11 -11 -26.5 -11t-26.5 11t-11 26.5t11 26.5l52 52l-52 52q-11 11 -11 26.5t11 26.5t26.5 11t26.5 -11l52 -52l53 52q11 11 26.5 11t26.5 -11t11 -26.5t-11 -26.5z" />
<glyph unicode="&#x16a;" d="M729 566q31 0 53 -22t22 -53v-251q0 -32 -22 -54t-53 -22h-252q-31 0 -53 22t-22 54v251q0 31 22 53t53 22h252zM477 516q-10 0 -17.5 -7.5t-7.5 -17.5v-251q0 -11 7.5 -18.5t17.5 -7.5h252q10 0 17.5 7.5t7.5 18.5v251q0 10 -7.5 17.5t-17.5 7.5h-252zM658 363l52 -52 q11 -11 11 -26.5t-11 -26.5t-26.5 -11t-26.5 11l-53 52l-52 -52q-11 -11 -26.5 -11t-26.5 11t-11 26.5t11 26.5l52 52l-52 52q-11 11 -11 26.5t11 26.5t26.5 11t26.5 -11l52 -52l53 52q11 11 26.5 11t26.5 -11t11 -26.5t-11 -26.5z" />
<glyph unicode="&#x16b;" d="M729 566q31 0 53 -22t22 -53v-251q0 -32 -22 -54t-53 -22h-252q-31 0 -53 22t-22 54v251q0 31 22 53t53 22h252zM477 516q-10 0 -17.5 -7.5t-7.5 -17.5v-251q0 -11 7.5 -18.5t17.5 -7.5h252q10 0 17.5 7.5t7.5 18.5v251q0 10 -7.5 17.5t-17.5 7.5h-252zM658 363l52 -52 q11 -11 11 -26.5t-11 -26.5t-26.5 -11t-26.5 11l-53 52l-52 -52q-11 -11 -26.5 -11t-26.5 11t-11 26.5t11 26.5l52 52l-52 52q-11 11 -11 26.5t11 26.5t26.5 11t26.5 -11l52 -52l53 52q11 11 26.5 11t26.5 -11t11 -26.5t-11 -26.5z" />
<glyph unicode="&#x16c;" d="M729 566q31 0 53 -22t22 -53v-251q0 -32 -22 -54t-53 -22h-252q-31 0 -53 22t-22 54v251q0 31 22 53t53 22h252zM477 516q-10 0 -17.5 -7.5t-7.5 -17.5v-251q0 -11 7.5 -18.5t17.5 -7.5h252q10 0 17.5 7.5t7.5 18.5v251q0 10 -7.5 17.5t-17.5 7.5h-252zM658 363l52 -52 q11 -11 11 -26.5t-11 -26.5t-26.5 -11t-26.5 11l-53 52l-52 -52q-11 -11 -26.5 -11t-26.5 11t-11 26.5t11 26.5l52 52l-52 52q-11 11 -11 26.5t11 26.5t26.5 11t26.5 -11l52 -52l53 52q11 11 26.5 11t26.5 -11t11 -26.5t-11 -26.5z" />
<glyph unicode="&#x16d;" d="M729 566q31 0 53 -22t22 -53v-251q0 -32 -22 -54t-53 -22h-252q-31 0 -53 22t-22 54v251q0 31 22 53t53 22h252zM477 516q-10 0 -17.5 -7.5t-7.5 -17.5v-251q0 -11 7.5 -18.5t17.5 -7.5h252q10 0 17.5 7.5t7.5 18.5v251q0 10 -7.5 17.5t-17.5 7.5h-252zM658 363l52 -52 q11 -11 11 -26.5t-11 -26.5t-26.5 -11t-26.5 11l-53 52l-52 -52q-11 -11 -26.5 -11t-26.5 11t-11 26.5t11 26.5l52 52l-52 52q-11 11 -11 26.5t11 26.5t26.5 11t26.5 -11l52 -52l53 52q11 11 26.5 11t26.5 -11t11 -26.5t-11 -26.5z" />
<glyph unicode="&#x16e;" d="M729 566q31 0 53 -22t22 -53v-251q0 -32 -22 -54t-53 -22h-252q-31 0 -53 22t-22 54v251q0 31 22 53t53 22h252zM477 516q-10 0 -17.5 -7.5t-7.5 -17.5v-251q0 -11 7.5 -18.5t17.5 -7.5h252q10 0 17.5 7.5t7.5 18.5v251q0 10 -7.5 17.5t-17.5 7.5h-252zM658 363l52 -52 q11 -11 11 -26.5t-11 -26.5t-26.5 -11t-26.5 11l-53 52l-52 -52q-11 -11 -26.5 -11t-26.5 11t-11 26.5t11 26.5l52 52l-52 52q-11 11 -11 26.5t11 26.5t26.5 11t26.5 -11l52 -52l53 52q11 11 26.5 11t26.5 -11t11 -26.5t-11 -26.5z" />
<glyph unicode="&#x16f;" d="M729 566q31 0 53 -22t22 -53v-251q0 -32 -22 -54t-53 -22h-252q-31 0 -53 22t-22 54v251q0 31 22 53t53 22h252zM477 516q-10 0 -17.5 -7.5t-7.5 -17.5v-251q0 -11 7.5 -18.5t17.5 -7.5h252q10 0 17.5 7.5t7.5 18.5v251q0 10 -7.5 17.5t-17.5 7.5h-252zM658 363l52 -52 q11 -11 11 -26.5t-11 -26.5t-26.5 -11t-26.5 11l-53 52l-52 -52q-11 -11 -26.5 -11t-26.5 11t-11 26.5t11 26.5l52 52l-52 52q-11 11 -11 26.5t11 26.5t26.5 11t26.5 -11l52 -52l53 52q11 11 26.5 11t26.5 -11t11 -26.5t-11 -26.5z" />
<glyph unicode="&#x170;" d="M729 566q31 0 53 -22t22 -53v-251q0 -32 -22 -54t-53 -22h-252q-31 0 -53 22t-22 54v251q0 31 22 53t53 22h252zM477 516q-10 0 -17.5 -7.5t-7.5 -17.5v-251q0 -11 7.5 -18.5t17.5 -7.5h252q10 0 17.5 7.5t7.5 18.5v251q0 10 -7.5 17.5t-17.5 7.5h-252zM658 363l52 -52 q11 -11 11 -26.5t-11 -26.5t-26.5 -11t-26.5 11l-53 52l-52 -52q-11 -11 -26.5 -11t-26.5 11t-11 26.5t11 26.5l52 52l-52 52q-11 11 -11 26.5t11 26.5t26.5 11t26.5 -11l52 -52l53 52q11 11 26.5 11t26.5 -11t11 -26.5t-11 -26.5z" />
<glyph unicode="&#x171;" d="M729 566q31 0 53 -22t22 -53v-251q0 -32 -22 -54t-53 -22h-252q-31 0 -53 22t-22 54v251q0 31 22 53t53 22h252zM477 516q-10 0 -17.5 -7.5t-7.5 -17.5v-251q0 -11 7.5 -18.5t17.5 -7.5h252q10 0 17.5 7.5t7.5 18.5v251q0 10 -7.5 17.5t-17.5 7.5h-252zM658 363l52 -52 q11 -11 11 -26.5t-11 -26.5t-26.5 -11t-26.5 11l-53 52l-52 -52q-11 -11 -26.5 -11t-26.5 11t-11 26.5t11 26.5l52 52l-52 52q-11 11 -11 26.5t11 26.5t26.5 11t26.5 -11l52 -52l53 52q11 11 26.5 11t26.5 -11t11 -26.5t-11 -26.5z" />
<glyph unicode="&#x172;" d="M729 566q31 0 53 -22t22 -53v-251q0 -32 -22 -54t-53 -22h-252q-31 0 -53 22t-22 54v251q0 31 22 53t53 22h252zM477 516q-10 0 -17.5 -7.5t-7.5 -17.5v-251q0 -11 7.5 -18.5t17.5 -7.5h252q10 0 17.5 7.5t7.5 18.5v251q0 10 -7.5 17.5t-17.5 7.5h-252zM658 363l52 -52 q11 -11 11 -26.5t-11 -26.5t-26.5 -11t-26.5 11l-53 52l-52 -52q-11 -11 -26.5 -11t-26.5 11t-11 26.5t11 26.5l52 52l-52 52q-11 11 -11 26.5t11 26.5t26.5 11t26.5 -11l52 -52l53 52q11 11 26.5 11t26.5 -11t11 -26.5t-11 -26.5z" />
<glyph unicode="&#x173;" d="M729 566q31 0 53 -22t22 -53v-251q0 -32 -22 -54t-53 -22h-252q-31 0 -53 22t-22 54v251q0 31 22 53t53 22h252zM477 516q-10 0 -17.5 -7.5t-7.5 -17.5v-251q0 -11 7.5 -18.5t17.5 -7.5h252q10 0 17.5 7.5t7.5 18.5v251q0 10 -7.5 17.5t-17.5 7.5h-252zM658 363l52 -52 q11 -11 11 -26.5t-11 -26.5t-26.5 -11t-26.5 11l-53 52l-52 -52q-11 -11 -26.5 -11t-26.5 11t-11 26.5t11 26.5l52 52l-52 52q-11 11 -11 26.5t11 26.5t26.5 11t26.5 -11l52 -52l53 52q11 11 26.5 11t26.5 -11t11 -26.5t-11 -26.5z" />
<glyph unicode="&#x174;" d="M729 566q31 0 53 -22t22 -53v-251q0 -32 -22 -54t-53 -22h-252q-31 0 -53 22t-22 54v251q0 31 22 53t53 22h252zM477 516q-10 0 -17.5 -7.5t-7.5 -17.5v-251q0 -11 7.5 -18.5t17.5 -7.5h252q10 0 17.5 7.5t7.5 18.5v251q0 10 -7.5 17.5t-17.5 7.5h-252zM658 363l52 -52 q11 -11 11 -26.5t-11 -26.5t-26.5 -11t-26.5 11l-53 52l-52 -52q-11 -11 -26.5 -11t-26.5 11t-11 26.5t11 26.5l52 52l-52 52q-11 11 -11 26.5t11 26.5t26.5 11t26.5 -11l52 -52l53 52q11 11 26.5 11t26.5 -11t11 -26.5t-11 -26.5z" />
<glyph unicode="&#x175;" d="M729 566q31 0 53 -22t22 -53v-251q0 -32 -22 -54t-53 -22h-252q-31 0 -53 22t-22 54v251q0 31 22 53t53 22h252zM477 516q-10 0 -17.5 -7.5t-7.5 -17.5v-251q0 -11 7.5 -18.5t17.5 -7.5h252q10 0 17.5 7.5t7.5 18.5v251q0 10 -7.5 17.5t-17.5 7.5h-252zM658 363l52 -52 q11 -11 11 -26.5t-11 -26.5t-26.5 -11t-26.5 11l-53 52l-52 -52q-11 -11 -26.5 -11t-26.5 11t-11 26.5t11 26.5l52 52l-52 52q-11 11 -11 26.5t11 26.5t26.5 11t26.5 -11l52 -52l53 52q11 11 26.5 11t26.5 -11t11 -26.5t-11 -26.5z" />
<glyph unicode="&#x176;" d="M729 566q31 0 53 -22t22 -53v-251q0 -32 -22 -54t-53 -22h-252q-31 0 -53 22t-22 54v251q0 31 22 53t53 22h252zM477 516q-10 0 -17.5 -7.5t-7.5 -17.5v-251q0 -11 7.5 -18.5t17.5 -7.5h252q10 0 17.5 7.5t7.5 18.5v251q0 10 -7.5 17.5t-17.5 7.5h-252zM658 363l52 -52 q11 -11 11 -26.5t-11 -26.5t-26.5 -11t-26.5 11l-53 52l-52 -52q-11 -11 -26.5 -11t-26.5 11t-11 26.5t11 26.5l52 52l-52 52q-11 11 -11 26.5t11 26.5t26.5 11t26.5 -11l52 -52l53 52q11 11 26.5 11t26.5 -11t11 -26.5t-11 -26.5z" />
<glyph unicode="&#x177;" d="M729 566q31 0 53 -22t22 -53v-251q0 -32 -22 -54t-53 -22h-252q-31 0 -53 22t-22 54v251q0 31 22 53t53 22h252zM477 516q-10 0 -17.5 -7.5t-7.5 -17.5v-251q0 -11 7.5 -18.5t17.5 -7.5h252q10 0 17.5 7.5t7.5 18.5v251q0 10 -7.5 17.5t-17.5 7.5h-252zM658 363l52 -52 q11 -11 11 -26.5t-11 -26.5t-26.5 -11t-26.5 11l-53 52l-52 -52q-11 -11 -26.5 -11t-26.5 11t-11 26.5t11 26.5l52 52l-52 52q-11 11 -11 26.5t11 26.5t26.5 11t26.5 -11l52 -52l53 52q11 11 26.5 11t26.5 -11t11 -26.5t-11 -26.5z" />
<glyph unicode="&#x178;" d="M729 566q31 0 53 -22t22 -53v-251q0 -32 -22 -54t-53 -22h-252q-31 0 -53 22t-22 54v251q0 31 22 53t53 22h252zM477 516q-10 0 -17.5 -7.5t-7.5 -17.5v-251q0 -11 7.5 -18.5t17.5 -7.5h252q10 0 17.5 7.5t7.5 18.5v251q0 10 -7.5 17.5t-17.5 7.5h-252zM658 363l52 -52 q11 -11 11 -26.5t-11 -26.5t-26.5 -11t-26.5 11l-53 52l-52 -52q-11 -11 -26.5 -11t-26.5 11t-11 26.5t11 26.5l52 52l-52 52q-11 11 -11 26.5t11 26.5t26.5 11t26.5 -11l52 -52l53 52q11 11 26.5 11t26.5 -11t11 -26.5t-11 -26.5z" />
<glyph unicode="&#x179;" d="M729 566q31 0 53 -22t22 -53v-251q0 -32 -22 -54t-53 -22h-252q-31 0 -53 22t-22 54v251q0 31 22 53t53 22h252zM477 516q-10 0 -17.5 -7.5t-7.5 -17.5v-251q0 -11 7.5 -18.5t17.5 -7.5h252q10 0 17.5 7.5t7.5 18.5v251q0 10 -7.5 17.5t-17.5 7.5h-252zM658 363l52 -52 q11 -11 11 -26.5t-11 -26.5t-26.5 -11t-26.5 11l-53 52l-52 -52q-11 -11 -26.5 -11t-26.5 11t-11 26.5t11 26.5l52 52l-52 52q-11 11 -11 26.5t11 26.5t26.5 11t26.5 -11l52 -52l53 52q11 11 26.5 11t26.5 -11t11 -26.5t-11 -26.5z" />
<glyph unicode="&#x17a;" d="M729 566q31 0 53 -22t22 -53v-251q0 -32 -22 -54t-53 -22h-252q-31 0 -53 22t-22 54v251q0 31 22 53t53 22h252zM477 516q-10 0 -17.5 -7.5t-7.5 -17.5v-251q0 -11 7.5 -18.5t17.5 -7.5h252q10 0 17.5 7.5t7.5 18.5v251q0 10 -7.5 17.5t-17.5 7.5h-252zM658 363l52 -52 q11 -11 11 -26.5t-11 -26.5t-26.5 -11t-26.5 11l-53 52l-52 -52q-11 -11 -26.5 -11t-26.5 11t-11 26.5t11 26.5l52 52l-52 52q-11 11 -11 26.5t11 26.5t26.5 11t26.5 -11l52 -52l53 52q11 11 26.5 11t26.5 -11t11 -26.5t-11 -26.5z" />
<glyph unicode="&#x17b;" d="M729 566q31 0 53 -22t22 -53v-251q0 -32 -22 -54t-53 -22h-252q-31 0 -53 22t-22 54v251q0 31 22 53t53 22h252zM477 516q-10 0 -17.5 -7.5t-7.5 -17.5v-251q0 -11 7.5 -18.5t17.5 -7.5h252q10 0 17.5 7.5t7.5 18.5v251q0 10 -7.5 17.5t-17.5 7.5h-252zM658 363l52 -52 q11 -11 11 -26.5t-11 -26.5t-26.5 -11t-26.5 11l-53 52l-52 -52q-11 -11 -26.5 -11t-26.5 11t-11 26.5t11 26.5l52 52l-52 52q-11 11 -11 26.5t11 26.5t26.5 11t26.5 -11l52 -52l53 52q11 11 26.5 11t26.5 -11t11 -26.5t-11 -26.5z" />
<glyph unicode="&#x17c;" d="M729 566q31 0 53 -22t22 -53v-251q0 -32 -22 -54t-53 -22h-252q-31 0 -53 22t-22 54v251q0 31 22 53t53 22h252zM477 516q-10 0 -17.5 -7.5t-7.5 -17.5v-251q0 -11 7.5 -18.5t17.5 -7.5h252q10 0 17.5 7.5t7.5 18.5v251q0 10 -7.5 17.5t-17.5 7.5h-252zM658 363l52 -52 q11 -11 11 -26.5t-11 -26.5t-26.5 -11t-26.5 11l-53 52l-52 -52q-11 -11 -26.5 -11t-26.5 11t-11 26.5t11 26.5l52 52l-52 52q-11 11 -11 26.5t11 26.5t26.5 11t26.5 -11l52 -52l53 52q11 11 26.5 11t26.5 -11t11 -26.5t-11 -26.5z" />
<glyph unicode="&#x17d;" d="M729 566q31 0 53 -22t22 -53v-251q0 -32 -22 -54t-53 -22h-252q-31 0 -53 22t-22 54v251q0 31 22 53t53 22h252zM477 516q-10 0 -17.5 -7.5t-7.5 -17.5v-251q0 -11 7.5 -18.5t17.5 -7.5h252q10 0 17.5 7.5t7.5 18.5v251q0 10 -7.5 17.5t-17.5 7.5h-252zM658 363l52 -52 q11 -11 11 -26.5t-11 -26.5t-26.5 -11t-26.5 11l-53 52l-52 -52q-11 -11 -26.5 -11t-26.5 11t-11 26.5t11 26.5l52 52l-52 52q-11 11 -11 26.5t11 26.5t26.5 11t26.5 -11l52 -52l53 52q11 11 26.5 11t26.5 -11t11 -26.5t-11 -26.5z" />
<glyph unicode="&#x17e;" d="M729 566q31 0 53 -22t22 -53v-251q0 -32 -22 -54t-53 -22h-252q-31 0 -53 22t-22 54v251q0 31 22 53t53 22h252zM477 516q-10 0 -17.5 -7.5t-7.5 -17.5v-251q0 -11 7.5 -18.5t17.5 -7.5h252q10 0 17.5 7.5t7.5 18.5v251q0 10 -7.5 17.5t-17.5 7.5h-252zM658 363l52 -52 q11 -11 11 -26.5t-11 -26.5t-26.5 -11t-26.5 11l-53 52l-52 -52q-11 -11 -26.5 -11t-26.5 11t-11 26.5t11 26.5l52 52l-52 52q-11 11 -11 26.5t11 26.5t26.5 11t26.5 -11l52 -52l53 52q11 11 26.5 11t26.5 -11t11 -26.5t-11 -26.5z" />
<glyph unicode="&#x17f;" d="M729 566q31 0 53 -22t22 -53v-251q0 -32 -22 -54t-53 -22h-252q-31 0 -53 22t-22 54v251q0 31 22 53t53 22h252zM477 516q-10 0 -17.5 -7.5t-7.5 -17.5v-251q0 -11 7.5 -18.5t17.5 -7.5h252q10 0 17.5 7.5t7.5 18.5v251q0 10 -7.5 17.5t-17.5 7.5h-252zM658 363l52 -52 q11 -11 11 -26.5t-11 -26.5t-26.5 -11t-26.5 11l-53 52l-52 -52q-11 -11 -26.5 -11t-26.5 11t-11 26.5t11 26.5l52 52l-52 52q-11 11 -11 26.5t11 26.5t26.5 11t26.5 -11l52 -52l53 52q11 11 26.5 11t26.5 -11t11 -26.5t-11 -26.5z" />
<glyph unicode="&#x192;" d="M467 416q-15 -32 -15 -65q0 -35 15 -65l-110 -109q-28 39 -42 83.5t-14 90.5t14 90.5t42 84.5zM667 487q-33 14 -65 14q-33 0 -64 -14l-110 110q39 28 83.5 41.5t90.5 13.5t91 -13.5t84 -41.5zM538 215q15 -8 31 -11t33 -3t33 3t32 11l110 -109q-39 -28 -84 -42t-91 -14 t-90.5 14t-83.5 42zM738 286q15 30 15 65q0 33 -15 65l110 110q28 -40 41.5 -84.5t13.5 -90.5t-13.5 -90.5t-41.5 -83.5z" />
<glyph unicode="&#x1fc;" d="M729 566q31 0 53 -22t22 -53v-251q0 -32 -22 -54t-53 -22h-252q-31 0 -53 22t-22 54v251q0 31 22 53t53 22h252zM477 516q-10 0 -17.5 -7.5t-7.5 -17.5v-251q0 -11 7.5 -18.5t17.5 -7.5h252q10 0 17.5 7.5t7.5 18.5v251q0 10 -7.5 17.5t-17.5 7.5h-252zM658 363l52 -52 q11 -11 11 -26.5t-11 -26.5t-26.5 -11t-26.5 11l-53 52l-52 -52q-11 -11 -26.5 -11t-26.5 11t-11 26.5t11 26.5l52 52l-52 52q-11 11 -11 26.5t11 26.5t26.5 11t26.5 -11l52 -52l53 52q11 11 26.5 11t26.5 -11t11 -26.5t-11 -26.5z" />
<glyph unicode="&#x1fd;" d="M729 566q31 0 53 -22t22 -53v-251q0 -32 -22 -54t-53 -22h-252q-31 0 -53 22t-22 54v251q0 31 22 53t53 22h252zM477 516q-10 0 -17.5 -7.5t-7.5 -17.5v-251q0 -11 7.5 -18.5t17.5 -7.5h252q10 0 17.5 7.5t7.5 18.5v251q0 10 -7.5 17.5t-17.5 7.5h-252zM658 363l52 -52 q11 -11 11 -26.5t-11 -26.5t-26.5 -11t-26.5 11l-53 52l-52 -52q-11 -11 -26.5 -11t-26.5 11t-11 26.5t11 26.5l52 52l-52 52q-11 11 -11 26.5t11 26.5t26.5 11t26.5 -11l52 -52l53 52q11 11 26.5 11t26.5 -11t11 -26.5t-11 -26.5z" />
<glyph unicode="&#x1fe;" d="M729 566q31 0 53 -22t22 -53v-251q0 -32 -22 -54t-53 -22h-252q-31 0 -53 22t-22 54v251q0 31 22 53t53 22h252zM477 516q-10 0 -17.5 -7.5t-7.5 -17.5v-251q0 -11 7.5 -18.5t17.5 -7.5h252q10 0 17.5 7.5t7.5 18.5v251q0 10 -7.5 17.5t-17.5 7.5h-252zM658 363l52 -52 q11 -11 11 -26.5t-11 -26.5t-26.5 -11t-26.5 11l-53 52l-52 -52q-11 -11 -26.5 -11t-26.5 11t-11 26.5t11 26.5l52 52l-52 52q-11 11 -11 26.5t11 26.5t26.5 11t26.5 -11l52 -52l53 52q11 11 26.5 11t26.5 -11t11 -26.5t-11 -26.5z" />
<glyph unicode="&#x1ff;" d="M729 566q31 0 53 -22t22 -53v-251q0 -32 -22 -54t-53 -22h-252q-31 0 -53 22t-22 54v251q0 31 22 53t53 22h252zM477 516q-10 0 -17.5 -7.5t-7.5 -17.5v-251q0 -11 7.5 -18.5t17.5 -7.5h252q10 0 17.5 7.5t7.5 18.5v251q0 10 -7.5 17.5t-17.5 7.5h-252zM658 363l52 -52 q11 -11 11 -26.5t-11 -26.5t-26.5 -11t-26.5 11l-53 52l-52 -52q-11 -11 -26.5 -11t-26.5 11t-11 26.5t11 26.5l52 52l-52 52q-11 11 -11 26.5t11 26.5t26.5 11t26.5 -11l52 -52l53 52q11 11 26.5 11t26.5 -11t11 -26.5t-11 -26.5z" />
<glyph unicode="&#x218;" d="M729 566q31 0 53 -22t22 -53v-251q0 -32 -22 -54t-53 -22h-252q-31 0 -53 22t-22 54v251q0 31 22 53t53 22h252zM477 516q-10 0 -17.5 -7.5t-7.5 -17.5v-251q0 -11 7.5 -18.5t17.5 -7.5h252q10 0 17.5 7.5t7.5 18.5v251q0 10 -7.5 17.5t-17.5 7.5h-252zM658 363l52 -52 q11 -11 11 -26.5t-11 -26.5t-26.5 -11t-26.5 11l-53 52l-52 -52q-11 -11 -26.5 -11t-26.5 11t-11 26.5t11 26.5l52 52l-52 52q-11 11 -11 26.5t11 26.5t26.5 11t26.5 -11l52 -52l53 52q11 11 26.5 11t26.5 -11t11 -26.5t-11 -26.5z" />
<glyph unicode="&#x219;" d="M729 566q31 0 53 -22t22 -53v-251q0 -32 -22 -54t-53 -22h-252q-31 0 -53 22t-22 54v251q0 31 22 53t53 22h252zM477 516q-10 0 -17.5 -7.5t-7.5 -17.5v-251q0 -11 7.5 -18.5t17.5 -7.5h252q10 0 17.5 7.5t7.5 18.5v251q0 10 -7.5 17.5t-17.5 7.5h-252zM658 363l52 -52 q11 -11 11 -26.5t-11 -26.5t-26.5 -11t-26.5 11l-53 52l-52 -52q-11 -11 -26.5 -11t-26.5 11t-11 26.5t11 26.5l52 52l-52 52q-11 11 -11 26.5t11 26.5t26.5 11t26.5 -11l52 -52l53 52q11 11 26.5 11t26.5 -11t11 -26.5t-11 -26.5z" />
<glyph unicode="&#x21a;" d="M729 566q31 0 53 -22t22 -53v-251q0 -32 -22 -54t-53 -22h-252q-31 0 -53 22t-22 54v251q0 31 22 53t53 22h252zM477 516q-10 0 -17.5 -7.5t-7.5 -17.5v-251q0 -11 7.5 -18.5t17.5 -7.5h252q10 0 17.5 7.5t7.5 18.5v251q0 10 -7.5 17.5t-17.5 7.5h-252zM658 363l52 -52 q11 -11 11 -26.5t-11 -26.5t-26.5 -11t-26.5 11l-53 52l-52 -52q-11 -11 -26.5 -11t-26.5 11t-11 26.5t11 26.5l52 52l-52 52q-11 11 -11 26.5t11 26.5t26.5 11t26.5 -11l52 -52l53 52q11 11 26.5 11t26.5 -11t11 -26.5t-11 -26.5z" />
<glyph unicode="&#x21b;" d="M729 566q31 0 53 -22t22 -53v-251q0 -32 -22 -54t-53 -22h-252q-31 0 -53 22t-22 54v251q0 31 22 53t53 22h252zM477 516q-10 0 -17.5 -7.5t-7.5 -17.5v-251q0 -11 7.5 -18.5t17.5 -7.5h252q10 0 17.5 7.5t7.5 18.5v251q0 10 -7.5 17.5t-17.5 7.5h-252zM658 363l52 -52 q11 -11 11 -26.5t-11 -26.5t-26.5 -11t-26.5 11l-53 52l-52 -52q-11 -11 -26.5 -11t-26.5 11t-11 26.5t11 26.5l52 52l-52 52q-11 11 -11 26.5t11 26.5t26.5 11t26.5 -11l52 -52l53 52q11 11 26.5 11t26.5 -11t11 -26.5t-11 -26.5z" />
<glyph unicode="&#x2c6;" d="M729 566q31 0 53 -22t22 -53v-251q0 -32 -22 -54t-53 -22h-252q-31 0 -53 22t-22 54v251q0 31 22 53t53 22h252zM477 516q-10 0 -17.5 -7.5t-7.5 -17.5v-251q0 -11 7.5 -18.5t17.5 -7.5h252q10 0 17.5 7.5t7.5 18.5v251q0 10 -7.5 17.5t-17.5 7.5h-252zM658 363l52 -52 q11 -11 11 -26.5t-11 -26.5t-26.5 -11t-26.5 11l-53 52l-52 -52q-11 -11 -26.5 -11t-26.5 11t-11 26.5t11 26.5l52 52l-52 52q-11 11 -11 26.5t11 26.5t26.5 11t26.5 -11l52 -52l53 52q11 11 26.5 11t26.5 -11t11 -26.5t-11 -26.5z" />
<glyph unicode="&#x2c7;" d="M729 566q31 0 53 -22t22 -53v-251q0 -32 -22 -54t-53 -22h-252q-31 0 -53 22t-22 54v251q0 31 22 53t53 22h252zM477 516q-10 0 -17.5 -7.5t-7.5 -17.5v-251q0 -11 7.5 -18.5t17.5 -7.5h252q10 0 17.5 7.5t7.5 18.5v251q0 10 -7.5 17.5t-17.5 7.5h-252zM658 363l52 -52 q11 -11 11 -26.5t-11 -26.5t-26.5 -11t-26.5 11l-53 52l-52 -52q-11 -11 -26.5 -11t-26.5 11t-11 26.5t11 26.5l52 52l-52 52q-11 11 -11 26.5t11 26.5t26.5 11t26.5 -11l52 -52l53 52q11 11 26.5 11t26.5 -11t11 -26.5t-11 -26.5z" />
<glyph unicode="&#x2c9;" d="M729 566q31 0 53 -22t22 -53v-251q0 -32 -22 -54t-53 -22h-252q-31 0 -53 22t-22 54v251q0 31 22 53t53 22h252zM477 516q-10 0 -17.5 -7.5t-7.5 -17.5v-251q0 -11 7.5 -18.5t17.5 -7.5h252q10 0 17.5 7.5t7.5 18.5v251q0 10 -7.5 17.5t-17.5 7.5h-252zM658 363l52 -52 q11 -11 11 -26.5t-11 -26.5t-26.5 -11t-26.5 11l-53 52l-52 -52q-11 -11 -26.5 -11t-26.5 11t-11 26.5t11 26.5l52 52l-52 52q-11 11 -11 26.5t11 26.5t26.5 11t26.5 -11l52 -52l53 52q11 11 26.5 11t26.5 -11t11 -26.5t-11 -26.5z" />
<glyph unicode="&#x2d8;" d="M729 566q31 0 53 -22t22 -53v-251q0 -32 -22 -54t-53 -22h-252q-31 0 -53 22t-22 54v251q0 31 22 53t53 22h252zM477 516q-10 0 -17.5 -7.5t-7.5 -17.5v-251q0 -11 7.5 -18.5t17.5 -7.5h252q10 0 17.5 7.5t7.5 18.5v251q0 10 -7.5 17.5t-17.5 7.5h-252zM658 363l52 -52 q11 -11 11 -26.5t-11 -26.5t-26.5 -11t-26.5 11l-53 52l-52 -52q-11 -11 -26.5 -11t-26.5 11t-11 26.5t11 26.5l52 52l-52 52q-11 11 -11 26.5t11 26.5t26.5 11t26.5 -11l52 -52l53 52q11 11 26.5 11t26.5 -11t11 -26.5t-11 -26.5z" />
<glyph unicode="&#x2d9;" d="M1014 251q6 -14 15.5 -39t9.5 -54q0 -20 -7 -39t-24 -36q-31 -31 -77 -31q-38 0 -72 22q-33 23 -42.5 55.5t-9.5 67.5q0 19 1 38.5t1 38.5q0 13 -1 24t-4 20q-4 12 -11 18.5t-14.5 10t-13.5 4t-7 0.5h-31v-251h26q9 0 14.5 -4t7.5 -9q3 -5 3 -12v-25h-452v25 q0 9 3.5 14.5t8.5 7.5q5 3 13 3h25v527q0 11 7 18t18 7h301q11 0 18 -7t7 -18v-226h31q1 0 12.5 -1t27 -7.5t30.5 -20t24 -38.5q11 -32 8 -66t-3 -67q0 -31 5.5 -51.5t24.5 -33.5q9 -6 20.5 -10t23.5 -4q22 0 40 15t18 41q0 28 -21 73q-8 17 -10.5 32.5t-2.5 30.5 q0 14 1.5 27t3.5 25q2 11 3 19t1 16q0 17 -8.5 27t-32.5 19q-20 0 -40 20q-11 13 -23 24q-11 10 -24.5 18.5t-28.5 12.5t-20.5 9.5t-5.5 12.5q0 13 8 23q5 6 15.5 8t24.5 2q20 0 32 -5l84 -41q12 -7 12 -25q0 -5 -0.5 -9t-1.5 -9q36 -17 47.5 -40t11.5 -47q0 -11 -1 -21.5 t-3 -21.5t-3 -22.5t-1 -22.5q0 -23 8 -42zM900 459q12 0 12 13q0 12 -12 12q-13 0 -13 -12q0 -13 13 -13zM426 426q0 -10 7.5 -17.5t17.5 -7.5h201q11 0 18 7.5t7 17.5v151q0 11 -7 18t-18 7h-201q-10 0 -17.5 -7t-7.5 -18v-151z" />
<glyph unicode="&#x2da;" d="M729 566q31 0 53 -22t22 -53v-251q0 -32 -22 -54t-53 -22h-252q-31 0 -53 22t-22 54v251q0 31 22 53t53 22h252zM477 516q-10 0 -17.5 -7.5t-7.5 -17.5v-251q0 -11 7.5 -18.5t17.5 -7.5h252q10 0 17.5 7.5t7.5 18.5v251q0 10 -7.5 17.5t-17.5 7.5h-252zM658 363l52 -52 q11 -11 11 -26.5t-11 -26.5t-26.5 -11t-26.5 11l-53 52l-52 -52q-11 -11 -26.5 -11t-26.5 11t-11 26.5t11 26.5l52 52l-52 52q-11 11 -11 26.5t11 26.5t26.5 11t26.5 -11l52 -52l53 52q11 11 26.5 11t26.5 -11t11 -26.5t-11 -26.5z" />
<glyph unicode="&#x2db;" d="M729 566q31 0 53 -22t22 -53v-251q0 -32 -22 -54t-53 -22h-252q-31 0 -53 22t-22 54v251q0 31 22 53t53 22h252zM477 516q-10 0 -17.5 -7.5t-7.5 -17.5v-251q0 -11 7.5 -18.5t17.5 -7.5h252q10 0 17.5 7.5t7.5 18.5v251q0 10 -7.5 17.5t-17.5 7.5h-252zM658 363l52 -52 q11 -11 11 -26.5t-11 -26.5t-26.5 -11t-26.5 11l-53 52l-52 -52q-11 -11 -26.5 -11t-26.5 11t-11 26.5t11 26.5l52 52l-52 52q-11 11 -11 26.5t11 26.5t26.5 11t26.5 -11l52 -52l53 52q11 11 26.5 11t26.5 -11t11 -26.5t-11 -26.5z" />
<glyph unicode="&#x2dc;" d="M828 142h-175v-92h-101v92h-175l119 151h-94l114 133h-64l113 126h-38l75 100l76 -100h-38l113 -126h-65l115 -133h-94z" />
<glyph unicode="&#x2dd;" d="M729 566q31 0 53 -22t22 -53v-251q0 -32 -22 -54t-53 -22h-252q-31 0 -53 22t-22 54v251q0 31 22 53t53 22h252zM477 516q-10 0 -17.5 -7.5t-7.5 -17.5v-251q0 -11 7.5 -18.5t17.5 -7.5h252q10 0 17.5 7.5t7.5 18.5v251q0 10 -7.5 17.5t-17.5 7.5h-252zM658 363l52 -52 q11 -11 11 -26.5t-11 -26.5t-26.5 -11t-26.5 11l-53 52l-52 -52q-11 -11 -26.5 -11t-26.5 11t-11 26.5t11 26.5l52 52l-52 52q-11 11 -11 26.5t11 26.5t26.5 11t26.5 -11l52 -52l53 52q11 11 26.5 11t26.5 -11t11 -26.5t-11 -26.5z" />
<glyph unicode="&#x37e;" d="M729 566q31 0 53 -22t22 -53v-251q0 -32 -22 -54t-53 -22h-252q-31 0 -53 22t-22 54v251q0 31 22 53t53 22h252zM477 516q-10 0 -17.5 -7.5t-7.5 -17.5v-251q0 -11 7.5 -18.5t17.5 -7.5h252q10 0 17.5 7.5t7.5 18.5v251q0 10 -7.5 17.5t-17.5 7.5h-252zM658 363l52 -52 q11 -11 11 -26.5t-11 -26.5t-26.5 -11t-26.5 11l-53 52l-52 -52q-11 -11 -26.5 -11t-26.5 11t-11 26.5t11 26.5l52 52l-52 52q-11 11 -11 26.5t11 26.5t26.5 11t26.5 -11l52 -52l53 52q11 11 26.5 11t26.5 -11t11 -26.5t-11 -26.5z" />
<glyph unicode="&#x384;" d="M729 566q31 0 53 -22t22 -53v-251q0 -32 -22 -54t-53 -22h-252q-31 0 -53 22t-22 54v251q0 31 22 53t53 22h252zM477 516q-10 0 -17.5 -7.5t-7.5 -17.5v-251q0 -11 7.5 -18.5t17.5 -7.5h252q10 0 17.5 7.5t7.5 18.5v251q0 10 -7.5 17.5t-17.5 7.5h-252zM658 363l52 -52 q11 -11 11 -26.5t-11 -26.5t-26.5 -11t-26.5 11l-53 52l-52 -52q-11 -11 -26.5 -11t-26.5 11t-11 26.5t11 26.5l52 52l-52 52q-11 11 -11 26.5t11 26.5t26.5 11t26.5 -11l52 -52l53 52q11 11 26.5 11t26.5 -11t11 -26.5t-11 -26.5z" />
<glyph unicode="&#x385;" d="M729 566q31 0 53 -22t22 -53v-251q0 -32 -22 -54t-53 -22h-252q-31 0 -53 22t-22 54v251q0 31 22 53t53 22h252zM477 516q-10 0 -17.5 -7.5t-7.5 -17.5v-251q0 -11 7.5 -18.5t17.5 -7.5h252q10 0 17.5 7.5t7.5 18.5v251q0 10 -7.5 17.5t-17.5 7.5h-252zM658 363l52 -52 q11 -11 11 -26.5t-11 -26.5t-26.5 -11t-26.5 11l-53 52l-52 -52q-11 -11 -26.5 -11t-26.5 11t-11 26.5t11 26.5l52 52l-52 52q-11 11 -11 26.5t11 26.5t26.5 11t26.5 -11l52 -52l53 52q11 11 26.5 11t26.5 -11t11 -26.5t-11 -26.5z" />
<glyph unicode="&#x386;" d="M729 566q31 0 53 -22t22 -53v-251q0 -32 -22 -54t-53 -22h-252q-31 0 -53 22t-22 54v251q0 31 22 53t53 22h252zM477 516q-10 0 -17.5 -7.5t-7.5 -17.5v-251q0 -11 7.5 -18.5t17.5 -7.5h252q10 0 17.5 7.5t7.5 18.5v251q0 10 -7.5 17.5t-17.5 7.5h-252zM658 363l52 -52 q11 -11 11 -26.5t-11 -26.5t-26.5 -11t-26.5 11l-53 52l-52 -52q-11 -11 -26.5 -11t-26.5 11t-11 26.5t11 26.5l52 52l-52 52q-11 11 -11 26.5t11 26.5t26.5 11t26.5 -11l52 -52l53 52q11 11 26.5 11t26.5 -11t11 -26.5t-11 -26.5z" />
<glyph unicode="&#x387;" d="M729 566q31 0 53 -22t22 -53v-251q0 -32 -22 -54t-53 -22h-252q-31 0 -53 22t-22 54v251q0 31 22 53t53 22h252zM477 516q-10 0 -17.5 -7.5t-7.5 -17.5v-251q0 -11 7.5 -18.5t17.5 -7.5h252q10 0 17.5 7.5t7.5 18.5v251q0 10 -7.5 17.5t-17.5 7.5h-252zM658 363l52 -52 q11 -11 11 -26.5t-11 -26.5t-26.5 -11t-26.5 11l-53 52l-52 -52q-11 -11 -26.5 -11t-26.5 11t-11 26.5t11 26.5l52 52l-52 52q-11 11 -11 26.5t11 26.5t26.5 11t26.5 -11l52 -52l53 52q11 11 26.5 11t26.5 -11t11 -26.5t-11 -26.5z" />
<glyph unicode="&#x388;" d="M729 566q31 0 53 -22t22 -53v-251q0 -32 -22 -54t-53 -22h-252q-31 0 -53 22t-22 54v251q0 31 22 53t53 22h252zM477 516q-10 0 -17.5 -7.5t-7.5 -17.5v-251q0 -11 7.5 -18.5t17.5 -7.5h252q10 0 17.5 7.5t7.5 18.5v251q0 10 -7.5 17.5t-17.5 7.5h-252zM658 363l52 -52 q11 -11 11 -26.5t-11 -26.5t-26.5 -11t-26.5 11l-53 52l-52 -52q-11 -11 -26.5 -11t-26.5 11t-11 26.5t11 26.5l52 52l-52 52q-11 11 -11 26.5t11 26.5t26.5 11t26.5 -11l52 -52l53 52q11 11 26.5 11t26.5 -11t11 -26.5t-11 -26.5z" />
<glyph unicode="&#x389;" d="M729 566q31 0 53 -22t22 -53v-251q0 -32 -22 -54t-53 -22h-252q-31 0 -53 22t-22 54v251q0 31 22 53t53 22h252zM477 516q-10 0 -17.5 -7.5t-7.5 -17.5v-251q0 -11 7.5 -18.5t17.5 -7.5h252q10 0 17.5 7.5t7.5 18.5v251q0 10 -7.5 17.5t-17.5 7.5h-252zM658 363l52 -52 q11 -11 11 -26.5t-11 -26.5t-26.5 -11t-26.5 11l-53 52l-52 -52q-11 -11 -26.5 -11t-26.5 11t-11 26.5t11 26.5l52 52l-52 52q-11 11 -11 26.5t11 26.5t26.5 11t26.5 -11l52 -52l53 52q11 11 26.5 11t26.5 -11t11 -26.5t-11 -26.5z" />
<glyph unicode="&#x38a;" d="M729 566q31 0 53 -22t22 -53v-251q0 -32 -22 -54t-53 -22h-252q-31 0 -53 22t-22 54v251q0 31 22 53t53 22h252zM477 516q-10 0 -17.5 -7.5t-7.5 -17.5v-251q0 -11 7.5 -18.5t17.5 -7.5h252q10 0 17.5 7.5t7.5 18.5v251q0 10 -7.5 17.5t-17.5 7.5h-252zM658 363l52 -52 q11 -11 11 -26.5t-11 -26.5t-26.5 -11t-26.5 11l-53 52l-52 -52q-11 -11 -26.5 -11t-26.5 11t-11 26.5t11 26.5l52 52l-52 52q-11 11 -11 26.5t11 26.5t26.5 11t26.5 -11l52 -52l53 52q11 11 26.5 11t26.5 -11t11 -26.5t-11 -26.5z" />
<glyph unicode="&#x38c;" d="M729 566q31 0 53 -22t22 -53v-251q0 -32 -22 -54t-53 -22h-252q-31 0 -53 22t-22 54v251q0 31 22 53t53 22h252zM477 516q-10 0 -17.5 -7.5t-7.5 -17.5v-251q0 -11 7.5 -18.5t17.5 -7.5h252q10 0 17.5 7.5t7.5 18.5v251q0 10 -7.5 17.5t-17.5 7.5h-252zM658 363l52 -52 q11 -11 11 -26.5t-11 -26.5t-26.5 -11t-26.5 11l-53 52l-52 -52q-11 -11 -26.5 -11t-26.5 11t-11 26.5t11 26.5l52 52l-52 52q-11 11 -11 26.5t11 26.5t26.5 11t26.5 -11l52 -52l53 52q11 11 26.5 11t26.5 -11t11 -26.5t-11 -26.5z" />
<glyph unicode="&#x38e;" d="M729 566q31 0 53 -22t22 -53v-251q0 -32 -22 -54t-53 -22h-252q-31 0 -53 22t-22 54v251q0 31 22 53t53 22h252zM477 516q-10 0 -17.5 -7.5t-7.5 -17.5v-251q0 -11 7.5 -18.5t17.5 -7.5h252q10 0 17.5 7.5t7.5 18.5v251q0 10 -7.5 17.5t-17.5 7.5h-252zM658 363l52 -52 q11 -11 11 -26.5t-11 -26.5t-26.5 -11t-26.5 11l-53 52l-52 -52q-11 -11 -26.5 -11t-26.5 11t-11 26.5t11 26.5l52 52l-52 52q-11 11 -11 26.5t11 26.5t26.5 11t26.5 -11l52 -52l53 52q11 11 26.5 11t26.5 -11t11 -26.5t-11 -26.5z" />
<glyph unicode="&#x38f;" d="M729 566q31 0 53 -22t22 -53v-251q0 -32 -22 -54t-53 -22h-252q-31 0 -53 22t-22 54v251q0 31 22 53t53 22h252zM477 516q-10 0 -17.5 -7.5t-7.5 -17.5v-251q0 -11 7.5 -18.5t17.5 -7.5h252q10 0 17.5 7.5t7.5 18.5v251q0 10 -7.5 17.5t-17.5 7.5h-252zM658 363l52 -52 q11 -11 11 -26.5t-11 -26.5t-26.5 -11t-26.5 11l-53 52l-52 -52q-11 -11 -26.5 -11t-26.5 11t-11 26.5t11 26.5l52 52l-52 52q-11 11 -11 26.5t11 26.5t26.5 11t26.5 -11l52 -52l53 52q11 11 26.5 11t26.5 -11t11 -26.5t-11 -26.5z" />
<glyph unicode="&#x390;" d="M729 566q31 0 53 -22t22 -53v-251q0 -32 -22 -54t-53 -22h-252q-31 0 -53 22t-22 54v251q0 31 22 53t53 22h252zM477 516q-10 0 -17.5 -7.5t-7.5 -17.5v-251q0 -11 7.5 -18.5t17.5 -7.5h252q10 0 17.5 7.5t7.5 18.5v251q0 10 -7.5 17.5t-17.5 7.5h-252zM658 363l52 -52 q11 -11 11 -26.5t-11 -26.5t-26.5 -11t-26.5 11l-53 52l-52 -52q-11 -11 -26.5 -11t-26.5 11t-11 26.5t11 26.5l52 52l-52 52q-11 11 -11 26.5t11 26.5t26.5 11t26.5 -11l52 -52l53 52q11 11 26.5 11t26.5 -11t11 -26.5t-11 -26.5z" />
<glyph unicode="&#x391;" d="M729 566q31 0 53 -22t22 -53v-251q0 -32 -22 -54t-53 -22h-252q-31 0 -53 22t-22 54v251q0 31 22 53t53 22h252zM477 516q-10 0 -17.5 -7.5t-7.5 -17.5v-251q0 -11 7.5 -18.5t17.5 -7.5h252q10 0 17.5 7.5t7.5 18.5v251q0 10 -7.5 17.5t-17.5 7.5h-252zM658 363l52 -52 q11 -11 11 -26.5t-11 -26.5t-26.5 -11t-26.5 11l-53 52l-52 -52q-11 -11 -26.5 -11t-26.5 11t-11 26.5t11 26.5l52 52l-52 52q-11 11 -11 26.5t11 26.5t26.5 11t26.5 -11l52 -52l53 52q11 11 26.5 11t26.5 -11t11 -26.5t-11 -26.5z" />
<glyph unicode="&#x392;" d="M729 566q31 0 53 -22t22 -53v-251q0 -32 -22 -54t-53 -22h-252q-31 0 -53 22t-22 54v251q0 31 22 53t53 22h252zM477 516q-10 0 -17.5 -7.5t-7.5 -17.5v-251q0 -11 7.5 -18.5t17.5 -7.5h252q10 0 17.5 7.5t7.5 18.5v251q0 10 -7.5 17.5t-17.5 7.5h-252zM658 363l52 -52 q11 -11 11 -26.5t-11 -26.5t-26.5 -11t-26.5 11l-53 52l-52 -52q-11 -11 -26.5 -11t-26.5 11t-11 26.5t11 26.5l52 52l-52 52q-11 11 -11 26.5t11 26.5t26.5 11t26.5 -11l52 -52l53 52q11 11 26.5 11t26.5 -11t11 -26.5t-11 -26.5z" />
<glyph unicode="&#x393;" d="M729 566q31 0 53 -22t22 -53v-251q0 -32 -22 -54t-53 -22h-252q-31 0 -53 22t-22 54v251q0 31 22 53t53 22h252zM477 516q-10 0 -17.5 -7.5t-7.5 -17.5v-251q0 -11 7.5 -18.5t17.5 -7.5h252q10 0 17.5 7.5t7.5 18.5v251q0 10 -7.5 17.5t-17.5 7.5h-252zM658 363l52 -52 q11 -11 11 -26.5t-11 -26.5t-26.5 -11t-26.5 11l-53 52l-52 -52q-11 -11 -26.5 -11t-26.5 11t-11 26.5t11 26.5l52 52l-52 52q-11 11 -11 26.5t11 26.5t26.5 11t26.5 -11l52 -52l53 52q11 11 26.5 11t26.5 -11t11 -26.5t-11 -26.5z" />
<glyph unicode="&#x394;" d="M427 416l101 136h175v-126h126v-50h-151l-25 25l-25 -61l100 -89v-201h-50v165l-100 86v-151h-201v50h151v151l75 140h-50l-101 -100zM779 602q0 -21 -15 -35.5t-36 -14.5q-20 0 -35 14.5t-15 35.5t15 35.5t35 14.5q21 0 36 -14.5t15 -35.5z" />
<glyph unicode="&#x395;" d="M729 566q31 0 53 -22t22 -53v-251q0 -32 -22 -54t-53 -22h-252q-31 0 -53 22t-22 54v251q0 31 22 53t53 22h252zM477 516q-10 0 -17.5 -7.5t-7.5 -17.5v-251q0 -11 7.5 -18.5t17.5 -7.5h252q10 0 17.5 7.5t7.5 18.5v251q0 10 -7.5 17.5t-17.5 7.5h-252zM658 363l52 -52 q11 -11 11 -26.5t-11 -26.5t-26.5 -11t-26.5 11l-53 52l-52 -52q-11 -11 -26.5 -11t-26.5 11t-11 26.5t11 26.5l52 52l-52 52q-11 11 -11 26.5t11 26.5t26.5 11t26.5 -11l52 -52l53 52q11 11 26.5 11t26.5 -11t11 -26.5t-11 -26.5z" />
<glyph unicode="&#x396;" d="M729 566q31 0 53 -22t22 -53v-251q0 -32 -22 -54t-53 -22h-252q-31 0 -53 22t-22 54v251q0 31 22 53t53 22h252zM477 516q-10 0 -17.5 -7.5t-7.5 -17.5v-251q0 -11 7.5 -18.5t17.5 -7.5h252q10 0 17.5 7.5t7.5 18.5v251q0 10 -7.5 17.5t-17.5 7.5h-252zM658 363l52 -52 q11 -11 11 -26.5t-11 -26.5t-26.5 -11t-26.5 11l-53 52l-52 -52q-11 -11 -26.5 -11t-26.5 11t-11 26.5t11 26.5l52 52l-52 52q-11 11 -11 26.5t11 26.5t26.5 11t26.5 -11l52 -52l53 52q11 11 26.5 11t26.5 -11t11 -26.5t-11 -26.5z" />
<glyph unicode="&#x397;" d="M729 566q31 0 53 -22t22 -53v-251q0 -32 -22 -54t-53 -22h-252q-31 0 -53 22t-22 54v251q0 31 22 53t53 22h252zM477 516q-10 0 -17.5 -7.5t-7.5 -17.5v-251q0 -11 7.5 -18.5t17.5 -7.5h252q10 0 17.5 7.5t7.5 18.5v251q0 10 -7.5 17.5t-17.5 7.5h-252zM658 363l52 -52 q11 -11 11 -26.5t-11 -26.5t-26.5 -11t-26.5 11l-53 52l-52 -52q-11 -11 -26.5 -11t-26.5 11t-11 26.5t11 26.5l52 52l-52 52q-11 11 -11 26.5t11 26.5t26.5 11t26.5 -11l52 -52l53 52q11 11 26.5 11t26.5 -11t11 -26.5t-11 -26.5z" />
<glyph unicode="&#x398;" d="M729 566q31 0 53 -22t22 -53v-251q0 -32 -22 -54t-53 -22h-252q-31 0 -53 22t-22 54v251q0 31 22 53t53 22h252zM477 516q-10 0 -17.5 -7.5t-7.5 -17.5v-251q0 -11 7.5 -18.5t17.5 -7.5h252q10 0 17.5 7.5t7.5 18.5v251q0 10 -7.5 17.5t-17.5 7.5h-252zM658 363l52 -52 q11 -11 11 -26.5t-11 -26.5t-26.5 -11t-26.5 11l-53 52l-52 -52q-11 -11 -26.5 -11t-26.5 11t-11 26.5t11 26.5l52 52l-52 52q-11 11 -11 26.5t11 26.5t26.5 11t26.5 -11l52 -52l53 52q11 11 26.5 11t26.5 -11t11 -26.5t-11 -26.5z" />
<glyph unicode="&#x399;" d="M729 566q31 0 53 -22t22 -53v-251q0 -32 -22 -54t-53 -22h-252q-31 0 -53 22t-22 54v251q0 31 22 53t53 22h252zM477 516q-10 0 -17.5 -7.5t-7.5 -17.5v-251q0 -11 7.5 -18.5t17.5 -7.5h252q10 0 17.5 7.5t7.5 18.5v251q0 10 -7.5 17.5t-17.5 7.5h-252zM658 363l52 -52 q11 -11 11 -26.5t-11 -26.5t-26.5 -11t-26.5 11l-53 52l-52 -52q-11 -11 -26.5 -11t-26.5 11t-11 26.5t11 26.5l52 52l-52 52q-11 11 -11 26.5t11 26.5t26.5 11t26.5 -11l52 -52l53 52q11 11 26.5 11t26.5 -11t11 -26.5t-11 -26.5z" />
<glyph unicode="&#x39a;" d="M729 566q31 0 53 -22t22 -53v-251q0 -32 -22 -54t-53 -22h-252q-31 0 -53 22t-22 54v251q0 31 22 53t53 22h252zM477 516q-10 0 -17.5 -7.5t-7.5 -17.5v-251q0 -11 7.5 -18.5t17.5 -7.5h252q10 0 17.5 7.5t7.5 18.5v251q0 10 -7.5 17.5t-17.5 7.5h-252zM658 363l52 -52 q11 -11 11 -26.5t-11 -26.5t-26.5 -11t-26.5 11l-53 52l-52 -52q-11 -11 -26.5 -11t-26.5 11t-11 26.5t11 26.5l52 52l-52 52q-11 11 -11 26.5t11 26.5t26.5 11t26.5 -11l52 -52l53 52q11 11 26.5 11t26.5 -11t11 -26.5t-11 -26.5z" />
<glyph unicode="&#x39b;" d="M729 566q31 0 53 -22t22 -53v-251q0 -32 -22 -54t-53 -22h-252q-31 0 -53 22t-22 54v251q0 31 22 53t53 22h252zM477 516q-10 0 -17.5 -7.5t-7.5 -17.5v-251q0 -11 7.5 -18.5t17.5 -7.5h252q10 0 17.5 7.5t7.5 18.5v251q0 10 -7.5 17.5t-17.5 7.5h-252zM658 363l52 -52 q11 -11 11 -26.5t-11 -26.5t-26.5 -11t-26.5 11l-53 52l-52 -52q-11 -11 -26.5 -11t-26.5 11t-11 26.5t11 26.5l52 52l-52 52q-11 11 -11 26.5t11 26.5t26.5 11t26.5 -11l52 -52l53 52q11 11 26.5 11t26.5 -11t11 -26.5t-11 -26.5z" />
<glyph unicode="&#x39c;" d="M729 566q31 0 53 -22t22 -53v-251q0 -32 -22 -54t-53 -22h-252q-31 0 -53 22t-22 54v251q0 31 22 53t53 22h252zM477 516q-10 0 -17.5 -7.5t-7.5 -17.5v-251q0 -11 7.5 -18.5t17.5 -7.5h252q10 0 17.5 7.5t7.5 18.5v251q0 10 -7.5 17.5t-17.5 7.5h-252zM658 363l52 -52 q11 -11 11 -26.5t-11 -26.5t-26.5 -11t-26.5 11l-53 52l-52 -52q-11 -11 -26.5 -11t-26.5 11t-11 26.5t11 26.5l52 52l-52 52q-11 11 -11 26.5t11 26.5t26.5 11t26.5 -11l52 -52l53 52q11 11 26.5 11t26.5 -11t11 -26.5t-11 -26.5z" />
<glyph unicode="&#x39d;" d="M729 566q31 0 53 -22t22 -53v-251q0 -32 -22 -54t-53 -22h-252q-31 0 -53 22t-22 54v251q0 31 22 53t53 22h252zM477 516q-10 0 -17.5 -7.5t-7.5 -17.5v-251q0 -11 7.5 -18.5t17.5 -7.5h252q10 0 17.5 7.5t7.5 18.5v251q0 10 -7.5 17.5t-17.5 7.5h-252zM658 363l52 -52 q11 -11 11 -26.5t-11 -26.5t-26.5 -11t-26.5 11l-53 52l-52 -52q-11 -11 -26.5 -11t-26.5 11t-11 26.5t11 26.5l52 52l-52 52q-11 11 -11 26.5t11 26.5t26.5 11t26.5 -11l52 -52l53 52q11 11 26.5 11t26.5 -11t11 -26.5t-11 -26.5z" />
<glyph unicode="&#x39e;" d="M729 566q31 0 53 -22t22 -53v-251q0 -32 -22 -54t-53 -22h-252q-31 0 -53 22t-22 54v251q0 31 22 53t53 22h252zM477 516q-10 0 -17.5 -7.5t-7.5 -17.5v-251q0 -11 7.5 -18.5t17.5 -7.5h252q10 0 17.5 7.5t7.5 18.5v251q0 10 -7.5 17.5t-17.5 7.5h-252zM658 363l52 -52 q11 -11 11 -26.5t-11 -26.5t-26.5 -11t-26.5 11l-53 52l-52 -52q-11 -11 -26.5 -11t-26.5 11t-11 26.5t11 26.5l52 52l-52 52q-11 11 -11 26.5t11 26.5t26.5 11t26.5 -11l52 -52l53 52q11 11 26.5 11t26.5 -11t11 -26.5t-11 -26.5z" />
<glyph unicode="&#x39f;" d="M729 566q31 0 53 -22t22 -53v-251q0 -32 -22 -54t-53 -22h-252q-31 0 -53 22t-22 54v251q0 31 22 53t53 22h252zM477 516q-10 0 -17.5 -7.5t-7.5 -17.5v-251q0 -11 7.5 -18.5t17.5 -7.5h252q10 0 17.5 7.5t7.5 18.5v251q0 10 -7.5 17.5t-17.5 7.5h-252zM658 363l52 -52 q11 -11 11 -26.5t-11 -26.5t-26.5 -11t-26.5 11l-53 52l-52 -52q-11 -11 -26.5 -11t-26.5 11t-11 26.5t11 26.5l52 52l-52 52q-11 11 -11 26.5t11 26.5t26.5 11t26.5 -11l52 -52l53 52q11 11 26.5 11t26.5 -11t11 -26.5t-11 -26.5z" />
<glyph unicode="&#x3a0;" d="M729 566q31 0 53 -22t22 -53v-251q0 -32 -22 -54t-53 -22h-252q-31 0 -53 22t-22 54v251q0 31 22 53t53 22h252zM477 516q-10 0 -17.5 -7.5t-7.5 -17.5v-251q0 -11 7.5 -18.5t17.5 -7.5h252q10 0 17.5 7.5t7.5 18.5v251q0 10 -7.5 17.5t-17.5 7.5h-252zM658 363l52 -52 q11 -11 11 -26.5t-11 -26.5t-26.5 -11t-26.5 11l-53 52l-52 -52q-11 -11 -26.5 -11t-26.5 11t-11 26.5t11 26.5l52 52l-52 52q-11 11 -11 26.5t11 26.5t26.5 11t26.5 -11l52 -52l53 52q11 11 26.5 11t26.5 -11t11 -26.5t-11 -26.5z" />
<glyph unicode="&#x3a1;" d="M729 566q31 0 53 -22t22 -53v-251q0 -32 -22 -54t-53 -22h-252q-31 0 -53 22t-22 54v251q0 31 22 53t53 22h252zM477 516q-10 0 -17.5 -7.5t-7.5 -17.5v-251q0 -11 7.5 -18.5t17.5 -7.5h252q10 0 17.5 7.5t7.5 18.5v251q0 10 -7.5 17.5t-17.5 7.5h-252zM658 363l52 -52 q11 -11 11 -26.5t-11 -26.5t-26.5 -11t-26.5 11l-53 52l-52 -52q-11 -11 -26.5 -11t-26.5 11t-11 26.5t11 26.5l52 52l-52 52q-11 11 -11 26.5t11 26.5t26.5 11t26.5 -11l52 -52l53 52q11 11 26.5 11t26.5 -11t11 -26.5t-11 -26.5z" />
<glyph unicode="&#x3a3;" d="M729 566q31 0 53 -22t22 -53v-251q0 -32 -22 -54t-53 -22h-252q-31 0 -53 22t-22 54v251q0 31 22 53t53 22h252zM477 516q-10 0 -17.5 -7.5t-7.5 -17.5v-251q0 -11 7.5 -18.5t17.5 -7.5h252q10 0 17.5 7.5t7.5 18.5v251q0 10 -7.5 17.5t-17.5 7.5h-252zM658 363l52 -52 q11 -11 11 -26.5t-11 -26.5t-26.5 -11t-26.5 11l-53 52l-52 -52q-11 -11 -26.5 -11t-26.5 11t-11 26.5t11 26.5l52 52l-52 52q-11 11 -11 26.5t11 26.5t26.5 11t26.5 -11l52 -52l53 52q11 11 26.5 11t26.5 -11t11 -26.5t-11 -26.5z" />
<glyph unicode="&#x3a4;" d="M729 566q31 0 53 -22t22 -53v-251q0 -32 -22 -54t-53 -22h-252q-31 0 -53 22t-22 54v251q0 31 22 53t53 22h252zM477 516q-10 0 -17.5 -7.5t-7.5 -17.5v-251q0 -11 7.5 -18.5t17.5 -7.5h252q10 0 17.5 7.5t7.5 18.5v251q0 10 -7.5 17.5t-17.5 7.5h-252zM658 363l52 -52 q11 -11 11 -26.5t-11 -26.5t-26.5 -11t-26.5 11l-53 52l-52 -52q-11 -11 -26.5 -11t-26.5 11t-11 26.5t11 26.5l52 52l-52 52q-11 11 -11 26.5t11 26.5t26.5 11t26.5 -11l52 -52l53 52q11 11 26.5 11t26.5 -11t11 -26.5t-11 -26.5z" />
<glyph unicode="&#x3a5;" d="M729 566q31 0 53 -22t22 -53v-251q0 -32 -22 -54t-53 -22h-252q-31 0 -53 22t-22 54v251q0 31 22 53t53 22h252zM477 516q-10 0 -17.5 -7.5t-7.5 -17.5v-251q0 -11 7.5 -18.5t17.5 -7.5h252q10 0 17.5 7.5t7.5 18.5v251q0 10 -7.5 17.5t-17.5 7.5h-252zM658 363l52 -52 q11 -11 11 -26.5t-11 -26.5t-26.5 -11t-26.5 11l-53 52l-52 -52q-11 -11 -26.5 -11t-26.5 11t-11 26.5t11 26.5l52 52l-52 52q-11 11 -11 26.5t11 26.5t26.5 11t26.5 -11l52 -52l53 52q11 11 26.5 11t26.5 -11t11 -26.5t-11 -26.5z" />
<glyph unicode="&#x3a6;" d="M729 566q31 0 53 -22t22 -53v-251q0 -32 -22 -54t-53 -22h-252q-31 0 -53 22t-22 54v251q0 31 22 53t53 22h252zM477 516q-10 0 -17.5 -7.5t-7.5 -17.5v-251q0 -11 7.5 -18.5t17.5 -7.5h252q10 0 17.5 7.5t7.5 18.5v251q0 10 -7.5 17.5t-17.5 7.5h-252zM658 363l52 -52 q11 -11 11 -26.5t-11 -26.5t-26.5 -11t-26.5 11l-53 52l-52 -52q-11 -11 -26.5 -11t-26.5 11t-11 26.5t11 26.5l52 52l-52 52q-11 11 -11 26.5t11 26.5t26.5 11t26.5 -11l52 -52l53 52q11 11 26.5 11t26.5 -11t11 -26.5t-11 -26.5z" />
<glyph unicode="&#x3a7;" d="M729 566q31 0 53 -22t22 -53v-251q0 -32 -22 -54t-53 -22h-252q-31 0 -53 22t-22 54v251q0 31 22 53t53 22h252zM477 516q-10 0 -17.5 -7.5t-7.5 -17.5v-251q0 -11 7.5 -18.5t17.5 -7.5h252q10 0 17.5 7.5t7.5 18.5v251q0 10 -7.5 17.5t-17.5 7.5h-252zM658 363l52 -52 q11 -11 11 -26.5t-11 -26.5t-26.5 -11t-26.5 11l-53 52l-52 -52q-11 -11 -26.5 -11t-26.5 11t-11 26.5t11 26.5l52 52l-52 52q-11 11 -11 26.5t11 26.5t26.5 11t26.5 -11l52 -52l53 52q11 11 26.5 11t26.5 -11t11 -26.5t-11 -26.5z" />
<glyph unicode="&#x3a8;" d="M729 566q31 0 53 -22t22 -53v-251q0 -32 -22 -54t-53 -22h-252q-31 0 -53 22t-22 54v251q0 31 22 53t53 22h252zM477 516q-10 0 -17.5 -7.5t-7.5 -17.5v-251q0 -11 7.5 -18.5t17.5 -7.5h252q10 0 17.5 7.5t7.5 18.5v251q0 10 -7.5 17.5t-17.5 7.5h-252zM658 363l52 -52 q11 -11 11 -26.5t-11 -26.5t-26.5 -11t-26.5 11l-53 52l-52 -52q-11 -11 -26.5 -11t-26.5 11t-11 26.5t11 26.5l52 52l-52 52q-11 11 -11 26.5t11 26.5t26.5 11t26.5 -11l52 -52l53 52q11 11 26.5 11t26.5 -11t11 -26.5t-11 -26.5z" />
<glyph unicode="&#x3a9;" d="M729 566q31 0 53 -22t22 -53v-251q0 -32 -22 -54t-53 -22h-252q-31 0 -53 22t-22 54v251q0 31 22 53t53 22h252zM477 516q-10 0 -17.5 -7.5t-7.5 -17.5v-251q0 -11 7.5 -18.5t17.5 -7.5h252q10 0 17.5 7.5t7.5 18.5v251q0 10 -7.5 17.5t-17.5 7.5h-252zM658 363l52 -52 q11 -11 11 -26.5t-11 -26.5t-26.5 -11t-26.5 11l-53 52l-52 -52q-11 -11 -26.5 -11t-26.5 11t-11 26.5t11 26.5l52 52l-52 52q-11 11 -11 26.5t11 26.5t26.5 11t26.5 -11l52 -52l53 52q11 11 26.5 11t26.5 -11t11 -26.5t-11 -26.5z" />
<glyph unicode="&#x3aa;" d="M729 566q31 0 53 -22t22 -53v-251q0 -32 -22 -54t-53 -22h-252q-31 0 -53 22t-22 54v251q0 31 22 53t53 22h252zM477 516q-10 0 -17.5 -7.5t-7.5 -17.5v-251q0 -11 7.5 -18.5t17.5 -7.5h252q10 0 17.5 7.5t7.5 18.5v251q0 10 -7.5 17.5t-17.5 7.5h-252zM658 363l52 -52 q11 -11 11 -26.5t-11 -26.5t-26.5 -11t-26.5 11l-53 52l-52 -52q-11 -11 -26.5 -11t-26.5 11t-11 26.5t11 26.5l52 52l-52 52q-11 11 -11 26.5t11 26.5t26.5 11t26.5 -11l52 -52l53 52q11 11 26.5 11t26.5 -11t11 -26.5t-11 -26.5z" />
<glyph unicode="&#x3ab;" d="M729 566q31 0 53 -22t22 -53v-251q0 -32 -22 -54t-53 -22h-252q-31 0 -53 22t-22 54v251q0 31 22 53t53 22h252zM477 516q-10 0 -17.5 -7.5t-7.5 -17.5v-251q0 -11 7.5 -18.5t17.5 -7.5h252q10 0 17.5 7.5t7.5 18.5v251q0 10 -7.5 17.5t-17.5 7.5h-252zM658 363l52 -52 q11 -11 11 -26.5t-11 -26.5t-26.5 -11t-26.5 11l-53 52l-52 -52q-11 -11 -26.5 -11t-26.5 11t-11 26.5t11 26.5l52 52l-52 52q-11 11 -11 26.5t11 26.5t26.5 11t26.5 -11l52 -52l53 52q11 11 26.5 11t26.5 -11t11 -26.5t-11 -26.5z" />
<glyph unicode="&#x3ac;" d="M729 566q31 0 53 -22t22 -53v-251q0 -32 -22 -54t-53 -22h-252q-31 0 -53 22t-22 54v251q0 31 22 53t53 22h252zM477 516q-10 0 -17.5 -7.5t-7.5 -17.5v-251q0 -11 7.5 -18.5t17.5 -7.5h252q10 0 17.5 7.5t7.5 18.5v251q0 10 -7.5 17.5t-17.5 7.5h-252zM658 363l52 -52 q11 -11 11 -26.5t-11 -26.5t-26.5 -11t-26.5 11l-53 52l-52 -52q-11 -11 -26.5 -11t-26.5 11t-11 26.5t11 26.5l52 52l-52 52q-11 11 -11 26.5t11 26.5t26.5 11t26.5 -11l52 -52l53 52q11 11 26.5 11t26.5 -11t11 -26.5t-11 -26.5z" />
<glyph unicode="&#x3ad;" d="M729 566q31 0 53 -22t22 -53v-251q0 -32 -22 -54t-53 -22h-252q-31 0 -53 22t-22 54v251q0 31 22 53t53 22h252zM477 516q-10 0 -17.5 -7.5t-7.5 -17.5v-251q0 -11 7.5 -18.5t17.5 -7.5h252q10 0 17.5 7.5t7.5 18.5v251q0 10 -7.5 17.5t-17.5 7.5h-252zM658 363l52 -52 q11 -11 11 -26.5t-11 -26.5t-26.5 -11t-26.5 11l-53 52l-52 -52q-11 -11 -26.5 -11t-26.5 11t-11 26.5t11 26.5l52 52l-52 52q-11 11 -11 26.5t11 26.5t26.5 11t26.5 -11l52 -52l53 52q11 11 26.5 11t26.5 -11t11 -26.5t-11 -26.5z" />
<glyph unicode="&#x3ae;" d="M729 566q31 0 53 -22t22 -53v-251q0 -32 -22 -54t-53 -22h-252q-31 0 -53 22t-22 54v251q0 31 22 53t53 22h252zM477 516q-10 0 -17.5 -7.5t-7.5 -17.5v-251q0 -11 7.5 -18.5t17.5 -7.5h252q10 0 17.5 7.5t7.5 18.5v251q0 10 -7.5 17.5t-17.5 7.5h-252zM658 363l52 -52 q11 -11 11 -26.5t-11 -26.5t-26.5 -11t-26.5 11l-53 52l-52 -52q-11 -11 -26.5 -11t-26.5 11t-11 26.5t11 26.5l52 52l-52 52q-11 11 -11 26.5t11 26.5t26.5 11t26.5 -11l52 -52l53 52q11 11 26.5 11t26.5 -11t11 -26.5t-11 -26.5z" />
<glyph unicode="&#x3af;" d="M729 566q31 0 53 -22t22 -53v-251q0 -32 -22 -54t-53 -22h-252q-31 0 -53 22t-22 54v251q0 31 22 53t53 22h252zM477 516q-10 0 -17.5 -7.5t-7.5 -17.5v-251q0 -11 7.5 -18.5t17.5 -7.5h252q10 0 17.5 7.5t7.5 18.5v251q0 10 -7.5 17.5t-17.5 7.5h-252zM658 363l52 -52 q11 -11 11 -26.5t-11 -26.5t-26.5 -11t-26.5 11l-53 52l-52 -52q-11 -11 -26.5 -11t-26.5 11t-11 26.5t11 26.5l52 52l-52 52q-11 11 -11 26.5t11 26.5t26.5 11t26.5 -11l52 -52l53 52q11 11 26.5 11t26.5 -11t11 -26.5t-11 -26.5z" />
<glyph unicode="&#x3b0;" d="M729 566q31 0 53 -22t22 -53v-251q0 -32 -22 -54t-53 -22h-252q-31 0 -53 22t-22 54v251q0 31 22 53t53 22h252zM477 516q-10 0 -17.5 -7.5t-7.5 -17.5v-251q0 -11 7.5 -18.5t17.5 -7.5h252q10 0 17.5 7.5t7.5 18.5v251q0 10 -7.5 17.5t-17.5 7.5h-252zM658 363l52 -52 q11 -11 11 -26.5t-11 -26.5t-26.5 -11t-26.5 11l-53 52l-52 -52q-11 -11 -26.5 -11t-26.5 11t-11 26.5t11 26.5l52 52l-52 52q-11 11 -11 26.5t11 26.5t26.5 11t26.5 -11l52 -52l53 52q11 11 26.5 11t26.5 -11t11 -26.5t-11 -26.5z" />
<glyph unicode="&#x3b1;" d="M729 566q31 0 53 -22t22 -53v-251q0 -32 -22 -54t-53 -22h-252q-31 0 -53 22t-22 54v251q0 31 22 53t53 22h252zM477 516q-10 0 -17.5 -7.5t-7.5 -17.5v-251q0 -11 7.5 -18.5t17.5 -7.5h252q10 0 17.5 7.5t7.5 18.5v251q0 10 -7.5 17.5t-17.5 7.5h-252zM658 363l52 -52 q11 -11 11 -26.5t-11 -26.5t-26.5 -11t-26.5 11l-53 52l-52 -52q-11 -11 -26.5 -11t-26.5 11t-11 26.5t11 26.5l52 52l-52 52q-11 11 -11 26.5t11 26.5t26.5 11t26.5 -11l52 -52l53 52q11 11 26.5 11t26.5 -11t11 -26.5t-11 -26.5z" />
<glyph unicode="&#x3b2;" d="M729 566q31 0 53 -22t22 -53v-251q0 -32 -22 -54t-53 -22h-252q-31 0 -53 22t-22 54v251q0 31 22 53t53 22h252zM477 516q-10 0 -17.5 -7.5t-7.5 -17.5v-251q0 -11 7.5 -18.5t17.5 -7.5h252q10 0 17.5 7.5t7.5 18.5v251q0 10 -7.5 17.5t-17.5 7.5h-252zM658 363l52 -52 q11 -11 11 -26.5t-11 -26.5t-26.5 -11t-26.5 11l-53 52l-52 -52q-11 -11 -26.5 -11t-26.5 11t-11 26.5t11 26.5l52 52l-52 52q-11 11 -11 26.5t11 26.5t26.5 11t26.5 -11l52 -52l53 52q11 11 26.5 11t26.5 -11t11 -26.5t-11 -26.5z" />
<glyph unicode="&#x3b3;" d="M729 566q31 0 53 -22t22 -53v-251q0 -32 -22 -54t-53 -22h-252q-31 0 -53 22t-22 54v251q0 31 22 53t53 22h252zM477 516q-10 0 -17.5 -7.5t-7.5 -17.5v-251q0 -11 7.5 -18.5t17.5 -7.5h252q10 0 17.5 7.5t7.5 18.5v251q0 10 -7.5 17.5t-17.5 7.5h-252zM658 363l52 -52 q11 -11 11 -26.5t-11 -26.5t-26.5 -11t-26.5 11l-53 52l-52 -52q-11 -11 -26.5 -11t-26.5 11t-11 26.5t11 26.5l52 52l-52 52q-11 11 -11 26.5t11 26.5t26.5 11t26.5 -11l52 -52l53 52q11 11 26.5 11t26.5 -11t11 -26.5t-11 -26.5z" />
<glyph unicode="&#x3b4;" d="M729 566q31 0 53 -22t22 -53v-251q0 -32 -22 -54t-53 -22h-252q-31 0 -53 22t-22 54v251q0 31 22 53t53 22h252zM477 516q-10 0 -17.5 -7.5t-7.5 -17.5v-251q0 -11 7.5 -18.5t17.5 -7.5h252q10 0 17.5 7.5t7.5 18.5v251q0 10 -7.5 17.5t-17.5 7.5h-252zM658 363l52 -52 q11 -11 11 -26.5t-11 -26.5t-26.5 -11t-26.5 11l-53 52l-52 -52q-11 -11 -26.5 -11t-26.5 11t-11 26.5t11 26.5l52 52l-52 52q-11 11 -11 26.5t11 26.5t26.5 11t26.5 -11l52 -52l53 52q11 11 26.5 11t26.5 -11t11 -26.5t-11 -26.5z" />
<glyph unicode="&#x3b5;" d="M729 566q31 0 53 -22t22 -53v-251q0 -32 -22 -54t-53 -22h-252q-31 0 -53 22t-22 54v251q0 31 22 53t53 22h252zM477 516q-10 0 -17.5 -7.5t-7.5 -17.5v-251q0 -11 7.5 -18.5t17.5 -7.5h252q10 0 17.5 7.5t7.5 18.5v251q0 10 -7.5 17.5t-17.5 7.5h-252zM658 363l52 -52 q11 -11 11 -26.5t-11 -26.5t-26.5 -11t-26.5 11l-53 52l-52 -52q-11 -11 -26.5 -11t-26.5 11t-11 26.5t11 26.5l52 52l-52 52q-11 11 -11 26.5t11 26.5t26.5 11t26.5 -11l52 -52l53 52q11 11 26.5 11t26.5 -11t11 -26.5t-11 -26.5z" />
<glyph unicode="&#x3b6;" d="M729 566q31 0 53 -22t22 -53v-251q0 -32 -22 -54t-53 -22h-252q-31 0 -53 22t-22 54v251q0 31 22 53t53 22h252zM477 516q-10 0 -17.5 -7.5t-7.5 -17.5v-251q0 -11 7.5 -18.5t17.5 -7.5h252q10 0 17.5 7.5t7.5 18.5v251q0 10 -7.5 17.5t-17.5 7.5h-252zM658 363l52 -52 q11 -11 11 -26.5t-11 -26.5t-26.5 -11t-26.5 11l-53 52l-52 -52q-11 -11 -26.5 -11t-26.5 11t-11 26.5t11 26.5l52 52l-52 52q-11 11 -11 26.5t11 26.5t26.5 11t26.5 -11l52 -52l53 52q11 11 26.5 11t26.5 -11t11 -26.5t-11 -26.5z" />
<glyph unicode="&#x3b7;" d="M729 566q31 0 53 -22t22 -53v-251q0 -32 -22 -54t-53 -22h-252q-31 0 -53 22t-22 54v251q0 31 22 53t53 22h252zM477 516q-10 0 -17.5 -7.5t-7.5 -17.5v-251q0 -11 7.5 -18.5t17.5 -7.5h252q10 0 17.5 7.5t7.5 18.5v251q0 10 -7.5 17.5t-17.5 7.5h-252zM658 363l52 -52 q11 -11 11 -26.5t-11 -26.5t-26.5 -11t-26.5 11l-53 52l-52 -52q-11 -11 -26.5 -11t-26.5 11t-11 26.5t11 26.5l52 52l-52 52q-11 11 -11 26.5t11 26.5t26.5 11t26.5 -11l52 -52l53 52q11 11 26.5 11t26.5 -11t11 -26.5t-11 -26.5z" />
<glyph unicode="&#x3b8;" d="M729 566q31 0 53 -22t22 -53v-251q0 -32 -22 -54t-53 -22h-252q-31 0 -53 22t-22 54v251q0 31 22 53t53 22h252zM477 516q-10 0 -17.5 -7.5t-7.5 -17.5v-251q0 -11 7.5 -18.5t17.5 -7.5h252q10 0 17.5 7.5t7.5 18.5v251q0 10 -7.5 17.5t-17.5 7.5h-252zM658 363l52 -52 q11 -11 11 -26.5t-11 -26.5t-26.5 -11t-26.5 11l-53 52l-52 -52q-11 -11 -26.5 -11t-26.5 11t-11 26.5t11 26.5l52 52l-52 52q-11 11 -11 26.5t11 26.5t26.5 11t26.5 -11l52 -52l53 52q11 11 26.5 11t26.5 -11t11 -26.5t-11 -26.5z" />
<glyph unicode="&#x3b9;" d="M729 566q31 0 53 -22t22 -53v-251q0 -32 -22 -54t-53 -22h-252q-31 0 -53 22t-22 54v251q0 31 22 53t53 22h252zM477 516q-10 0 -17.5 -7.5t-7.5 -17.5v-251q0 -11 7.5 -18.5t17.5 -7.5h252q10 0 17.5 7.5t7.5 18.5v251q0 10 -7.5 17.5t-17.5 7.5h-252zM658 363l52 -52 q11 -11 11 -26.5t-11 -26.5t-26.5 -11t-26.5 11l-53 52l-52 -52q-11 -11 -26.5 -11t-26.5 11t-11 26.5t11 26.5l52 52l-52 52q-11 11 -11 26.5t11 26.5t26.5 11t26.5 -11l52 -52l53 52q11 11 26.5 11t26.5 -11t11 -26.5t-11 -26.5z" />
<glyph unicode="&#x3ba;" d="M729 566q31 0 53 -22t22 -53v-251q0 -32 -22 -54t-53 -22h-252q-31 0 -53 22t-22 54v251q0 31 22 53t53 22h252zM477 516q-10 0 -17.5 -7.5t-7.5 -17.5v-251q0 -11 7.5 -18.5t17.5 -7.5h252q10 0 17.5 7.5t7.5 18.5v251q0 10 -7.5 17.5t-17.5 7.5h-252zM658 363l52 -52 q11 -11 11 -26.5t-11 -26.5t-26.5 -11t-26.5 11l-53 52l-52 -52q-11 -11 -26.5 -11t-26.5 11t-11 26.5t11 26.5l52 52l-52 52q-11 11 -11 26.5t11 26.5t26.5 11t26.5 -11l52 -52l53 52q11 11 26.5 11t26.5 -11t11 -26.5t-11 -26.5z" />
<glyph unicode="&#x3bb;" d="M729 566q31 0 53 -22t22 -53v-251q0 -32 -22 -54t-53 -22h-252q-31 0 -53 22t-22 54v251q0 31 22 53t53 22h252zM477 516q-10 0 -17.5 -7.5t-7.5 -17.5v-251q0 -11 7.5 -18.5t17.5 -7.5h252q10 0 17.5 7.5t7.5 18.5v251q0 10 -7.5 17.5t-17.5 7.5h-252zM658 363l52 -52 q11 -11 11 -26.5t-11 -26.5t-26.5 -11t-26.5 11l-53 52l-52 -52q-11 -11 -26.5 -11t-26.5 11t-11 26.5t11 26.5l52 52l-52 52q-11 11 -11 26.5t11 26.5t26.5 11t26.5 -11l52 -52l53 52q11 11 26.5 11t26.5 -11t11 -26.5t-11 -26.5z" />
<glyph unicode="&#x3bc;" d="M729 566q31 0 53 -22t22 -53v-251q0 -32 -22 -54t-53 -22h-252q-31 0 -53 22t-22 54v251q0 31 22 53t53 22h252zM477 516q-10 0 -17.5 -7.5t-7.5 -17.5v-251q0 -11 7.5 -18.5t17.5 -7.5h252q10 0 17.5 7.5t7.5 18.5v251q0 10 -7.5 17.5t-17.5 7.5h-252zM658 363l52 -52 q11 -11 11 -26.5t-11 -26.5t-26.5 -11t-26.5 11l-53 52l-52 -52q-11 -11 -26.5 -11t-26.5 11t-11 26.5t11 26.5l52 52l-52 52q-11 11 -11 26.5t11 26.5t26.5 11t26.5 -11l52 -52l53 52q11 11 26.5 11t26.5 -11t11 -26.5t-11 -26.5z" />
<glyph unicode="&#x3bd;" d="M729 566q31 0 53 -22t22 -53v-251q0 -32 -22 -54t-53 -22h-252q-31 0 -53 22t-22 54v251q0 31 22 53t53 22h252zM477 516q-10 0 -17.5 -7.5t-7.5 -17.5v-251q0 -11 7.5 -18.5t17.5 -7.5h252q10 0 17.5 7.5t7.5 18.5v251q0 10 -7.5 17.5t-17.5 7.5h-252zM658 363l52 -52 q11 -11 11 -26.5t-11 -26.5t-26.5 -11t-26.5 11l-53 52l-52 -52q-11 -11 -26.5 -11t-26.5 11t-11 26.5t11 26.5l52 52l-52 52q-11 11 -11 26.5t11 26.5t26.5 11t26.5 -11l52 -52l53 52q11 11 26.5 11t26.5 -11t11 -26.5t-11 -26.5z" />
<glyph unicode="&#x3be;" d="M729 566q31 0 53 -22t22 -53v-251q0 -32 -22 -54t-53 -22h-252q-31 0 -53 22t-22 54v251q0 31 22 53t53 22h252zM477 516q-10 0 -17.5 -7.5t-7.5 -17.5v-251q0 -11 7.5 -18.5t17.5 -7.5h252q10 0 17.5 7.5t7.5 18.5v251q0 10 -7.5 17.5t-17.5 7.5h-252zM658 363l52 -52 q11 -11 11 -26.5t-11 -26.5t-26.5 -11t-26.5 11l-53 52l-52 -52q-11 -11 -26.5 -11t-26.5 11t-11 26.5t11 26.5l52 52l-52 52q-11 11 -11 26.5t11 26.5t26.5 11t26.5 -11l52 -52l53 52q11 11 26.5 11t26.5 -11t11 -26.5t-11 -26.5z" />
<glyph unicode="&#x3bf;" d="M729 566q31 0 53 -22t22 -53v-251q0 -32 -22 -54t-53 -22h-252q-31 0 -53 22t-22 54v251q0 31 22 53t53 22h252zM477 516q-10 0 -17.5 -7.5t-7.5 -17.5v-251q0 -11 7.5 -18.5t17.5 -7.5h252q10 0 17.5 7.5t7.5 18.5v251q0 10 -7.5 17.5t-17.5 7.5h-252zM658 363l52 -52 q11 -11 11 -26.5t-11 -26.5t-26.5 -11t-26.5 11l-53 52l-52 -52q-11 -11 -26.5 -11t-26.5 11t-11 26.5t11 26.5l52 52l-52 52q-11 11 -11 26.5t11 26.5t26.5 11t26.5 -11l52 -52l53 52q11 11 26.5 11t26.5 -11t11 -26.5t-11 -26.5z" />
<glyph unicode="&#x3c0;" d="M477 602q36 0 68 -3t56 -8t37.5 -11.5t13.5 -14.5t-13.5 -15t-37.5 -12t-56 -8t-68 -3t-68 3t-56 8t-38 12t-14 15t14 14.5t38 11.5t56 8t68 3zM477 552q20 0 35 5t15 13q0 7 -15 12t-35 5q-21 0 -35.5 -5t-14.5 -12q0 -8 14.5 -13t35.5 -5zM929 502q10 0 17.5 -7 t7.5 -18v-276q0 -11 -7.5 -18t-17.5 -7h-277v-50q-9 -8 -31 -13q-19 -5 -53 -9t-91 -4t-91.5 4t-53.5 9q-22 5 -31 13v401q9 -8 31 -13q19 -5 53.5 -8.5t91.5 -3.5t91 3.5t53 8.5q22 5 31 13v-25h277zM878 452h25v25h-25v-25zM828 452h25v25h-25v-25zM778 452h25v25h-25v-25 zM728 452h25v25h-25v-25zM703 226h-25v-25h25v25zM703 427h-51v-176h51v176zM703 477h-25v-25h25v25zM753 226h-25v-25h25v25zM803 226h-25v-25h25v25zM853 226h-25v-25h25v25zM903 226h-25v-25h25v25zM929 427h-201v-176h201v176z" />
<glyph unicode="&#x3c1;" d="M729 566q31 0 53 -22t22 -53v-251q0 -32 -22 -54t-53 -22h-252q-31 0 -53 22t-22 54v251q0 31 22 53t53 22h252zM477 516q-10 0 -17.5 -7.5t-7.5 -17.5v-251q0 -11 7.5 -18.5t17.5 -7.5h252q10 0 17.5 7.5t7.5 18.5v251q0 10 -7.5 17.5t-17.5 7.5h-252zM658 363l52 -52 q11 -11 11 -26.5t-11 -26.5t-26.5 -11t-26.5 11l-53 52l-52 -52q-11 -11 -26.5 -11t-26.5 11t-11 26.5t11 26.5l52 52l-52 52q-11 11 -11 26.5t11 26.5t26.5 11t26.5 -11l52 -52l53 52q11 11 26.5 11t26.5 -11t11 -26.5t-11 -26.5z" />
<glyph unicode="&#x3c2;" d="M729 566q31 0 53 -22t22 -53v-251q0 -32 -22 -54t-53 -22h-252q-31 0 -53 22t-22 54v251q0 31 22 53t53 22h252zM477 516q-10 0 -17.5 -7.5t-7.5 -17.5v-251q0 -11 7.5 -18.5t17.5 -7.5h252q10 0 17.5 7.5t7.5 18.5v251q0 10 -7.5 17.5t-17.5 7.5h-252zM658 363l52 -52 q11 -11 11 -26.5t-11 -26.5t-26.5 -11t-26.5 11l-53 52l-52 -52q-11 -11 -26.5 -11t-26.5 11t-11 26.5t11 26.5l52 52l-52 52q-11 11 -11 26.5t11 26.5t26.5 11t26.5 -11l52 -52l53 52q11 11 26.5 11t26.5 -11t11 -26.5t-11 -26.5z" />
<glyph unicode="&#x3c3;" d="M729 566q31 0 53 -22t22 -53v-251q0 -32 -22 -54t-53 -22h-252q-31 0 -53 22t-22 54v251q0 31 22 53t53 22h252zM477 516q-10 0 -17.5 -7.5t-7.5 -17.5v-251q0 -11 7.5 -18.5t17.5 -7.5h252q10 0 17.5 7.5t7.5 18.5v251q0 10 -7.5 17.5t-17.5 7.5h-252zM658 363l52 -52 q11 -11 11 -26.5t-11 -26.5t-26.5 -11t-26.5 11l-53 52l-52 -52q-11 -11 -26.5 -11t-26.5 11t-11 26.5t11 26.5l52 52l-52 52q-11 11 -11 26.5t11 26.5t26.5 11t26.5 -11l52 -52l53 52q11 11 26.5 11t26.5 -11t11 -26.5t-11 -26.5z" />
<glyph unicode="&#x3c4;" d="M729 566q31 0 53 -22t22 -53v-251q0 -32 -22 -54t-53 -22h-252q-31 0 -53 22t-22 54v251q0 31 22 53t53 22h252zM477 516q-10 0 -17.5 -7.5t-7.5 -17.5v-251q0 -11 7.5 -18.5t17.5 -7.5h252q10 0 17.5 7.5t7.5 18.5v251q0 10 -7.5 17.5t-17.5 7.5h-252zM658 363l52 -52 q11 -11 11 -26.5t-11 -26.5t-26.5 -11t-26.5 11l-53 52l-52 -52q-11 -11 -26.5 -11t-26.5 11t-11 26.5t11 26.5l52 52l-52 52q-11 11 -11 26.5t11 26.5t26.5 11t26.5 -11l52 -52l53 52q11 11 26.5 11t26.5 -11t11 -26.5t-11 -26.5z" />
</font>
</defs>
</svg>
